<svg width="86" height="85" viewBox="0 0 86 85" fill="none" xmlns="http://www.w3.org/2000/svg">
    <path d="M0.046875 40.0105C0.262023 38.4008 0.425083 36.7797 0.703643 35.1812C2.04888 27.4562 5.3214 20.6368 10.4238 14.6891C11.033 13.9804 11.8755 13.8672 12.4711 14.3744C13.0803 14.8929 13.1211 15.6672 12.4892 16.4437C10.614 18.7395 8.88606 21.1281 7.48873 23.7545C5.09719 28.2486 3.60248 33.0145 3.03856 38.0657C0.757996 58.5035 14.2149 77.3406 34.4887 81.3979C49.4562 84.3932 62.3334 79.9624 72.5223 68.5673C79.9664 60.2423 83.1823 50.2577 82.1723 39.1524C80.9448 25.6676 74.3182 15.357 62.784 8.27722C56.658 4.51659 49.9069 2.70533 42.7322 2.72797C33.4696 2.75514 25.1309 5.59655 17.8385 11.3722C17.3833 11.7322 16.9394 12.1103 16.4751 12.459C15.687 13.0476 14.9079 13.0182 14.4074 12.4024C13.9183 11.8024 14.0519 10.9715 14.7607 10.3579C17.1772 8.27043 19.7907 6.46596 22.6148 4.97619C29.4157 1.38537 36.6764 -0.335331 44.3515 0.0540906C57.0905 0.697089 67.5581 6.00861 75.6522 15.8574C80.9923 22.3553 84.0769 29.8652 84.8401 38.2287C85.9861 50.783 82.3738 61.8543 73.8744 71.205C67.5762 78.1331 59.7516 82.4688 50.541 84.237C48.9964 84.5336 47.4179 84.6491 45.8576 84.8528C45.5858 84.8891 45.3185 84.9502 45.049 85H40.0667C38.9456 84.8664 37.8201 84.751 36.7036 84.5947C28.3219 83.4106 20.9094 80.0643 14.566 74.463C7.09467 67.8655 2.4203 59.6582 0.699113 49.814C0.422818 48.2178 0.262023 46.6013 0.046875 44.9915C0.046875 43.3319 0.046875 41.6701 0.046875 40.0105Z"
          fill="url(#paint0_linear_6848_1187)"/>
    <path d="M42.6586 79.6797C27.3423 78.9507 15.79 72.1358 9.07056 58.2389C1.92085 43.4567 5.42436 26.3086 17.5315 15.2101C25.5282 7.87903 35.0763 4.63234 45.8948 5.624C61.5825 7.06396 74.3986 17.7979 78.3663 33.0058C81.3965 44.6159 79.1409 55.3499 71.973 65.013C71.5767 65.5451 71.1781 66.0794 70.7365 66.573C70.1839 67.1956 69.3822 67.2658 68.8138 66.7926C68.2566 66.3307 68.1547 65.6062 68.6303 64.9338C69.4592 63.761 70.3809 62.6516 71.1759 61.4562C75.1912 55.4292 77.0709 48.7592 76.9011 41.5436C76.7335 34.4638 74.5118 28.0361 70.313 22.3284C65.1381 15.2939 58.2738 10.7725 49.7358 8.9205C42.346 7.31754 35.1669 8.10996 28.2821 11.2842C21.4019 14.4562 16.1184 19.3805 12.4518 25.9871C9.16341 31.9122 7.79326 38.2901 8.29829 45.0665C8.83276 52.2685 11.4055 58.6827 15.9847 64.2161C21.7371 71.1645 29.1133 75.3802 38.111 76.5394C46.9683 77.6805 55.0624 75.5772 62.4069 70.5351C63.2041 69.9872 63.9378 69.3487 64.7078 68.7623C65.5911 68.0899 66.3792 68.1057 66.8978 68.794C67.3847 69.4393 67.1968 70.2159 66.4064 70.8724C61.3719 75.0655 55.6241 77.7733 49.19 78.9507C47.0498 79.3424 44.8553 79.4397 42.6586 79.6752V79.6797Z"
          fill="url(#paint1_linear_6848_1187)"/>
    <path d="M30.3423 38.9468C29.4998 38.6094 28.7162 38.2947 27.7877 37.9212C27.5974 39.0872 27.414 40.14 27.2577 41.1973C27.1966 41.6071 27.2102 42.0259 27.1649 42.438C27.0675 43.3504 26.5194 43.8779 25.7404 43.8304C24.9681 43.7851 24.4291 43.1851 24.4835 42.2727C24.5514 41.1158 24.6284 39.9452 24.8594 38.8155C25.5524 35.4329 27.1286 32.4942 29.5111 29.9856C30.0162 29.4535 30.5687 29.1682 31.2776 29.4671C32.1722 29.8429 32.2741 30.8708 31.5743 31.7583C30.7726 32.7749 30.0048 33.8209 29.2303 34.8601C29.1171 35.0118 29.0446 35.1929 28.92 35.4239C29.6742 35.7409 30.3672 36.0782 31.0942 36.2978C31.2731 36.3522 31.6558 36.0691 31.7985 35.845C33.1415 33.7371 34.917 32.1115 37.1817 31.061C44.9995 27.4385 53.7051 32.3244 55.0073 40.3822C55.7909 45.2273 54.1693 49.2438 50.4077 52.3977C50.3035 52.486 50.2016 52.5788 50.0385 52.7214C50.4733 53.4776 50.9059 54.2338 51.3996 55.0964C52.1537 54.4602 52.8309 53.8693 53.533 53.3078C54.038 52.9026 54.6676 52.7916 55.1183 53.2625C55.4331 53.5908 55.5757 54.1455 55.6482 54.6233C55.6822 54.8519 55.424 55.1825 55.2179 55.3817C52.994 57.5371 50.3895 59.0541 47.4092 59.9076C46.5576 60.1521 45.8261 59.7831 45.5997 59.0427C45.3868 58.3499 45.7673 57.6616 46.5576 57.3515C46.9676 57.1907 47.4001 57.0866 47.8146 56.9326C48.1996 56.79 48.5732 56.6179 49.0262 56.4255C48.5619 55.6194 48.1271 54.8678 47.6991 54.1252C37.3652 58.3567 27.4344 48.8363 30.3355 38.94L30.3423 38.9468ZM42.5355 52.4497C47.9776 52.4656 52.4708 48.0144 52.5116 42.5648C52.5523 37.0948 48.0614 32.5666 42.5831 32.5508C37.1409 32.5372 32.6478 36.9861 32.607 42.4357C32.5662 47.9057 37.0572 52.4339 42.5355 52.4497Z"
          fill="url(#paint2_linear_6848_1187)"/>
    <path d="M64.5069 56.7919C60.7543 56.7421 58.4669 53.5498 59.4226 50.3235C60.0251 48.2926 60.5595 46.2391 61.0646 44.181C61.6987 41.5909 64.0993 39.8906 66.6199 40.3163C69.3444 40.7759 71.1154 43.0399 70.8436 45.7523C70.565 48.5213 69.8381 51.1816 68.7329 53.7264C67.8678 55.7165 66.2734 56.7014 64.5092 56.7897L64.5069 56.7919ZM67.3038 50.0744C67.5847 48.4601 67.9516 46.8481 68.1169 45.2135C68.2392 44.0112 67.2835 43.0671 66.1353 42.9811C64.9123 42.8905 63.986 43.6331 63.7618 44.8852C64.8874 45.2565 65.329 45.7206 65.2611 46.461C65.1863 47.2624 64.7017 47.5568 63.2115 47.7198C62.8039 48.8745 62.3668 50.0065 62.0067 51.1634C61.6307 52.3747 62.2694 53.5634 63.4312 53.9551C64.5499 54.3332 65.6823 53.8124 66.1081 52.7211C65.0867 52.094 64.7878 51.5574 65.055 50.8306C65.3268 50.0903 65.8793 49.882 67.3038 50.0699V50.0744Z"
          fill="url(#paint3_linear_6848_1187)"/>
    <path d="M61.7715 33.4269C59.9755 33.3952 58.7956 32.8519 57.7969 31.8285C56.2773 30.2708 54.7373 28.7312 53.1678 27.2234C51.3855 25.5095 51.1205 22.6228 52.6175 20.6598C54.1371 18.6697 56.9952 18.0176 59.0629 19.3648C61.7488 21.1149 64.0135 23.3586 65.7325 26.071C66.7403 27.6626 66.6316 29.415 65.6691 31.0248C64.7224 32.6073 63.2639 33.4088 61.7715 33.4247V33.4269ZM57.849 21.8281C56.7053 21.1511 55.5752 21.3119 54.8392 22.222C54.1326 23.096 54.1371 24.3752 54.9592 25.1653C55.89 26.0596 56.9046 26.8656 57.8739 27.7011C58.9179 27.049 59.5453 26.997 60.0616 27.5607C60.2541 27.7735 60.4919 28.1177 60.4421 28.3441C60.3175 28.8943 60.0367 29.4082 59.8034 29.9765C60.6821 30.8844 61.9323 30.9908 62.9084 30.178C63.7689 29.4603 63.9886 28.1177 63.2617 27.1894C62.281 25.9374 61.1962 24.7668 60.159 23.5646C59.0855 24.4567 58.5533 24.5653 57.9328 24.0876C57.3032 23.6008 57.2737 22.9465 57.8512 21.8281H57.849Z"
          fill="url(#paint4_linear_6848_1187)"/>
    <path d="M23.2266 51.5711C25.2535 51.6322 26.4062 52.2277 27.3959 53.251C28.8702 54.7748 30.3695 56.2781 31.905 57.7407C33.7077 59.4591 34.0089 62.296 32.5391 64.2997C31.0761 66.2921 28.1659 66.9985 26.1028 65.6695C23.3851 63.9171 21.0977 61.653 19.3743 58.9112C18.371 57.3151 18.4911 55.5649 19.4626 53.9574C20.4364 52.3477 21.9266 51.562 23.2266 51.5734V51.5711ZM25.4324 55.1778C24.556 54.1748 23.3987 54.0072 22.3796 54.7001C21.4533 55.3272 21.0774 56.697 21.7658 57.632C22.7487 58.9678 23.8879 60.1904 24.9613 61.4651C25.9646 60.5663 26.5172 60.4485 27.1513 60.8946C27.8058 61.3564 27.8443 61.9926 27.2872 63.1745C28.3267 63.856 29.493 63.7133 30.2517 62.8168C31.0217 61.9043 30.9764 60.5866 30.0751 59.7512C29.1692 58.909 28.2022 58.1279 27.2668 57.3241C26.1209 57.9807 25.4166 57.9716 24.9115 57.3015C24.4291 56.6607 24.5718 56.054 25.4324 55.18V55.1778Z"
          fill="url(#paint5_linear_6848_1187)"/>
    <path d="M19.097 41.1769C19.8036 33.0533 23.4973 26.7275 30.4432 22.3669C31.3627 21.7896 32.1757 21.9005 32.6128 22.6205C33.0476 23.3405 32.7894 24.0921 31.8405 24.6763C28.1037 26.9698 25.3317 30.11 23.5449 34.1107C22.451 36.5581 21.8531 39.1233 21.7852 41.8063C21.7489 43.1987 21.2983 43.8485 20.372 43.8349C19.4208 43.819 18.9928 43.1104 19.0698 41.6749C19.0788 41.5097 19.0856 41.3444 19.0947 41.1791L19.097 41.1769Z"
          fill="url(#paint6_linear_6848_1187)"/>
    <path d="M42.6022 14.2774C45.3085 14.2842 47.5256 16.5392 47.5256 19.2832C47.5256 21.9775 45.2451 24.2234 42.5161 24.2167C39.8279 24.2076 37.5813 21.9164 37.5926 19.1949C37.6039 16.4758 39.8505 14.2706 42.5999 14.2774H42.6022ZM42.5297 21.4726C43.7775 21.4794 44.817 20.4651 44.8148 19.2447C44.8125 18.0063 43.764 16.958 42.5501 16.9829C41.3226 17.0078 40.2876 18.0652 40.3057 19.2764C40.3238 20.49 41.3135 21.4681 42.5297 21.4726Z"
          fill="url(#paint7_linear_6848_1187)"/>
    <path d="M24.5647 22.899C24.2771 23.3903 24.1253 23.8205 23.8377 24.1216C20.7169 27.3705 18.5156 31.138 17.2836 35.4759C17.0164 36.4178 16.3347 36.857 15.5851 36.6646C14.7698 36.454 14.3984 35.725 14.6769 34.7424C16.0312 29.9448 18.4635 25.7653 21.9444 22.1971C22.4109 21.7194 22.993 21.4726 23.5841 21.81C23.9691 22.0296 24.2137 22.4937 24.5647 22.9012V22.899Z"
          fill="url(#paint8_linear_6848_1187)"/>
    <path d="M43.8587 65.9636C43.3061 65.9636 42.8328 66.0088 42.3708 65.9522C41.6801 65.8662 41.2724 65.4247 41.2384 64.7319C41.2022 64.0029 41.5714 63.4799 42.2983 63.3712C43.1974 63.2376 44.1124 63.224 45.0183 63.1267C47.6317 62.8482 50.0867 62.0467 52.4012 60.8128C53.5811 60.1834 54.367 60.2603 54.8018 61.0301C55.2593 61.8407 54.8879 62.5584 53.6695 63.2082C50.5759 64.8609 47.2762 65.7802 43.8565 65.959L43.8587 65.9636Z"
          fill="url(#paint9_linear_6848_1187)"/>
    <path d="M33.9826 17.6065C33.2626 17.6178 32.6446 17.0316 32.6174 16.3187C32.5902 15.5809 33.2309 14.9336 33.9803 14.9426C34.7093 14.9517 35.282 15.5379 35.282 16.2757C35.282 17.0158 34.7138 17.5974 33.9803 17.6065H33.9826Z"
          fill="url(#paint10_linear_6848_1187)"/>
    <path d="M38.3852 69.7171C38.3852 70.4232 37.7762 71.0411 37.0653 71.0547C36.3363 71.0683 35.7409 70.4979 35.7206 69.7624C35.6979 68.986 36.2888 68.3817 37.0608 68.3931C37.7875 68.4021 38.3829 68.9974 38.3829 69.7171H38.3852Z"
          fill="url(#paint11_linear_6848_1187)"/>
    <defs>
        <linearGradient
                id="paint0_linear_6848_1187"
                x1="27.7081"
                y1="85"
                x2="27.7081"
                y2="-2.88703e-06"
                gradientUnits="userSpaceOnUse">
            <stop stop-color="#0B9798"/>
            <stop offset="1" stop-color="#0AECEE"/>
        </linearGradient>
        <linearGradient
                id="paint1_linear_6848_1187"
                x1="27.7081"
                y1="85"
                x2="27.7081"
                y2="-2.88703e-06"
                gradientUnits="userSpaceOnUse">
            <stop stop-color="#0B9798"/>
            <stop offset="1" stop-color="#0AECEE"/>
        </linearGradient>
        <linearGradient
                id="paint2_linear_6848_1187"
                x1="27.7081"
                y1="85"
                x2="27.7081"
                y2="-2.88703e-06"
                gradientUnits="userSpaceOnUse">
            <stop stop-color="#0B9798"/>
            <stop offset="1" stop-color="#0AECEE"/>
        </linearGradient>
        <linearGradient
                id="paint3_linear_6848_1187" x1="27.7081" y1="85" x2="27.7081" y2="-2.88703e-06"
                gradientUnits="userSpaceOnUse">
            <stop stop-color="#0B9798"/>
            <stop offset="1" stop-color="#0AECEE"/>
        </linearGradient>
        <linearGradient
                id="paint4_linear_6848_1187" x1="27.7081" y1="85" x2="27.7081" y2="-2.88703e-06"
                gradientUnits="userSpaceOnUse">
            <stop stop-color="#0B9798"/>
            <stop offset="1" stop-color="#0AECEE"/>
        </linearGradient>
        <linearGradient id="paint5_linear_6848_1187" x1="27.7081" y1="85" x2="27.7081" y2="-2.88703e-06"
                        gradientUnits="userSpaceOnUse">
            <stop stop-color="#0B9798"/>
            <stop offset="1" stop-color="#0AECEE"/>
        </linearGradient>
        <linearGradient id="paint6_linear_6848_1187" x1="27.7081" y1="85" x2="27.7081" y2="-2.88703e-06"
                        gradientUnits="userSpaceOnUse">
            <stop stop-color="#0B9798"/>
            <stop offset="1" stop-color="#0AECEE"/>
        </linearGradient>
        <linearGradient id="paint7_linear_6848_1187" x1="27.7081" y1="85" x2="27.7081" y2="-2.88703e-06"
                        gradientUnits="userSpaceOnUse">
            <stop stop-color="#0B9798"/>
            <stop offset="1" stop-color="#0AECEE"/>
        </linearGradient>
        <linearGradient id="paint8_linear_6848_1187" x1="27.7081" y1="85" x2="27.7081" y2="-2.88703e-06"
                        gradientUnits="userSpaceOnUse">
            <stop stop-color="#0B9798"/>
            <stop offset="1" stop-color="#0AECEE"/>
        </linearGradient>
        <linearGradient id="paint9_linear_6848_1187" x1="27.7081" y1="85" x2="27.7081" y2="-2.88703e-06"
                        gradientUnits="userSpaceOnUse">
            <stop stop-color="#0B9798"/>
            <stop offset="1" stop-color="#0AECEE"/>
        </linearGradient>
        <linearGradient id="paint10_linear_6848_1187" x1="27.7081" y1="85" x2="27.7081" y2="-2.88703e-06"
                        gradientUnits="userSpaceOnUse">
            <stop stop-color="#0B9798"/>
            <stop offset="1" stop-color="#0AECEE"/>
        </linearGradient>
        <linearGradient id="paint11_linear_6848_1187" x1="27.7081" y1="85" x2="27.7081" y2="-2.88703e-06"
                        gradientUnits="userSpaceOnUse">
            <stop stop-color="#0B9798"/>
            <stop offset="1" stop-color="#0AECEE"/>
        </linearGradient>
    </defs>
</svg>
