<svg width="86" height="85" viewBox="0 0 86 85" fill="none" xmlns="http://www.w3.org/2000/svg">
<path d="M85.0751 47.0599C84.9956 47.2591 84.9055 47.4539 84.837 47.6576C84.1562 49.6785 82.4409 50.9889 80.3299 51.0974C78.2963 51.2014 76.4175 50.057 75.6085 48.118C75.3631 47.5292 75.0714 47.2835 74.4613 47.3897C74.3265 47.4141 74.185 47.3941 74.0479 47.3941C72.5006 47.3941 72.4609 47.4251 72.1249 48.9259C71.349 52.3746 70.036 55.602 68.1329 58.5836C67.2686 59.9383 67.2774 59.9826 68.3827 61.1004C68.6545 61.3749 68.8999 61.6737 69.1784 61.9836C70.4317 61.3926 71.6629 61.1181 72.9825 61.4523C76.5236 62.3466 78.009 66.6697 75.5908 69.4012C73.7473 71.4841 71.7314 73.4276 69.6934 75.3246C68.0312 76.8719 65.5025 76.8984 63.6502 75.5836C61.7757 74.251 61.0529 71.8648 61.9614 69.7C62.2023 69.1267 62.0896 68.8367 61.6917 68.4471C60.2284 67.0172 60.2461 67.0128 58.5353 68.0775C55.6065 69.8992 52.45 71.1632 49.0835 71.9003C47.7706 72.188 47.6733 72.3075 47.6733 73.6755C47.6733 74.116 47.6733 74.5565 47.6733 75.0125C47.9275 75.1165 48.1574 75.2073 48.3828 75.3047C50.5491 76.2521 51.7427 78.5276 51.2984 80.8651C50.874 83.0919 48.8559 84.8008 46.5283 84.8318C43.9908 84.865 41.4532 84.8628 38.9157 84.8318C36.5837 84.803 34.5611 83.1096 34.1257 80.8872C33.6637 78.5276 34.8816 76.2167 37.0876 75.2759C37.2888 75.1896 37.4966 75.1143 37.6822 75.0435C37.7021 74.9904 37.7198 74.966 37.7198 74.9417C37.795 71.9268 37.9519 72.281 35.3967 71.6701C32.1827 70.902 29.1943 69.576 26.4136 67.7809C25.2664 67.0415 25.1227 67.0659 24.1612 68.0243C23.8495 68.3342 23.5246 68.6353 23.1775 68.9673C23.6992 70.1427 24.0064 71.3137 23.7257 72.5887C22.9277 76.2012 18.5909 77.8082 15.8146 75.3755C13.6816 73.5073 11.7077 71.4421 9.78463 69.3525C8.29482 67.7322 8.2926 65.2397 9.55254 63.4357C10.839 61.5918 13.1356 60.8436 15.2576 61.5852C15.5428 61.6848 15.8191 61.8109 16.1108 61.9305C16.1727 61.8951 16.2545 61.8663 16.3098 61.8132C18.4097 59.7324 18.2483 60.1751 16.8646 57.8974C15.1449 55.0685 13.9667 52.0204 13.266 48.7865C12.9897 47.5137 12.8483 47.3964 11.5574 47.3941C11.091 47.3941 10.6246 47.3941 10.2466 47.3941C9.862 48.0626 9.58127 48.7068 9.16572 49.2425C7.89694 50.876 5.77273 51.5025 3.81873 50.8849C1.85588 50.2651 0.410275 48.4633 0.366067 46.387C0.308596 43.7374 0.310807 41.0833 0.363856 38.4337C0.408065 36.2091 2.16534 34.2236 4.31165 33.8229C6.62816 33.3913 8.86068 34.5246 9.78905 36.705C10.0543 37.3292 10.3814 37.5483 11.007 37.4576C11.2236 37.4266 11.4469 37.4531 11.6679 37.4531C12.7908 37.4487 13.0185 37.276 13.2439 36.1958C13.9115 32.9796 15.0896 29.9647 16.7474 27.1336C17.0392 26.6333 17.3619 26.1508 17.6714 25.6616C17.9963 25.148 17.9499 24.681 17.5255 24.2361C17.09 23.7779 16.6701 23.302 16.2501 22.8393C14.9703 23.4702 13.759 23.7203 12.4637 23.3993C8.84079 22.5029 7.39739 18.1001 9.90841 15.3354C11.7254 13.3366 13.6705 11.4462 15.6356 9.59128C17.2934 8.0263 19.8243 7.92005 21.6766 9.19284C23.5798 10.4988 24.3314 12.8673 23.529 15.0432C23.4339 15.3 23.3212 15.5501 23.1377 15.9906C23.3521 16.15 23.6461 16.3182 23.8804 16.5484C24.7602 17.4161 25.7055 17.5268 26.7164 16.8805C29.6739 14.9901 32.8812 13.7107 36.3007 12.9536C37.6336 12.657 37.7397 12.5331 37.7419 11.2005C37.7419 10.8973 37.7994 10.5785 37.7242 10.293C37.6601 10.0539 37.4921 9.74844 37.2866 9.65326C35.0673 8.63281 33.9002 6.86641 34.0461 4.66836C34.192 2.44375 35.5271 0.865495 37.8745 0.135026C37.9475 0.112891 38.0072 0.0464844 38.0735 0.00221354C41.1636 0.00221354 44.2516 0.00221354 47.3417 0.00221354C47.618 0.110677 47.8988 0.2125 48.1729 0.327604C50.1357 1.15104 51.2343 2.61641 51.3691 4.75247C51.4951 6.72917 50.3987 8.63281 48.5663 9.41862C47.828 9.73516 47.5274 10.1048 47.6689 10.8685C47.6932 11.0013 47.6711 11.143 47.6733 11.2824C47.6755 12.4999 47.8214 12.677 49.0283 12.9382C52.2599 13.6332 55.3014 14.8152 58.133 16.5263C60.4163 17.9076 59.961 18.1577 62.1029 15.9596C62.1404 15.922 62.1559 15.8645 62.1935 15.8003C62.0852 15.5324 61.9614 15.2579 61.8597 14.9746C61.1038 12.8651 61.8398 10.5342 63.6656 9.25039C65.5003 7.9599 68.0047 7.96875 69.6404 9.48281C71.7049 11.3909 73.7385 13.3543 75.5974 15.4572C78.0134 18.1887 76.5148 22.5117 72.9693 23.3971C71.674 23.7203 70.4604 23.4835 69.2071 22.8548C68.8159 23.271 68.4401 23.7115 68.0201 24.1055C67.4653 24.6257 67.4034 25.1414 67.8212 25.7878C68.3738 26.6444 68.8933 27.5232 69.3751 28.4219C70.697 30.8922 71.6187 33.5086 72.1846 36.2534C72.3879 37.2362 72.6554 37.4421 73.6412 37.4509C73.8888 37.4509 74.1408 37.4221 74.3839 37.4576C75.0515 37.555 75.372 37.2938 75.6461 36.6474C76.4484 34.7526 78.3207 33.648 80.3321 33.7454C82.4055 33.8473 84.1164 35.1355 84.8038 37.11C84.8834 37.338 84.9828 37.5594 85.0757 37.7829V47.0621L85.0751 47.0599ZM42.764 3.31367C41.577 3.31367 40.3922 3.30482 39.2052 3.31589C38.0934 3.32695 37.3905 3.93346 37.3507 4.89414C37.3109 5.85703 37.9342 6.49453 39.0549 6.63177C40.3193 6.78672 41.0266 7.55925 41.0487 8.84089C41.0642 9.83477 41.0642 10.8286 41.0487 11.8225C41.0178 13.8789 39.7357 15.5988 37.7176 16.0216C34.055 16.7875 30.6929 18.2064 27.5519 20.234C25.8322 21.343 23.792 21.0552 22.3066 19.6363C21.5683 18.9324 20.8477 18.2064 20.1426 17.4693C19.2894 16.575 19.2496 15.5457 19.9945 14.5563C20.7195 13.5934 20.7085 12.7057 19.9658 12.0594C19.2165 11.4086 18.3544 11.5104 17.4835 12.3781C15.8611 13.994 14.2386 15.6121 12.6294 17.2413C11.8271 18.0536 11.7585 18.9435 12.4084 19.6695C13.0472 20.3823 13.9314 20.3978 14.8398 19.7116C15.9053 18.9059 16.9022 18.9612 17.8725 19.902C18.5666 20.5749 19.2518 21.2566 19.9194 21.9539C21.3915 23.4901 21.6634 25.5553 20.5007 27.3461C18.4914 30.4362 17.1055 33.7609 16.3606 37.3734C15.9384 39.4188 14.2187 40.7314 12.1232 40.7602C11.2413 40.7712 10.3571 40.7646 9.47517 40.7624C7.77758 40.7602 7.20066 40.2643 6.95309 38.602C6.80942 37.6369 6.11314 37.0171 5.22013 37.0591C4.32049 37.099 3.67063 37.7741 3.66179 38.7635C3.6419 41.1652 3.64411 43.5691 3.66179 45.9708C3.66842 47.0201 4.30502 47.7262 5.2135 47.7815C6.17724 47.8391 6.83373 47.2104 6.96636 46.1014C7.12551 44.7888 7.89252 44.0982 9.23645 44.0827C10.2024 44.0716 11.1684 44.0694 12.1321 44.0827C14.1922 44.1092 15.9274 45.3931 16.3407 47.3964C17.0989 51.0664 18.5135 54.4354 20.5427 57.5764C21.6523 59.2964 21.376 61.3417 19.9702 62.8336C19.3646 63.4755 18.728 64.0887 18.1024 64.7129C16.8071 66.0056 16.1351 66.0587 14.6696 64.9896C13.9181 64.4406 13.0251 64.5048 12.4283 65.1512C11.8271 65.7997 11.7895 66.7206 12.446 67.3935C14.1966 69.1931 15.9716 70.9706 17.7709 72.7237C18.4649 73.401 19.4353 73.3435 20.0719 72.6883C20.7063 72.0375 20.6842 71.1919 20.0056 70.3021C19.1944 69.2352 19.2364 68.3099 20.1669 67.3514C20.8787 66.6187 21.5927 65.8883 22.3331 65.1866C23.8119 63.7832 25.8698 63.5109 27.5851 64.6221C30.7217 66.6564 34.0925 68.0598 37.753 68.8279C39.76 69.2484 41.0266 70.9816 41.0531 73.0491C41.0664 74.0164 41.0664 74.9815 41.0531 75.9488C41.0354 77.288 40.3436 78.0517 39.0262 78.2133C37.9232 78.3483 37.2976 79.0102 37.3573 79.9797C37.4148 80.9337 38.1155 81.5247 39.2406 81.5292C41.5571 81.538 43.8736 81.538 46.1923 81.5292C47.313 81.5247 48.0137 80.9293 48.0668 79.9708C48.1198 79.0035 47.4965 78.3483 46.3868 78.2133C45.1092 78.0583 44.3931 77.2947 44.371 76.0241C44.3533 75.0037 44.3533 73.981 44.371 72.9583C44.4085 70.9595 45.7237 69.2219 47.6755 68.8234C51.3448 68.0753 54.7046 66.6453 57.8456 64.6177C59.5631 63.5087 61.6122 63.781 63.0953 65.1888C63.8358 65.8927 64.552 66.621 65.2615 67.3536C66.1855 68.3099 66.2253 69.2418 65.4141 70.3065C64.7178 71.2207 64.7178 72.1039 65.4163 72.748C66.1479 73.4232 67.0498 73.3413 67.903 72.4957C69.5276 70.882 71.1479 69.2617 72.7593 67.6326C73.6014 66.7826 73.6744 65.8772 72.9891 65.1445C72.3371 64.4473 71.4507 64.4495 70.5577 65.1534C69.5254 65.9658 68.5639 65.9237 67.609 64.9962C66.895 64.3056 66.1921 63.6017 65.5025 62.8867C64.0281 61.3572 63.7585 59.2764 64.9167 57.4967C66.926 54.4066 68.3141 51.0841 69.059 47.4694C69.479 45.4263 71.1987 44.107 73.2942 44.0805C74.2867 44.0672 75.2791 44.0672 76.2738 44.0805C77.5824 44.0982 78.3052 44.7645 78.4577 46.0727C78.5881 47.1794 79.2512 47.8324 80.1973 47.7859C81.15 47.7395 81.7623 47.0267 81.7667 45.9177C81.7755 43.5979 81.7755 41.2781 81.7667 38.9583C81.7623 37.8272 81.1831 37.1233 80.2327 37.0591C79.2512 36.9905 78.5948 37.6391 78.4555 38.8122C78.3074 40.054 77.5647 40.7402 76.3092 40.7602C75.288 40.7757 74.269 40.7757 73.2478 40.7602C71.2363 40.727 69.5011 39.4497 69.0922 37.4863C68.3208 33.7919 66.8995 30.3964 64.857 27.2288C63.7673 25.5376 64.048 23.4967 65.4229 22.0402C66.1236 21.2987 66.8508 20.5793 67.5847 19.871C68.5175 18.9723 69.5321 18.9214 70.5555 19.6917C71.4816 20.3889 72.3437 20.3911 72.9914 19.6917C73.6722 18.959 73.5992 18.0536 72.7571 17.2014C71.1457 15.5723 69.5254 13.9542 67.9008 12.3383C67.0476 11.4927 66.1501 11.413 65.4163 12.0926C64.7156 12.7411 64.7134 13.6089 65.4074 14.5297C66.1811 15.5568 66.1369 16.5706 65.2417 17.5047C64.5542 18.2219 63.8535 18.928 63.1351 19.6142C61.5989 21.0818 59.5366 21.3385 57.7461 20.1698C54.6604 18.1533 51.3404 16.7698 47.7286 16.0305C45.7348 15.621 44.4063 13.8922 44.3732 11.8513C44.3577 10.8574 44.3577 9.86354 44.3732 8.86966C44.3908 7.54154 45.0871 6.79115 46.4222 6.62956C47.5142 6.49675 48.1353 5.8194 48.0668 4.84102C48.0004 3.91576 47.313 3.32695 46.2454 3.31589C45.0871 3.3026 43.9289 3.31367 42.7706 3.31367H42.764Z" fill="url(#paint0_linear_7091_676)"/>
<path d="M64.4629 46.5974C64.8121 52.7156 59.1623 57.9994 53.3003 57.2623C48.433 56.6513 44.7283 53.1052 44.1647 48.5188C44.0254 47.3877 44.5559 46.5863 45.5418 46.4358C46.4436 46.3008 47.2394 46.9095 47.4051 48.0052C47.9401 51.5137 50.7252 53.5479 53.2716 53.9198C56.8746 54.4466 60.4444 51.9276 61.0611 48.335C61.7176 44.5034 59.2132 40.8887 55.4665 40.2645C54.2066 40.0542 53.6385 39.5694 53.5855 38.6619C53.5258 37.606 54.2994 36.8291 55.4179 36.9375C58.0306 37.1943 60.2012 38.3586 61.932 40.3198C63.5633 42.1681 64.3922 44.3462 64.4607 46.5952L64.4629 46.5974Z" fill="url(#paint1_linear_7091_676)"/>
<path d="M43.2477 28.5127C43.2322 32.3532 40.1111 35.4632 36.2871 35.4455C32.483 35.4278 29.3354 32.2491 29.3641 28.4507C29.3928 24.6146 32.5139 21.5201 36.3468 21.5334C40.1841 21.5444 43.2632 24.6589 43.2477 28.5127ZM36.3512 24.847C34.3464 24.8338 32.7151 26.4231 32.6731 28.4263C32.6311 30.4274 34.3132 32.1362 36.3225 32.134C38.3185 32.1318 39.9343 30.5071 39.9387 28.4972C39.9431 26.474 38.3561 24.8603 36.3512 24.847Z" fill="url(#paint2_linear_7091_676)"/>
<path d="M37.6133 52.9525C37.6067 56.2617 34.921 58.96 31.6275 58.9666C28.3097 58.9733 25.6042 56.2285 25.6285 52.8816C25.6528 49.5768 28.3628 46.8918 31.6563 46.9117C34.952 46.9316 37.62 49.6366 37.6133 52.9502V52.9525ZM28.9375 52.9148C28.9264 54.4289 30.1466 55.6663 31.6364 55.653C33.1063 55.6419 34.2933 54.4444 34.3021 52.9635C34.3132 51.4472 33.0975 50.2165 31.601 50.2276C30.1333 50.2387 28.9441 51.4362 28.9353 52.9148H28.9375Z" fill="url(#paint3_linear_7091_676)"/>
<path d="M42.7217 60.4895C43.6103 60.4962 44.353 61.2444 44.3575 62.132C44.3619 63.0528 43.5705 63.8231 42.6554 63.7899C41.7691 63.7589 41.044 62.993 41.0617 62.1054C41.0794 61.2178 41.8354 60.4807 42.7217 60.4895Z" fill="url(#paint4_linear_7091_676)"/>
<path d="M22.4854 42.4797C22.4678 41.5655 23.1574 40.8218 24.0548 40.7864C24.9567 40.7487 25.7679 41.5345 25.7657 42.4443C25.7657 43.3319 25.023 44.0757 24.1322 44.0845C23.2215 44.0934 22.5031 43.3939 22.4854 42.4819V42.4797Z" fill="url(#paint5_linear_7091_676)"/>
<path d="M52.1157 26.8388C53.0175 26.8255 53.7647 27.5361 53.7912 28.4326C53.8177 29.3468 53.0374 30.1459 52.129 30.137C51.2514 30.1281 50.4999 29.3689 50.4955 28.4857C50.491 27.5914 51.2183 26.8521 52.1157 26.8388Z" fill="url(#paint6_linear_7091_676)"/>
<path d="M49.828 41.0634C49.8125 41.9577 49.0654 42.6882 48.1768 42.6815C47.2926 42.6749 46.5411 41.9245 46.5345 41.0413C46.5256 40.1183 47.2971 39.3767 48.2409 39.4011C49.1516 39.4232 49.8457 40.1515 49.828 41.0634Z" fill="url(#paint7_linear_7091_676)"/>
<defs>
<linearGradient id="paint0_linear_7091_676" x1="27.8176" y1="85" x2="27.8176" y2="-2.88703e-06" gradientUnits="userSpaceOnUse">
<stop stop-color="#0B9798"/>
<stop offset="1" stop-color="#0AECEE"/>
</linearGradient>
<linearGradient id="paint1_linear_7091_676" x1="27.8176" y1="85" x2="27.8176" y2="-2.88703e-06" gradientUnits="userSpaceOnUse">
<stop stop-color="#0B9798"/>
<stop offset="1" stop-color="#0AECEE"/>
</linearGradient>
<linearGradient id="paint2_linear_7091_676" x1="27.8176" y1="85" x2="27.8176" y2="-2.88703e-06" gradientUnits="userSpaceOnUse">
<stop stop-color="#0B9798"/>
<stop offset="1" stop-color="#0AECEE"/>
</linearGradient>
<linearGradient id="paint3_linear_7091_676" x1="27.8176" y1="85" x2="27.8176" y2="-2.88703e-06" gradientUnits="userSpaceOnUse">
<stop stop-color="#0B9798"/>
<stop offset="1" stop-color="#0AECEE"/>
</linearGradient>
<linearGradient id="paint4_linear_7091_676" x1="27.8176" y1="85" x2="27.8176" y2="-2.88703e-06" gradientUnits="userSpaceOnUse">
<stop stop-color="#0B9798"/>
<stop offset="1" stop-color="#0AECEE"/>
</linearGradient>
<linearGradient id="paint5_linear_7091_676" x1="27.8176" y1="85" x2="27.8176" y2="-2.88703e-06" gradientUnits="userSpaceOnUse">
<stop stop-color="#0B9798"/>
<stop offset="1" stop-color="#0AECEE"/>
</linearGradient>
<linearGradient id="paint6_linear_7091_676" x1="27.8176" y1="85" x2="27.8176" y2="-2.88703e-06" gradientUnits="userSpaceOnUse">
<stop stop-color="#0B9798"/>
<stop offset="1" stop-color="#0AECEE"/>
</linearGradient>
<linearGradient id="paint7_linear_7091_676" x1="27.8176" y1="85" x2="27.8176" y2="-2.88703e-06" gradientUnits="userSpaceOnUse">
<stop stop-color="#0B9798"/>
<stop offset="1" stop-color="#0AECEE"/>
</linearGradient>
</defs>
</svg>
