<svg width="54" height="85" viewBox="0 0 54 85" fill="none" xmlns="http://www.w3.org/2000/svg">
<path d="M53.3003 5.76572C53.3003 2.58636 50.7104 0 47.5268 0C44.3433 0 41.7532 2.58636 41.7532 5.76572C41.7532 7.5142 41.5113 9.25985 41.0664 11.0058H13.0376C12.7389 9.82563 12.5326 8.64344 12.4307 7.45892H30.9544C31.8908 7.45892 32.6499 6.70089 32.6499 5.76572C32.6499 4.83056 31.8908 4.07253 30.9544 4.07253H12.1017C11.3754 1.71693 9.17613 0 6.58223 0C3.39867 0 0.808594 2.58636 0.808594 5.76572C0.808594 19.1956 9.52025 30.8346 19.4493 42.4998C9.81167 53.8156 0.808594 65.6217 0.808594 79.2343C0.808594 82.4135 3.3985 85 6.58223 85C9.04646 85 11.1541 83.4498 11.9812 81.2749H42.1276C42.9546 83.4498 45.0623 85 47.5265 85C50.7101 85 53.3001 82.4136 53.3001 79.2343C53.3001 65.7736 44.5773 54.1503 34.6594 42.5002C44.2974 31.1844 53.3003 19.3783 53.3003 5.76572ZM39.9593 14.3924C39.4673 15.6325 38.8837 16.8738 38.223 18.1175H15.8699C15.2119 16.8765 14.6306 15.6352 14.1397 14.3924H39.9593ZM20.3841 25.2291C19.4834 23.9866 18.6332 22.7451 17.8467 21.504H36.246C35.4617 22.7421 34.6124 23.9834 33.711 25.2291H20.3841ZM31.1504 28.6156C29.8465 30.2756 28.4712 31.9449 27.0541 33.6258C25.6409 31.9512 24.2619 30.2819 22.9499 28.6156H31.1504ZM4.19979 5.76572C4.19979 4.45387 5.26874 3.38639 6.58239 3.38639C7.89622 3.38639 8.96499 4.45387 8.96499 5.76572C8.96499 13.3294 12.7209 20.5104 17.9345 27.6215C18.0331 27.838 18.1757 28.0296 18.3514 28.1858C20.3518 30.8741 22.5517 33.5539 24.8276 36.2415C24.1168 37.0706 23.3994 37.9025 22.6791 38.7383C22.3473 39.1231 22.0151 39.5086 21.683 39.8942C12.3269 28.8696 4.19979 17.9094 4.19979 5.76572ZM8.96483 79.2343C8.965 80.5461 7.89605 81.6136 6.58223 81.6136C5.26857 81.6136 4.19963 80.5461 4.19963 79.2343C4.19963 65.3637 14.9004 52.9513 25.2489 40.9478C35.4802 29.0801 45.1439 17.8704 45.1439 5.76589C45.1439 4.45403 46.2128 3.38655 47.5265 3.38655C48.8401 3.38655 49.9091 4.45403 49.9091 5.76589C49.9091 19.6365 39.2083 32.0488 28.8598 44.0524C18.6287 55.92 8.96483 67.1297 8.96483 79.2343ZM17.6451 63.8435C18.4176 62.6052 19.2561 61.3639 20.1482 60.1184H33.9765C34.8679 61.3607 35.7071 62.6022 36.4816 63.8435H17.6451ZM38.4215 67.2299C39.065 68.4707 39.6309 69.7121 40.1049 70.9549H14.0155C14.4904 69.7146 15.0575 68.4733 15.7037 67.2299H38.4215ZM22.6864 56.7319C24.0705 54.9573 25.5388 53.1725 27.0549 51.3744C28.5664 53.1653 30.0388 54.9503 31.4318 56.7319H22.6864ZM12.4044 77.8884C12.4865 76.7055 12.6744 75.5235 12.9572 74.3415H41.157C41.4373 75.5217 41.6247 76.7037 41.7063 77.8884H12.4044ZM49.9093 79.2343C49.9093 80.5461 48.8403 81.6136 47.5267 81.6136C46.2128 81.6136 45.1441 80.5461 45.1441 79.2343C45.1441 68.6055 37.7314 58.7378 29.2814 48.7586C29.9923 47.9295 30.7098 47.0976 31.43 46.2619C31.7618 45.8771 32.0939 45.4916 32.4263 45.1058C41.7718 56.1154 49.9093 67.062 49.9093 79.2343Z" fill="url(#paint0_linear_7091_675)"/>
<path d="M37.5671 4.07236H36.7192C35.7828 4.07236 35.0237 4.83039 35.0237 5.76556C35.0237 6.70072 35.7828 7.45875 36.7192 7.45875H37.5671C38.5035 7.45875 39.2626 6.70072 39.2626 5.76556C39.2626 4.83039 38.5035 4.07236 37.5671 4.07236Z" fill="url(#paint1_linear_7091_675)"/>
<defs>
<linearGradient id="paint0_linear_7091_675" x1="17.8908" y1="85" x2="17.8908" y2="-2.88703e-06" gradientUnits="userSpaceOnUse">
<stop stop-color="#0B9798"/>
<stop offset="1" stop-color="#0AECEE"/>
</linearGradient>
<linearGradient id="paint1_linear_7091_675" x1="17.8908" y1="85" x2="17.8908" y2="-2.88703e-06" gradientUnits="userSpaceOnUse">
<stop stop-color="#0B9798"/>
<stop offset="1" stop-color="#0AECEE"/>
</linearGradient>
</defs>
</svg>
