<svg width="99" height="99" viewBox="0 0 99 99" fill="none" xmlns="http://www.w3.org/2000/svg">
<path d="M39.3912 76.7953C38.9472 77.1946 38.5543 77.5477 38.1665 77.8958C34.4006 81.2892 29.9611 83.1113 24.9451 83.5361C14.5659 84.4165 4.42655 77.7678 1.48731 67.1013C-0.768142 58.9222 1.05357 51.5109 6.91673 45.2768C9.3712 42.6665 12.3308 40.7471 15.7497 39.6109C16.2855 39.4317 16.4335 39.1809 16.4335 38.6128C16.4131 35.3678 16.4335 32.1228 16.4692 28.8778C16.4743 28.3711 16.3672 28.1817 15.8314 28.1254C14.3567 27.9667 13.5555 27.0096 13.5555 25.4997C13.5555 24.2457 13.5555 22.9969 13.5555 21.7429C13.5606 20.361 14.4944 19.3629 15.8977 19.3578C18.6022 19.3475 21.3118 19.3885 24.0214 19.409C24.3991 19.409 24.7767 19.409 25.2359 19.409C25.2359 19.1377 25.2359 18.8869 25.2359 18.6412C25.2359 14.654 25.2359 10.6618 25.2359 6.67462C25.2359 3.18906 27.7669 0.486593 31.2522 0.440528C36.5591 0.373991 41.8712 0.373991 47.1781 0.440528C50.648 0.481475 53.1535 3.17882 53.1586 6.71556C53.1637 14.521 53.1586 22.3315 53.1586 30.1369V31.0787C53.6791 31.0787 54.1384 31.0633 54.5976 31.0787C56.353 31.1452 57.4195 32.2047 57.4858 33.9654C57.5165 34.8355 57.5165 35.7056 57.5114 36.5757C57.4961 37.8707 56.848 38.7408 55.6641 39.1912C55.2814 39.3345 55.1641 39.5085 55.1641 39.918C55.1794 51.5877 55.1794 63.2523 55.1947 74.922C55.1947 77.3225 54.6589 79.5234 52.8984 81.2534C50.6787 83.4389 48.0048 84.1299 45.0196 83.2905C42.1212 82.4767 40.4169 80.4345 39.6106 77.5836C39.5443 77.3481 39.483 77.1076 39.3963 76.7902L39.3912 76.7953ZM39.3759 55.9434C39.3759 53.85 39.381 51.7771 39.3657 49.6991C39.3657 49.4585 39.3044 49.1719 39.1667 48.9876C36.4877 45.5225 33.0994 43.0555 28.8998 41.7862C27.5424 41.3767 27.2668 41.0798 27.2617 39.6416C27.2617 36.0537 27.2617 32.4709 27.2617 28.8829C27.2617 28.6577 27.2617 28.4274 27.2617 28.1766H19.138C19.138 28.4428 19.138 28.6731 19.138 28.9034C19.138 32.4453 19.138 35.9922 19.138 39.5341C19.138 41.0696 18.9543 41.2897 17.5306 41.7554C9.96823 44.2378 5.40629 49.4534 3.59989 57.1667C3.54886 57.3765 3.64581 57.7399 3.804 57.8679C5.07461 58.8864 6.30439 59.9868 7.68726 60.8314C11.2133 62.9862 14.9231 63.0476 18.6584 61.379C20.3168 60.642 21.6537 59.4033 23.0009 58.2108C26.6902 54.9351 30.9766 53.8142 35.7835 54.7713C36.9877 55.0118 38.1359 55.5288 39.381 55.9383L39.3759 55.9434ZM39.4371 45.0107C39.4371 43.1783 39.4473 41.4432 39.4167 39.7081C39.4167 39.5648 39.1667 39.3601 38.9932 39.2935C37.7379 38.8175 37.0082 37.9526 36.952 36.586C36.9163 35.6954 36.8755 34.7997 36.9367 33.9142C36.9724 33.4024 37.1357 32.8598 37.3807 32.4094C37.9165 31.4267 38.8248 31.0428 39.927 31.048C43.2285 31.0582 46.525 31.0428 49.8265 31.0736C50.4031 31.0787 50.5613 30.9098 50.5154 30.357C50.4746 29.8554 50.5409 29.3385 50.5409 28.8317C50.5511 22.3622 50.5664 15.8927 50.5664 9.41803C50.5664 8.33807 50.5919 7.24787 50.4745 6.17814C50.2755 4.36115 48.8672 3.1737 47.0608 3.1737C41.8763 3.1737 36.6969 3.1737 31.5124 3.1737C29.1957 3.1737 27.8843 4.54029 27.9047 6.86911C27.9404 10.8563 27.9557 14.8434 27.9557 18.8357C27.9557 19.2093 28.0476 19.3117 28.4099 19.3066C29.1906 19.2912 29.9765 19.2759 30.7572 19.3424C31.8696 19.4345 32.7881 20.2688 32.834 21.3181C32.9004 22.8638 32.9055 24.4146 32.834 25.9604C32.7932 26.9277 32.2115 27.6136 31.2777 27.9258C30.8694 28.064 30.4357 28.1305 30.0224 28.2278C30.002 28.2892 29.9765 28.325 29.9765 28.366C29.9969 31.8669 30.0224 35.3678 30.0224 38.8687C30.0224 39.3089 30.2775 39.3806 30.5888 39.488C32.8238 40.2558 34.9007 41.3357 36.7734 42.7791C37.6562 43.4598 38.4829 44.2122 39.4269 45.0107H39.4371ZM3.41108 61.0719C3.35495 61.0873 3.29372 61.1026 3.23759 61.118C3.34474 62.3105 3.35495 63.5236 3.56927 64.6957C5.47773 75.2854 15.7855 82.492 26.3994 80.7364C31.5532 79.8868 35.6253 77.256 38.9319 73.3098C39.1973 72.9976 39.4014 72.5164 39.4014 72.1121C39.432 67.9765 39.4218 63.8409 39.3912 59.7053C39.3912 59.4494 39.1973 59.1065 38.983 58.9478C37.5644 57.9088 35.9315 57.4584 34.2067 57.2588C30.8184 56.8698 27.8026 57.699 25.19 59.9305C24.2868 60.6983 23.3632 61.4456 22.4447 62.1928C17.597 66.1442 10.0193 66.267 4.96234 62.2645C4.45206 61.8601 3.92647 61.466 3.41108 61.0668V61.0719ZM52.3983 53.1795C51.4186 53.1795 50.5103 53.2102 49.6071 53.1693C48.7141 53.1283 48.0966 52.5346 48.1221 51.8334C48.1528 51.0861 48.7498 50.564 49.6428 50.5436C50.546 50.5231 51.4492 50.5436 52.3779 50.5436V46.7048C51.9952 46.7048 51.6584 46.7151 51.3267 46.7048C50.6123 46.6844 49.8877 46.6946 49.1784 46.6076C48.5814 46.5308 48.1323 45.9269 48.1119 45.3485C48.0915 44.8213 48.5202 44.2122 49.0815 44.074C49.4846 43.9768 49.9132 43.9512 50.3368 43.941C51.0257 43.9205 51.7145 43.9358 52.3932 43.9358V39.4215H42.0549V64.148H52.4442C52.4442 62.7712 52.4391 61.4558 52.4442 60.1404C52.4442 59.7872 52.281 59.7104 51.9748 59.7156C51.2757 59.7258 50.5766 59.7156 49.8826 59.7156C48.8059 59.7156 48.117 59.1935 48.1323 58.4002C48.1426 57.5608 48.7753 57.0592 49.8571 57.0387C50.3623 57.0285 50.8726 57.0387 51.3777 57.0387C51.7094 57.0387 52.036 57.0387 52.3932 57.0387V53.1795H52.3983ZM42.0498 66.8812C42.0498 69.988 41.9477 73.0385 42.0804 76.0839C42.1977 78.7864 44.1674 80.7211 46.7138 80.9821C49.6581 81.2841 52.3218 79.0218 52.3983 76.0481C52.48 73.1255 52.4493 70.1978 52.4647 67.2753C52.4647 67.1525 52.4289 67.0296 52.4034 66.8812H42.0447H42.0498ZM16.1478 22.0653C16.1478 23.0071 16.1784 23.9131 16.1376 24.819C16.112 25.3206 16.2447 25.4741 16.7601 25.469C19.6993 25.4485 22.6386 25.469 25.5778 25.469C26.9505 25.469 28.3282 25.4741 29.7009 25.4485C29.8795 25.4485 30.1959 25.2745 30.201 25.1722C30.2367 24.1434 30.2214 23.1146 30.2214 22.0653H16.1478ZM54.715 33.7453C54.4803 33.7453 54.2302 33.7453 53.9802 33.7453C49.6224 33.7453 45.2646 33.7453 40.9118 33.7453C40.0784 33.7453 39.665 34.1565 39.6718 34.9788C39.6718 35.506 39.4881 36.2584 39.7535 36.499C40.0648 36.7805 40.7792 36.6474 41.315 36.6474C45.7493 36.6525 50.1837 36.6474 54.715 36.6474V33.7402V33.7453Z" fill="url(#paint0_linear_7091_664)"/>
<path d="M73.9082 31.4061C74.1429 30.4848 74.3624 29.6147 74.592 28.7036C74.1531 28.5808 73.7704 28.4784 73.3928 28.3607C71.7803 27.8591 70.9996 26.4977 71.3976 24.8496C71.5966 24.0255 71.8313 23.2117 72.0661 22.3979C72.6172 20.5041 73.9643 19.7876 75.8677 20.325C79.3427 21.3077 82.8229 22.2699 86.2979 23.2475C86.8643 23.4062 87.446 23.5546 87.9767 23.8003C89.13 24.3326 89.7168 25.4177 89.4616 26.6614C89.232 27.7772 88.9309 28.8879 88.5533 29.9627C88.0992 31.2577 86.7725 31.9282 85.4355 31.6467C84.9609 31.5494 84.4966 31.4215 83.9455 31.2884C83.7107 32.1278 83.4556 32.9467 83.277 33.7861C83.2566 33.8885 83.624 34.1495 83.8434 34.2212C85.461 34.733 86.502 35.8027 86.8235 37.4559C86.9562 38.1367 86.8643 38.8942 86.7163 39.5851C86.4561 40.8033 86.0938 42.0061 85.7264 43.1987C85.6141 43.5672 85.7009 43.7566 85.9917 43.9306C87.8185 45.0208 89.0738 46.5307 89.5484 48.6599C89.6198 48.9823 89.9617 49.2894 90.2475 49.5095C93.3092 51.8179 95.7075 54.679 97.0598 58.2772C100.019 66.1338 98.7896 73.3608 93.447 79.8201C90.722 83.1112 87.1603 85.1738 83.0729 86.3357C82.7973 86.4125 82.5218 86.5097 82.2258 86.607C82.629 87.559 82.981 88.47 83.4046 89.3401C83.5015 89.5397 83.8383 89.7342 84.0679 89.7394C85.6345 89.7598 87.196 89.7189 88.7626 89.7189C91.1201 89.7189 92.2478 90.8654 92.2478 93.2505C92.2478 94.0592 92.258 94.8628 92.2478 95.6715C92.2223 97.2786 91.0843 98.4917 89.4821 98.5838C88.7677 98.6247 88.0431 98.5991 87.3236 98.5991C75.2451 98.5991 63.1667 98.6043 51.0883 98.6094C50.3178 98.6094 49.5728 98.5684 48.9043 98.1078C48.1134 97.5652 47.6643 96.8077 47.6133 95.8762C47.5469 94.7348 47.501 93.5781 47.6133 92.4418C47.7919 90.676 48.9859 89.7087 50.823 89.6933C52.4712 89.6831 54.1245 89.6779 55.7727 89.6984C56.1758 89.7035 56.3749 89.5602 56.5279 89.1968C58.1915 85.3018 59.8856 81.4272 61.5236 77.522C61.9012 76.6212 62.4421 76.2015 63.4321 76.2066C67.8307 76.2322 72.2294 76.2322 76.6331 76.2066C77.5261 76.2066 78.0364 76.5905 78.3528 77.4043C78.8835 78.7504 78.9192 78.7862 80.3276 78.4279C85.4457 77.1228 88.8034 73.9801 89.9821 68.7543C91.0588 63.979 89.4616 60.0072 86.0427 56.6598C85.7723 56.3936 85.5376 56.4295 85.1957 56.5062C84.2772 56.7059 83.3433 56.8543 82.4044 56.9464C82.0319 56.9822 81.9043 57.0948 81.8176 57.4378C81.3022 59.3827 80.7256 61.3072 80.2357 63.2573C79.7305 65.279 77.8374 66.8247 75.8524 66.7121C75.6585 66.7019 75.3829 66.9476 75.2503 67.1472C74.3828 68.4779 73.5561 69.8343 72.6988 71.1702C72.0865 72.1273 71.7293 72.2552 70.622 71.9533C68.7492 71.4414 66.8765 70.9296 65.0037 70.4127C64.2077 70.1926 63.8607 69.7422 63.825 68.7492C63.7944 67.8791 63.8148 67.009 63.8148 66.1389C63.8148 65.8215 63.7944 65.4991 63.8148 65.1869C63.9015 64.1632 63.7893 63.3904 62.7432 62.6994C61.2889 61.7371 60.9368 60.0993 61.3654 58.4358C62.3401 54.6432 63.4015 50.8761 64.4373 47.0988C65.5651 42.9735 66.7591 38.8686 67.8103 34.7279C68.489 32.0459 70.872 30.6281 73.3265 31.3293C73.5 31.3805 73.6888 31.3856 73.8929 31.4163L73.9082 31.4061ZM75.8014 64.0506C76.8372 64.0404 77.3934 63.6053 77.6588 62.6738C78.2456 60.6418 78.7865 58.5945 79.3733 56.5625C79.4805 56.1991 79.2968 56.0968 79.0723 55.9125C78.3936 55.3444 77.6282 54.8274 77.1077 54.1365C75.4646 51.9407 75.2758 49.4993 76.4188 47.0527C77.5924 44.5448 79.6591 43.2089 82.4299 43.0554C82.879 43.0298 83.1035 42.9172 83.2158 42.4565C83.4964 41.3254 83.8383 40.2147 84.1445 39.0887C84.5119 37.7374 84.1445 37.0669 82.7871 36.6626C81.6339 36.3197 80.4704 36.0075 79.3121 35.6952C77.0107 35.0708 74.7093 34.4361 72.3978 33.8424C71.617 33.6428 70.9792 33.9806 70.622 34.7074C70.474 35.0094 70.377 35.337 70.2852 35.6645C69.1421 39.8052 68.0042 43.9511 66.8765 48.0969C65.8814 51.7513 64.8813 55.4058 63.9117 59.0705C63.6617 60.0174 64.0291 60.6725 64.9323 61.0411C65.2436 61.169 65.5651 61.2765 65.8916 61.3686C68.3155 62.0391 70.7393 62.6994 73.1632 63.3648C74.1174 63.6258 75.0767 63.8766 75.7962 64.066L75.8014 64.0506ZM80.6337 89.7087C80.5419 89.4476 80.4806 89.2531 80.399 89.0637C79.0365 85.875 77.6588 82.6863 76.3116 79.4925C76.1228 79.037 75.8575 78.9142 75.4033 78.9142C71.7038 78.9244 68.0042 78.9142 64.2996 78.9346C64.0903 78.9346 63.774 79.124 63.6923 79.3083C62.2686 82.5174 60.8704 85.742 59.4723 88.9614C59.3702 89.1968 59.3141 89.4527 59.2375 89.7087H80.6337ZM50.3433 95.8199H89.5637C89.5637 94.786 89.5637 93.8135 89.5637 92.8411C89.5637 92.534 89.4616 92.3855 89.1198 92.3906C88.3798 92.406 87.6399 92.365 86.9 92.365C77.7251 92.3599 68.5451 92.3497 59.3702 92.3548C56.5381 92.3548 53.7061 92.3906 50.874 92.4367C50.6954 92.4367 50.3688 92.6517 50.3637 92.7796C50.3229 93.7879 50.3382 94.8014 50.3382 95.825L50.3433 95.8199ZM89.5025 52.1301C89.0177 52.9388 88.5993 53.6912 88.1145 54.4026C87.8951 54.7251 87.9206 54.8889 88.191 55.1397C89.7372 56.5677 90.8802 58.2721 91.7273 60.2017C93.6868 64.6699 93.3806 69.1024 91.1762 73.3147C88.9207 77.6192 85.2722 80.2603 80.4398 81.1201C80.0571 81.1867 79.9755 81.3505 80.1184 81.6832C80.3939 82.3229 80.7052 82.9525 80.9399 83.6076C81.1032 84.0683 81.3736 84.1246 81.7666 83.9915C83.1188 83.5206 84.5272 83.1675 85.808 82.543C95.3656 77.8854 98.4069 66.359 94.0644 58.1134C92.8908 55.8818 91.4467 53.8703 89.5076 52.1352L89.5025 52.1301ZM82.7667 45.722C80.399 45.722 78.4497 47.6567 78.4395 50.0367C78.4242 52.3911 80.3939 54.3668 82.7565 54.3668C85.1242 54.3668 87.0633 52.3707 87.0531 49.9395C87.048 47.6516 85.0885 45.7271 82.7667 45.722ZM86.0938 29.1848C86.3489 28.2891 86.5581 27.4752 86.8133 26.6717C86.951 26.2315 86.798 26.0728 86.3846 25.9653C84.9354 25.5866 83.4913 25.1771 82.0472 24.7779C79.7663 24.1535 77.4904 23.5188 75.2043 22.92C75.0053 22.8688 74.5869 22.9711 74.5512 23.0889C74.2705 23.9487 74.0613 24.8291 73.8112 25.776C77.9292 26.9174 81.986 28.0434 86.0938 29.1796V29.1848ZM66.5295 64.2298C66.5295 65.5247 66.5142 66.661 66.5499 67.7972C66.5499 67.9456 66.8102 68.1709 66.9888 68.222C68.0961 68.5547 69.2238 68.8311 70.3311 69.1638C70.7189 69.2815 70.9077 69.1638 71.0965 68.8465C71.566 68.0736 72.0508 67.3007 72.5713 66.5535C72.8825 66.1082 72.7601 65.9342 72.2906 65.8113C71.3721 65.5708 70.4638 65.3046 69.5504 65.0538C68.5604 64.7825 67.5705 64.5113 66.5295 64.2246V64.2298ZM76.3167 32.1892C77.8017 32.5731 79.2101 32.9365 80.6491 33.305C80.9195 32.3325 81.1593 31.4675 81.4094 30.5718C79.9295 30.1675 78.5518 29.7938 77.1026 29.3997C76.8372 30.3364 76.5872 31.2167 76.3167 32.1841V32.1892Z" fill="url(#paint1_linear_7091_664)"/>
<path d="M11.0135 6.38827C11.0135 3.90077 12.9832 1.91999 15.4733 1.91999C17.9635 1.91999 19.9332 3.92125 19.9485 6.46504C19.9689 8.90135 17.9227 10.964 15.4631 10.9384C12.7229 10.9128 10.8298 8.53283 11.0135 6.38827ZM13.6669 6.50087C13.6771 7.51429 14.4783 8.30251 15.4835 8.28716C16.4939 8.2718 17.2593 7.50918 17.2644 6.52646C17.2695 5.41579 16.4939 4.65316 15.3866 4.67364C14.4222 4.69411 13.6567 5.50792 13.6618 6.50087H13.6669Z" fill="url(#paint2_linear_7091_664)"/>
<path d="M11.3186 14.3823C11.2778 16.8698 9.22137 18.8762 6.78221 18.8148C4.31754 18.7533 2.34784 16.6702 2.38356 14.1622C2.41418 11.7464 4.50634 9.77073 6.99143 9.80144C9.36935 9.83215 11.3595 11.9409 11.3186 14.3772V14.3823ZM5.03704 14.326C5.04725 15.3241 5.85349 16.1277 6.86386 16.1379C7.87422 16.1533 8.62944 15.3906 8.62433 14.3721C8.62433 13.3382 7.76196 12.4886 6.7669 12.5193C5.75144 12.55 5.02683 13.3075 5.03704 14.326Z" fill="url(#paint3_linear_7091_664)"/>
<path d="M76.3167 32.1841C76.5923 31.2167 76.8372 30.3364 77.1026 29.3997C78.5518 29.7938 79.9295 30.1675 81.4094 30.5718C81.1593 31.4675 80.9195 32.3274 80.6491 33.305C79.2101 32.9314 77.7966 32.568 76.3167 32.1892V32.1841Z" fill="white"/>
<path d="M13.6725 6.50005C13.6674 5.5071 14.4328 4.69329 15.3973 4.67282C16.5046 4.65234 17.2802 5.41497 17.2751 6.52564C17.2751 7.50836 16.4995 8.26586 15.4942 8.28634C14.4839 8.30169 13.6827 7.51347 13.6776 6.50005H13.6725Z" fill="white"/>
<path d="M5.04003 14.326C5.02983 13.3075 5.75443 12.55 6.7699 12.5193C7.77005 12.4885 8.62733 13.3433 8.62733 14.3721C8.62733 15.3906 7.87211 16.1533 6.86685 16.1379C5.85649 16.1225 5.04514 15.319 5.04003 14.326Z" fill="white"/>
<path d="M38.4378 23.8045C38.4378 21.2556 40.3973 19.2544 42.9028 19.239C45.3777 19.2236 47.4137 21.2658 47.429 23.7687C47.4393 26.2306 45.3777 28.2728 42.8824 28.2728C40.479 28.2728 38.4429 26.2204 38.4429 23.8096L38.4378 23.8045ZM42.9539 21.9926C41.9333 21.9568 41.1372 22.6683 41.0913 23.6459C41.0403 24.7156 41.7853 25.5652 42.8008 25.601C43.8877 25.642 44.7041 24.9101 44.7398 23.8762C44.7756 22.8269 44.0203 22.0285 42.959 21.9875L42.9539 21.9926Z" fill="url(#paint4_linear_7091_664)"/>
<path d="M82.6529 51.5676C81.8517 51.5676 81.2088 50.8817 81.2139 50.0372C81.219 49.2337 81.9129 48.5325 82.7141 48.5273C83.4999 48.5171 84.2449 49.2746 84.25 50.0884C84.25 50.8715 83.505 51.5676 82.6529 51.5676Z" fill="url(#paint5_linear_7091_664)"/>
<defs>
<linearGradient id="paint0_linear_7091_664" x1="32.4688" y1="98.6094" x2="32.4688" y2="0.390622" gradientUnits="userSpaceOnUse">
<stop stop-color="#0B9798"/>
<stop offset="1" stop-color="#0AECEE"/>
</linearGradient>
<linearGradient id="paint1_linear_7091_664" x1="32.4688" y1="98.6094" x2="32.4688" y2="0.390622" gradientUnits="userSpaceOnUse">
<stop stop-color="#0B9798"/>
<stop offset="1" stop-color="#0AECEE"/>
</linearGradient>
<linearGradient id="paint2_linear_7091_664" x1="32.4688" y1="98.6094" x2="32.4688" y2="0.390622" gradientUnits="userSpaceOnUse">
<stop stop-color="#0B9798"/>
<stop offset="1" stop-color="#0AECEE"/>
</linearGradient>
<linearGradient id="paint3_linear_7091_664" x1="32.4688" y1="98.6094" x2="32.4688" y2="0.390622" gradientUnits="userSpaceOnUse">
<stop stop-color="#0B9798"/>
<stop offset="1" stop-color="#0AECEE"/>
</linearGradient>
<linearGradient id="paint4_linear_7091_664" x1="32.4688" y1="98.6094" x2="32.4688" y2="0.390622" gradientUnits="userSpaceOnUse">
<stop stop-color="#0B9798"/>
<stop offset="1" stop-color="#0AECEE"/>
</linearGradient>
<linearGradient id="paint5_linear_7091_664" x1="32.4688" y1="98.6094" x2="32.4688" y2="0.390622" gradientUnits="userSpaceOnUse">
<stop stop-color="#0B9798"/>
<stop offset="1" stop-color="#0AECEE"/>
</linearGradient>
</defs>
</svg>
