<svg width="98" height="92" viewBox="0 0 98 92" fill="none" xmlns="http://www.w3.org/2000/svg">
<path d="M97.1548 46.0191C96.9599 46.4819 96.8029 46.9679 96.5624 47.4076C95.5802 49.1997 94.0867 50.2025 92.0489 50.2565C90.6313 50.2951 89.2137 50.2642 87.6341 50.2642C87.6341 51.0768 87.6341 51.8276 87.6341 52.5809C87.629 56.4276 85.5557 58.554 81.7966 58.5566C76.3945 58.5591 70.9949 58.5566 65.5928 58.5566H64.4739V62.7632C64.7954 62.7632 65.1574 62.7503 65.5169 62.7632C67.4053 62.848 69.3419 62.6963 71.1696 63.082C75.8122 64.0642 79.0044 68.0908 79.2879 72.9608C79.3107 73.3439 79.336 73.7322 79.3056 74.1153C79.174 75.8663 79.4778 77.2779 80.7789 78.7461C83.5964 81.9268 82.9661 86.9407 79.7613 89.6817C76.4578 92.5075 71.6354 92.1527 68.7748 88.8769C65.9877 85.6834 66.1852 80.7954 69.2609 77.8513C69.7216 77.4116 69.9266 76.9977 69.8988 76.3703C69.8558 75.3778 69.8634 74.3801 69.8937 73.3876C69.9191 72.5931 69.5444 72.2768 68.8103 72.2897C68.59 72.2948 68.3673 72.2897 68.147 72.2897C55.1355 72.2897 42.1213 72.2897 29.1097 72.2897C27.3909 72.2897 27.3757 72.3051 27.3757 74.069C27.3757 74.2927 27.3934 74.519 27.3732 74.7427C27.2415 76.2469 27.5706 77.4296 28.6667 78.6767C31.469 81.8676 30.9248 86.843 27.7453 89.6329C24.5456 92.4407 19.7611 92.1964 16.8829 89.0775C13.9717 85.9225 13.9844 81.0911 17.0145 78.0622C17.7411 77.3345 18.0145 76.648 17.9714 75.6503C17.8727 73.3028 17.9157 70.9603 19.022 68.7953C20.9636 64.995 24.0418 62.9714 28.2491 62.7811C29.7527 62.7143 31.264 62.7709 32.8208 62.7709V58.5591C31.2665 58.5591 29.7629 58.5617 28.2566 58.5591C26.9833 58.5566 26.3024 58.05 26.3074 57.1218C26.31 56.1936 27.0061 55.6742 28.2668 55.6742C46.0172 55.6742 63.7677 55.6742 81.5181 55.6742C84.0445 55.6742 84.7862 54.9208 84.7862 52.3598C84.7862 51.7196 84.7862 51.0819 84.7862 50.3259C84.4039 50.3079 84.0749 50.2771 83.7432 50.2771C80.5536 50.2745 77.364 50.2771 74.1719 50.2745C72.8935 50.2745 72.2581 49.7731 72.2783 48.8038C72.2961 47.8755 72.9264 47.3921 74.1465 47.3896C79.8625 47.387 85.5811 47.3896 91.297 47.3896C93.4943 47.3896 94.3044 46.5539 94.3069 44.304C94.3069 41.8665 94.3069 39.4315 94.3069 36.868C93.9095 36.868 93.5703 36.868 93.2336 36.868C90.2338 36.868 87.2316 36.8782 84.2318 36.8628C82.1585 36.8525 81.2194 35.8934 81.2169 33.8056C81.2118 28.897 81.2169 23.9859 81.2169 19.0774C81.2169 16.4624 79.9587 15.1742 77.3792 15.1742C68.347 15.1691 59.3123 15.1691 50.2802 15.1742C47.7462 15.1742 46.5108 16.4444 46.5083 19.0208C46.5032 23.8651 46.5083 28.7119 46.5083 33.5562C46.5083 35.9526 45.6097 36.8654 43.2377 36.8654C30.2565 36.868 17.2753 36.8654 4.29406 36.8654H2.96252C2.96252 38.2873 2.96252 39.6218 2.96252 40.9588C2.96252 42.2419 2.94733 43.525 2.96759 44.808C2.99037 46.4125 3.93206 47.3613 5.52434 47.3819C6.97738 47.3998 8.43043 47.387 9.88347 47.387C28.7072 47.387 47.531 47.387 66.3573 47.387C67.8661 47.387 68.5673 47.8678 68.5394 48.8809C68.5116 49.8503 67.8509 50.2745 66.3674 50.2745C48.8701 50.2745 31.3728 50.2745 13.873 50.2745C13.4629 50.2745 13.0554 50.2745 12.4428 50.2745C12.5086 51.5602 12.4681 52.8046 12.663 54.0131C12.8301 55.0468 13.7844 55.6536 14.9362 55.6665C17.0829 55.6896 19.2321 55.6665 21.3787 55.6819C22.4723 55.6896 23.0976 56.2707 23.0621 57.1886C23.0343 57.9703 22.49 58.5411 21.6395 58.5488C19.2068 58.5694 16.7715 58.626 14.3439 58.518C11.7491 58.4023 9.74425 56.083 9.64805 53.2649C9.61514 52.3084 9.64299 51.3519 9.64299 50.2745C8.27095 50.2745 6.98498 50.2797 5.70154 50.2745C2.29422 50.254 0.12225 48.0658 0.119719 44.628C0.117188 31.3423 0.117188 18.0592 0.117188 4.77601C0.119719 2.07618 1.70187 0.45114 4.34469 0.425428C5.70154 0.412571 7.06092 0.402286 8.41777 0.427999C10.8606 0.474282 12.4428 2.08132 12.4757 4.54459C12.4934 5.95622 12.4909 7.36784 12.4757 8.77946C12.463 9.81825 11.9795 10.3865 11.1365 10.4199C10.2556 10.4534 9.67083 9.85939 9.64805 8.81289C9.61767 7.43469 9.65058 6.05392 9.63286 4.67316C9.6202 3.69093 9.28099 3.33353 8.32411 3.31553C6.96726 3.29239 5.60788 3.30524 4.25103 3.31296C3.41818 3.3181 2.95746 3.71407 2.95746 4.60373C2.96252 14.2614 2.96252 23.9216 2.96759 33.5793C2.96759 33.6693 3.00556 33.7619 3.041 33.911H9.64046C9.64046 32.1523 9.64046 30.4295 9.64046 28.7068C9.64046 28.3211 9.61767 27.9328 9.65818 27.5523C9.75437 26.6472 10.3442 26.1201 11.1644 26.1664C11.9441 26.2101 12.4529 26.7397 12.4681 27.6397C12.4959 29.3727 12.4807 31.1057 12.4807 32.8388C12.4807 33.1833 12.4807 33.5253 12.4807 33.9084H22.5508C22.1989 33.5176 21.9584 33.2373 21.7053 32.9725C18.2524 29.3573 14.7691 25.7704 11.3492 22.1243C8.27348 18.846 9.60248 13.5492 13.8047 12.2558C16.1766 11.5256 18.2271 12.1838 19.9358 13.9708C22.8622 17.0332 25.7961 20.0879 28.6895 23.1811C29.7831 24.3485 31.0311 24.9167 32.6335 24.8936C36.2611 24.8422 39.8911 24.8781 43.6048 24.8781C43.6275 24.5413 43.663 24.2636 43.6655 23.9885C43.6706 22.384 43.7541 20.7744 43.6503 19.1777C43.3972 15.2488 46.3666 12.1812 50.4928 12.243C59.3984 12.3715 68.3065 12.2815 77.2121 12.2841C77.4653 12.2841 77.7184 12.2841 77.969 12.2944C81.4523 12.4178 84.0065 15.0482 84.0546 18.5991C84.0824 20.6484 84.0597 22.6951 84.0597 24.8807H85.7912C87.4341 24.8807 89.077 24.8807 90.7173 24.8807C94.4867 24.8807 95.765 25.7524 97.1523 29.2724V46.0242L97.1548 46.0191ZM76.4729 75.7197C76.4729 75.1181 76.4729 74.5164 76.4729 73.9147C76.4578 68.9367 73.2327 65.6533 68.342 65.6507C55.2038 65.6455 42.0656 65.6507 28.93 65.6507C28.3959 65.6507 27.8516 65.6507 27.3251 65.7381C22.7381 66.5249 20.0016 70.7958 20.9104 75.7146H24.5456C24.5456 74.8121 24.5304 73.8839 24.5481 72.9582C24.5734 71.6726 25.105 70.5798 26.2188 70.027C27.0314 69.6233 28.0212 69.4227 28.9325 69.4202C40.0177 69.3816 51.1029 69.3944 62.188 69.3944C64.398 69.3944 66.6105 69.3687 68.8204 69.4022C71.3392 69.4407 72.7214 70.8909 72.7365 73.4416C72.7416 74.2207 72.7365 74.9998 72.7365 75.712H76.4755L76.4729 75.7197ZM43.6174 27.7631C39.9721 27.7631 36.4383 27.6988 32.9094 27.7837C30.297 27.848 28.2237 26.912 26.4492 24.9836C23.6469 21.9418 20.7509 18.9874 17.9031 15.9893C17.1057 15.1511 16.1792 14.6934 15.0198 14.9119C13.8756 15.1279 13.0579 15.8016 12.6858 16.9252C12.2807 18.1517 12.5491 19.2599 13.4477 20.1984C17.6702 24.6107 21.8825 29.0333 26.1302 33.4225C26.4365 33.7387 26.996 33.947 27.4415 33.9496C32.5221 33.9856 37.6027 33.9727 42.6808 33.9701C42.982 33.9701 43.2833 33.929 43.6149 33.9033V27.7605L43.6174 27.7631ZM69.6659 83.5595C69.6482 86.4111 71.9138 88.7381 74.6933 88.7226C77.4222 88.7072 79.698 86.3879 79.7005 83.6135C79.7031 80.8211 77.4627 78.5404 74.7009 78.5276C71.9214 78.5173 69.6811 80.7517 69.6659 83.557V83.5595ZM27.6086 83.6212C27.6086 80.8006 25.4037 78.5456 22.6318 78.5327C19.827 78.5199 17.5487 80.8237 17.574 83.6521C17.5968 86.4265 19.8953 88.7381 22.6141 88.7252C25.3607 88.7123 27.6061 86.4162 27.6086 83.6238V83.6212ZM94.312 33.9316C94.312 32.7771 94.3196 31.6637 94.312 30.5504C94.2993 28.7248 93.3804 27.7837 91.5603 27.7682C89.5428 27.7502 87.5227 27.7631 85.5051 27.7631C85.0444 27.7631 84.5837 27.7631 84.1331 27.7631V33.929H94.3145L94.312 33.9316ZM54.1659 62.7194V58.6157H43.1035V62.7194H54.1659ZM40.1215 58.6363H35.7877V62.7143H40.1215V58.6363ZM61.4894 62.7143V58.6183H57.1555V62.7143H61.4894Z" fill="url(#paint0_linear_7091_660)"/>
<path d="M61.9979 27.9482C61.9979 29.8715 62.008 31.7974 61.9979 33.7207C61.9852 35.9114 61.0841 36.8422 58.9551 36.8576C57.0616 36.8705 55.1656 36.8705 53.272 36.8576C51.1532 36.8448 50.1938 35.878 50.1887 33.749C50.1812 29.8355 50.1812 25.9246 50.1887 22.0112C50.1938 19.9336 51.176 18.9205 53.1961 18.9076C55.1529 18.8974 57.1097 18.8922 59.069 18.9076C60.9853 18.9231 61.9726 19.9181 61.9954 21.8826C62.0182 23.9036 62.0004 25.9246 62.0004 27.9431L61.9979 27.9482ZM59.0918 33.9135V27.8196H53.0872V33.9135H59.0918ZM59.1019 21.8723H53.0872V24.819H59.1019V21.8723Z" fill="url(#paint1_linear_7091_660)"/>
<path d="M77.4864 27.9072C77.4864 29.9282 77.4991 31.9492 77.4814 33.9677C77.4662 35.8395 76.5245 36.8218 74.6841 36.85C72.6337 36.8809 70.5807 36.8809 68.5277 36.85C66.6671 36.8218 65.7051 35.7984 65.7001 33.8854C65.6925 29.8768 65.6899 25.8682 65.7001 21.857C65.7051 19.9697 66.7126 18.9283 68.5606 18.9078C70.5807 18.8872 72.6008 18.8872 74.6208 18.9078C76.4865 18.9258 77.4636 19.9337 77.4788 21.8416C77.494 23.8626 77.4814 25.8836 77.4814 27.902L77.4864 27.9072ZM74.5854 33.9239V27.8223H68.596V33.9239H74.5854ZM74.5803 24.832V21.8596H68.6188V24.832H74.5803Z" fill="url(#paint2_linear_7091_660)"/>
<path d="M21.6047 43.7334C20.4352 43.7334 19.2682 43.7462 18.0987 43.7308C17.1241 43.718 16.5191 43.178 16.4963 42.3423C16.476 41.5195 17.0887 40.8716 18.0278 40.8613C20.458 40.833 22.8907 40.8304 25.3209 40.8613C26.2575 40.8741 26.8625 41.5375 26.8271 42.3655C26.7942 43.16 26.1993 43.7128 25.2956 43.7257C24.0653 43.7462 22.8325 43.7308 21.6022 43.7308L21.6047 43.7334Z" fill="url(#paint3_linear_7091_660)"/>
<path d="M32.627 43.728C32.2802 43.728 31.9333 43.746 31.5891 43.7254C30.7841 43.6791 30.293 43.2497 30.2221 42.4269C30.1512 41.599 30.5765 41.0204 31.3536 40.9176C32.1865 40.807 33.0573 40.807 33.8901 40.9176C34.6673 41.0204 35.0951 41.5964 35.0268 42.4243C34.9584 43.2497 34.4673 43.6791 33.6649 43.7254C33.3206 43.746 32.9738 43.728 32.627 43.728Z" fill="url(#paint4_linear_7091_660)"/>
<path d="M76.1593 83.606C76.1593 84.4699 75.5188 85.1256 74.6708 85.123C73.8329 85.123 73.162 84.4468 73.162 83.606C73.162 82.7832 73.8633 82.0658 74.6708 82.0658C75.4935 82.0658 76.1567 82.7523 76.1593 83.606Z" fill="url(#paint5_linear_7091_660)"/>
<path d="M24.11 83.606C24.11 84.4442 23.4366 85.123 22.6012 85.123C21.7507 85.123 21.1128 84.4725 21.1128 83.606C21.1128 82.7523 21.776 82.0658 22.5987 82.0658C23.4037 82.0658 24.1075 82.7832 24.1075 83.606H24.11Z" fill="url(#paint6_linear_7091_660)"/>
<defs>
<linearGradient id="paint0_linear_7091_660" x1="31.6958" y1="91.588" x2="31.6958" y2="0.412106" gradientUnits="userSpaceOnUse">
<stop stop-color="#0B9798"/>
<stop offset="1" stop-color="#0AECEE"/>
</linearGradient>
<linearGradient id="paint1_linear_7091_660" x1="31.6958" y1="91.588" x2="31.6958" y2="0.412106" gradientUnits="userSpaceOnUse">
<stop stop-color="#0B9798"/>
<stop offset="1" stop-color="#0AECEE"/>
</linearGradient>
<linearGradient id="paint2_linear_7091_660" x1="31.6958" y1="91.588" x2="31.6958" y2="0.412106" gradientUnits="userSpaceOnUse">
<stop stop-color="#0B9798"/>
<stop offset="1" stop-color="#0AECEE"/>
</linearGradient>
<linearGradient id="paint3_linear_7091_660" x1="31.6958" y1="91.588" x2="31.6958" y2="0.412106" gradientUnits="userSpaceOnUse">
<stop stop-color="#0B9798"/>
<stop offset="1" stop-color="#0AECEE"/>
</linearGradient>
<linearGradient id="paint4_linear_7091_660" x1="31.6958" y1="91.588" x2="31.6958" y2="0.412106" gradientUnits="userSpaceOnUse">
<stop stop-color="#0B9798"/>
<stop offset="1" stop-color="#0AECEE"/>
</linearGradient>
<linearGradient id="paint5_linear_7091_660" x1="31.6958" y1="91.588" x2="31.6958" y2="0.412106" gradientUnits="userSpaceOnUse">
<stop stop-color="#0B9798"/>
<stop offset="1" stop-color="#0AECEE"/>
</linearGradient>
<linearGradient id="paint6_linear_7091_660" x1="31.6958" y1="91.588" x2="31.6958" y2="0.412106" gradientUnits="userSpaceOnUse">
<stop stop-color="#0B9798"/>
<stop offset="1" stop-color="#0AECEE"/>
</linearGradient>
</defs>
</svg>
