<svg width="94" height="75" viewBox="0 0 94 75" fill="none" xmlns="http://www.w3.org/2000/svg">
<path d="M93.7166 72.4955C92.9989 74.3821 91.6132 75.0041 89.6541 75C61.2208 74.9668 32.7875 74.9792 4.35413 74.9751C1.51245 74.9751 0.394749 73.8472 0.394749 70.9779C0.390625 55.1299 0.390625 39.2777 0.390625 23.4297C0.390625 21.145 1.4877 20.2037 3.72723 20.5645C8.04543 21.2528 10.8912 24.5659 10.9531 28.9861C10.9572 29.2888 10.9531 29.5873 10.9531 29.9522H16.0797C16.0797 29.5749 16.0797 29.2183 16.0797 28.8617C16.0797 22.2024 16.0714 15.5472 16.0921 8.8879C16.0921 8.27422 16.0013 7.92591 15.3249 7.69785C14.4547 7.40345 14.0175 6.63634 13.9928 5.69508C13.968 4.65845 13.9598 3.61768 13.9804 2.58105C14.0134 0.876829 14.8176 0.0433791 16.5127 0.0226466C19.2142 -0.0105256 21.9198 0.0143535 24.6253 0.010207C26.6298 0.010207 28.6342 -0.00223255 30.6387 0.0143535C32.4658 0.0309396 33.303 0.880976 33.3277 2.71374C33.3401 3.63012 33.3442 4.5465 33.3236 5.46288C33.2989 6.61146 32.8081 7.43247 31.6862 7.84713C31.4759 7.92176 31.2202 8.24519 31.2202 8.45666C31.2037 15.5721 31.2202 22.6875 31.2243 29.8029C31.2243 29.8278 31.2491 29.8568 31.2986 29.9481H39.2338C39.2503 29.6329 39.2792 29.3095 39.2792 28.9902C39.2792 22.3019 39.2792 15.6136 39.2874 8.92522C39.2874 8.33641 39.2586 7.93835 38.5492 7.70614C37.6831 7.42418 37.2129 6.67781 37.2005 5.72411C37.184 4.65431 37.1758 3.58451 37.1923 2.51885C37.2129 0.910001 38.0584 0.0392326 39.6875 0.0226466C42.1786 -0.00223255 44.6697 0.0143535 47.1608 0.0143535C49.3797 0.0143535 51.5945 0.00191397 53.8134 0.0143535C55.6941 0.0267931 56.5231 0.880976 56.5273 2.77593C56.5273 3.66329 56.5273 4.5465 56.5273 5.43385C56.5273 6.59488 56.0241 7.3993 54.927 7.84713C54.696 7.9425 54.4115 8.28666 54.4115 8.51471C54.3867 15.5389 54.3908 22.5631 54.395 29.5873C54.395 29.7034 54.4362 29.8154 54.4692 29.9688H62.3344V7.97567C60.565 7.59004 60.1649 6.29633 60.2639 4.66675C60.3052 3.99916 60.2598 3.32327 60.2722 2.65154C60.3093 0.847803 61.1177 0.0226466 62.92 0.010207C65.9267 -0.0105256 68.9333 0.00606049 71.9441 0.010207C73.6433 0.010207 75.3467 -0.00637907 77.0459 0.0185C78.7493 0.0433791 79.603 0.922441 79.6319 2.6391C79.6443 3.37303 79.6319 4.10697 79.6319 4.83675C79.6319 6.79806 79.3226 7.27076 77.4955 8.04616C77.4955 8.68472 77.5079 9.35231 77.4955 10.0199C77.4707 10.9736 76.9676 11.5251 76.1509 11.5334C75.3384 11.5417 74.8023 10.9777 74.7734 10.0489C74.7528 9.38548 74.7734 8.71789 74.7734 8.00884H65.1843V13.4615C65.939 13.4615 66.7144 13.4491 67.4898 13.4615C68.4425 13.4822 68.9911 13.984 68.9993 14.8008C69.0076 15.6011 68.4343 16.1609 67.5187 16.1941C66.7639 16.2231 66.005 16.1982 65.1843 16.1982V19.2749H74.7693C74.7693 18.4995 74.7652 17.749 74.7693 16.9943C74.7775 15.8499 75.2848 15.2238 76.1674 15.2404C77.0129 15.257 77.4996 15.8706 77.4996 16.9612C77.5037 20.8713 77.4996 24.7815 77.4996 28.6875C77.4996 29.0814 77.4996 29.4754 77.4996 29.9398H83.0799C83.1541 29.0939 83.1789 28.2438 83.3108 27.4145C83.9212 23.5749 87.1754 20.6806 91.0358 20.4774C92.3184 20.4111 93.1433 21.0289 93.7207 22.0987V72.4955H93.7166ZM10.9531 65.5957C11.4893 65.5957 11.91 65.5957 12.3306 65.5957C26.5184 65.5957 40.7021 65.5957 54.8899 65.5957C55.2817 65.5957 55.6859 65.5874 56.0695 65.662C56.7953 65.8072 57.1707 66.3047 57.1377 67.0387C57.1047 67.7684 56.7046 68.2329 55.954 68.3075C55.591 68.3448 55.2281 68.3365 54.861 68.3365C40.6155 68.3365 26.3658 68.3365 12.1203 68.3365C11.7656 68.3365 11.4068 68.3365 11.0108 68.3365V72.1638H83.084V68.3365C82.6798 68.3365 82.3499 68.3365 82.0199 68.3365C75.6725 68.3365 69.321 68.3365 62.9736 68.3365C62.6396 68.3365 62.3014 68.3407 61.9714 68.2992C61.262 68.208 60.9032 67.7477 60.8496 67.0635C60.8001 66.3752 61.1135 65.8611 61.7982 65.6952C62.2312 65.5915 62.7014 65.5915 63.151 65.5915C69.4076 65.5874 75.6643 65.5915 81.925 65.5915C82.3086 65.5915 82.6922 65.5915 83.0922 65.5915V48.2674H77.4955C77.4955 48.6074 77.4955 48.9059 77.4955 49.2003C77.4955 51.5514 77.5161 53.9025 77.4872 56.2536C77.4419 60.1057 74.3857 63.4312 70.6779 63.7007C66.6072 63.991 63.1633 61.3828 62.5447 57.4478C62.3632 56.2826 62.4003 55.076 62.3838 53.8901C62.3591 52.0366 62.3756 50.1789 62.3756 48.2757H54.3826C54.3826 48.6571 54.3826 48.9847 54.3826 49.3123C54.3785 51.6924 54.3991 54.0766 54.362 56.4567C54.3331 58.4803 53.5412 60.2176 52.0853 61.586C49.7344 63.8002 46.9629 64.3642 43.9975 63.1409C40.9083 61.8721 39.3782 59.3925 39.2957 56.0545C39.2379 53.7947 39.2833 51.5348 39.2833 49.275C39.2833 48.9516 39.2833 48.6281 39.2833 48.2757H31.1996C31.1996 48.6323 31.1996 48.9308 31.1996 49.2294C31.1996 51.6426 31.2408 54.0559 31.1831 56.465C31.0923 60.2094 27.9908 63.4478 24.3449 63.6924C20.3236 63.962 16.7313 61.3455 16.2818 57.4934C15.9724 54.8396 16.1333 52.1319 16.0838 49.4491C16.0756 49.0635 16.0838 48.6779 16.0838 48.2964H10.9572C10.9572 50.0504 10.9737 51.7297 10.9531 53.4049C10.9407 54.4996 10.2148 55.1465 9.27861 54.9225C8.45787 54.7235 8.21866 54.1223 8.21866 53.3344C8.2269 49.3952 8.21866 45.456 8.21866 41.5168C8.21866 37.304 8.23515 33.087 8.21041 28.8741C8.19391 25.8554 5.84303 23.3053 3.11683 23.3675C3.11683 23.6371 3.11683 23.9066 3.11683 24.1803C3.11683 39.8168 3.11683 55.4533 3.11683 71.0898C3.11683 71.2723 3.05496 71.4962 3.13745 71.6289C3.27355 71.8528 3.49627 72.1803 3.69011 72.1845C5.17076 72.2301 6.6514 72.2094 8.21453 72.2094C8.21453 71.7864 8.21453 71.4589 8.21453 71.1313C8.21453 67.557 8.21453 63.9868 8.21453 60.4125C8.21453 59.293 8.66821 58.7166 9.5302 58.6917C10.4334 58.6668 10.9366 59.2681 10.9407 60.4208C10.949 62.096 10.9407 63.7712 10.9407 65.5915L10.9531 65.5957ZM90.9821 23.2971C87.926 23.6246 85.8886 25.9259 85.8886 28.9778C85.8803 43.1381 85.8886 57.2985 85.8886 71.463C85.8886 71.6952 85.9298 71.9274 85.9545 72.2384C87.2496 72.2384 88.491 72.2425 89.7283 72.2384C90.9821 72.2301 90.9821 72.226 90.9821 70.9613C90.9821 55.4284 90.9821 39.8914 90.9821 24.3586C90.9821 24.0268 90.9821 23.6951 90.9821 23.3053V23.2971ZM18.8636 13.4532C19.6596 13.4532 20.4103 13.4408 21.1609 13.4532C22.126 13.4698 22.6622 13.9467 22.6869 14.776C22.7158 15.6136 22.1301 16.1609 21.1403 16.1899C20.3938 16.2107 19.6431 16.1941 18.8884 16.1941V19.3247C19.6637 19.3247 20.3566 19.3205 21.0537 19.3247C22.0971 19.3371 22.6539 19.7849 22.6869 20.635C22.7199 21.4975 22.1136 22.0448 21.0619 22.0697C20.3443 22.0863 19.6225 22.0697 18.8884 22.0697V25.1257H28.395V8.01713H18.8636V13.4532ZM11.0026 34.53H83.1005V32.8175H11.0026V34.53ZM83.117 43.7145H10.9943V45.4395H83.1129V43.7145H83.117ZM18.8306 48.2757C18.8306 51.1119 18.7358 53.8279 18.8595 56.5355C18.9791 59.181 21.2599 61.076 23.9242 60.9723C26.4359 60.8728 28.4198 58.7788 28.461 56.1623C28.4816 54.8811 28.4651 53.5998 28.4651 52.3185C28.4651 50.9833 28.4651 49.6482 28.4651 48.2757H18.8306ZM65.1183 48.2632C65.1183 50.9253 65.1059 53.4837 65.1183 56.0421C65.1389 58.8866 67.2465 61.0013 69.9974 60.9806C72.6906 60.9599 74.7445 58.8286 74.7569 56.0172C74.7693 53.6993 74.761 51.3773 74.7569 49.0594C74.7569 48.7981 74.7239 48.5369 74.7033 48.2674H65.1142L65.1183 48.2632ZM42.0714 13.4615C42.8756 13.4615 43.5726 13.4532 44.2697 13.4615C45.276 13.4739 45.8988 13.9715 45.9235 14.7677C45.9483 15.6136 45.3131 16.1775 44.2779 16.2024C43.5603 16.2189 42.8385 16.2024 42.0961 16.2024V19.2583H51.6028V8.00884H42.0714V13.4615ZM46.0225 48.2674C45.8699 49.586 45.4492 50.1209 44.6161 50.1333C43.7747 50.1458 43.3376 49.5943 43.1602 48.2881H42.0673C42.0673 51.116 41.9394 53.8901 42.1044 56.6516C42.2652 59.3178 44.4965 61.1009 47.1485 60.9765C49.6684 60.8604 51.6151 58.7954 51.644 56.1416C51.6729 53.7325 51.6523 51.3192 51.6481 48.9101C51.6481 48.7069 51.5986 48.5037 51.5657 48.2674H46.0184H46.0225ZM74.7074 29.9771V22.1609H65.176V25.2003C65.9555 25.2003 66.6773 25.192 67.3991 25.2003C68.4054 25.2169 68.9869 25.7186 68.9952 26.5479C69.0034 27.3814 68.4137 27.9163 67.4279 27.9411C66.6814 27.9577 65.9349 27.9411 65.1719 27.9411V29.9729H74.7074V29.9771ZM51.6193 22.1609H42.0879V25.1049C42.2116 25.1505 42.2694 25.1879 42.3271 25.1879C42.9622 25.1962 43.6015 25.192 44.2367 25.2003C45.2925 25.2169 45.9359 25.7393 45.9277 26.5687C45.9194 27.4187 45.3008 27.9287 44.2284 27.9453C43.5149 27.9577 42.8014 27.9453 42.092 27.9453V29.9605H51.6193V22.1609ZM76.8562 2.82984H63.085V5.13116H76.8562V2.82984ZM53.7598 2.82155H39.9803V5.14774H53.7598V2.82155ZM30.5438 5.18921V2.8174H16.7932V5.18921H30.5438ZM18.8636 40.8327H28.3991V37.3952H18.8636V40.8327ZM65.1595 37.3828V40.8285H74.695V37.3828H65.1595ZM42.059 40.8285H51.578V37.4242H42.059V40.8285ZM39.1967 40.8534V37.4076H31.2449V40.8534H39.1967ZM62.3426 37.4076H54.4362V40.8285H62.3426V37.4076ZM77.5244 40.841H83.0964V37.4076H77.5244V40.841ZM18.8801 27.9868V29.9564H28.4033V27.9868H18.8801ZM16.0137 40.8575V37.4118H11.0067V40.8575H16.0137Z" fill="url(#paint0_linear_7091_659)"/>
<path d="M90.9821 23.2971C90.9821 23.6868 90.9823 24.018 90.9823 24.3498C90.9823 39.8826 90.9823 55.4196 90.9823 70.9525C90.9823 72.2172 90.9823 72.2255 89.7285 72.2296C88.4912 72.2379 87.2498 72.2296 85.9547 72.2296C85.9259 71.9186 85.8888 71.6864 85.8888 71.4542C85.8888 57.2938 85.8805 43.1335 85.8888 28.969C85.8888 25.9171 87.9262 23.6158 90.9823 23.2883L90.9821 23.2971Z" fill="white"/>
<path d="M11.0026 34.53V32.8175H83.1005V34.53H11.0026Z" fill="white"/>
<path d="M83.1129 43.7145V45.4395H10.9943V43.7145H83.1129Z" fill="white"/>
<path d="M51.6142 22.1525V29.9521H42.0869V27.9369C42.7963 27.9369 43.5098 27.9452 44.2233 27.9369C45.2915 27.9203 45.9143 27.4103 45.9226 26.5602C45.9308 25.7309 45.2874 25.2085 44.2316 25.1919C43.5964 25.1836 42.9572 25.1836 42.322 25.1795C42.2643 25.1795 42.2106 25.1421 42.0828 25.0965V22.1525H51.6142Z" fill="white"/>
<path d="M76.8562 2.82984V5.13116H63.085V2.82984H76.8562Z" fill="white"/>
<path d="M53.7598 2.82155V5.14774H39.9803V2.82155H53.7598Z" fill="white"/>
<path d="M30.544 5.18456H16.7934V2.81275H30.544V5.18456Z" fill="white"/>
<path d="M18.8671 40.8326V37.3951H28.4026V40.8326H18.8671Z" fill="white"/>
<path d="M65.1591 37.3784H74.6946V40.8242H65.1591V37.3784Z" fill="white"/>
<path d="M42.0592 40.8242V37.4199H51.5782V40.8242H42.0592Z" fill="white"/>
<path d="M39.1966 40.8489H31.2448V37.4032H39.1966V40.8489Z" fill="white"/>
<path d="M62.3476 37.4032V40.824H54.4412V37.4032H62.3476Z" fill="white"/>
<path d="M77.5282 40.8365V37.4032H83.1002V40.8365H77.5282Z" fill="white"/>
<path d="M18.8843 27.9826H28.4074V29.9522H18.8843V27.9826Z" fill="white"/>
<path d="M16.0169 40.8532H11.0099V37.4075H16.0169V40.8532Z" fill="white"/>
<path d="M23.2235 55.5898C23.306 54.8434 24.0402 54.2629 24.7702 54.3707C25.4837 54.4785 25.9951 55.1378 25.925 55.8676C25.8549 56.6305 25.1496 57.1945 24.4031 57.0825C23.6896 56.9788 23.1452 56.2864 23.2235 55.5856V55.5898Z" fill="url(#paint1_linear_7091_659)"/>
<path d="M22.0226 50.5143C22.7444 50.5061 23.3548 51.0949 23.3795 51.8246C23.4043 52.6 22.798 53.2469 22.0432 53.2469C21.3256 53.2469 20.7028 52.6539 20.6739 51.9366C20.6409 51.1944 21.2802 50.5226 22.0267 50.5143H22.0226Z" fill="url(#paint2_linear_7091_659)"/>
<path d="M69.0524 57.829C68.3141 57.829 67.6501 57.1573 67.6707 56.4234C67.6913 55.7102 68.3141 55.0965 69.0276 55.0923C69.7865 55.0882 70.401 55.7226 70.3845 56.4939C70.368 57.2319 69.7741 57.8249 69.0524 57.829Z" fill="url(#paint3_linear_7091_659)"/>
<path d="M71.8071 50.3071C72.5536 50.3237 73.1186 50.8959 73.1227 51.6423C73.131 52.4177 72.5041 53.0521 71.7493 53.0355C71.0523 53.0189 70.4213 52.3762 70.413 51.6755C70.4048 50.9166 71.0358 50.2947 71.8071 50.3071Z" fill="url(#paint4_linear_7091_659)"/>
<path d="M48.7742 54.1345C48.0359 54.1303 47.3967 53.4503 47.4255 52.7039C47.4544 51.9783 48.0648 51.4019 48.7948 51.4061C49.529 51.4102 50.1311 51.999 50.1476 52.7205C50.1641 53.4669 49.5125 54.1345 48.7783 54.1303L48.7742 54.1345Z" fill="url(#paint5_linear_7091_659)"/>
<path d="M45.3008 57.9782C44.5502 57.9658 43.9274 57.2941 43.9604 56.5394C43.9934 55.8096 44.5997 55.2457 45.338 55.254C46.1092 55.2623 46.7155 55.9008 46.6743 56.6679C46.6371 57.3894 46.0061 57.9907 45.2967 57.9782H45.3008Z" fill="url(#paint6_linear_7091_659)"/>
<defs>
<linearGradient id="paint0_linear_7091_659" x1="30.7627" y1="75" x2="30.7627" y2="-2.54738e-06" gradientUnits="userSpaceOnUse">
<stop stop-color="#0B9798"/>
<stop offset="1" stop-color="#0AECEE"/>
</linearGradient>
<linearGradient id="paint1_linear_7091_659" x1="30.7627" y1="75" x2="30.7627" y2="-2.54738e-06" gradientUnits="userSpaceOnUse">
<stop stop-color="#0B9798"/>
<stop offset="1" stop-color="#0AECEE"/>
</linearGradient>
<linearGradient id="paint2_linear_7091_659" x1="30.7627" y1="75" x2="30.7627" y2="-2.54738e-06" gradientUnits="userSpaceOnUse">
<stop stop-color="#0B9798"/>
<stop offset="1" stop-color="#0AECEE"/>
</linearGradient>
<linearGradient id="paint3_linear_7091_659" x1="30.7627" y1="75" x2="30.7627" y2="-2.54738e-06" gradientUnits="userSpaceOnUse">
<stop stop-color="#0B9798"/>
<stop offset="1" stop-color="#0AECEE"/>
</linearGradient>
<linearGradient id="paint4_linear_7091_659" x1="30.7627" y1="75" x2="30.7627" y2="-2.54738e-06" gradientUnits="userSpaceOnUse">
<stop stop-color="#0B9798"/>
<stop offset="1" stop-color="#0AECEE"/>
</linearGradient>
<linearGradient id="paint5_linear_7091_659" x1="30.7627" y1="75" x2="30.7627" y2="-2.54738e-06" gradientUnits="userSpaceOnUse">
<stop stop-color="#0B9798"/>
<stop offset="1" stop-color="#0AECEE"/>
</linearGradient>
<linearGradient id="paint6_linear_7091_659" x1="30.7627" y1="75" x2="30.7627" y2="-2.54738e-06" gradientUnits="userSpaceOnUse">
<stop stop-color="#0B9798"/>
<stop offset="1" stop-color="#0AECEE"/>
</linearGradient>
</defs>
</svg>
