<svg width="94" height="101" viewBox="0 0 94 101" fill="none" xmlns="http://www.w3.org/2000/svg">
<path d="M93.2334 24.6991L85.4881 16.9429C84.8839 16.3379 83.9022 16.3379 83.2981 16.9429C82.6939 17.5479 82.6939 18.531 83.2981 19.136L83.7512 19.5897L79.104 24.2435H76.6467V16.4872C77.5026 16.4872 78.1958 15.793 78.1958 14.9359V2.52782C78.1958 1.67075 77.5026 0.976562 76.6467 0.976562H67.3523C66.4964 0.976562 65.8032 1.67075 65.8032 2.52782V3.26273L42.085 19.5916H36.3709C35.515 19.5916 34.8218 20.2858 34.8218 21.1429V30.4504H14.6838C13.828 30.4504 13.1348 31.1446 13.1348 32.0017V44.4117C13.1348 45.2688 13.828 45.963 14.6838 45.963H16.2329V66.1293C15.377 66.1293 14.6838 66.8235 14.6838 67.6806V82.0239L4.96341 84.8045C4.29925 84.9945 3.84033 85.6034 3.84033 86.2957V91.217C2.0376 91.8569 0.742188 93.5827 0.742188 95.6032C0.742188 98.1686 2.82763 100.257 5.38941 100.257C7.95118 100.257 10.0366 98.1686 10.0366 95.6032C10.0366 95.0602 9.94174 94.5367 9.76941 94.0519H31.9889C31.8166 94.5367 31.7217 95.0602 31.7217 95.6032C31.7217 98.1686 33.8071 100.257 36.3689 100.257C38.9307 100.257 41.0161 98.1686 41.0161 95.6032C41.0161 93.5807 39.7207 91.8569 37.918 91.217V86.2957C37.918 85.6034 37.4591 84.9945 36.7949 84.8045L27.0745 82.0239V67.6806C27.0745 66.8235 26.3813 66.1293 25.5254 66.1293V45.963H33.2708C33.7587 45.963 34.2176 45.7322 34.51 45.3425L38.6925 39.758H42.5652C43.4211 39.758 44.1143 39.0638 44.1143 38.2067V29.7155L61.1541 17.9841V35.1042C61.1541 35.9613 61.8473 36.6555 62.7031 36.6555H67.3504V38.2067C67.3504 38.6178 67.513 39.0134 67.8035 39.3042L70.9016 42.4067C71.1921 42.6976 71.5871 42.8605 71.9976 42.8605V47.5142C71.9976 48.3713 72.6908 49.0655 73.5467 49.0655H79.7429C80.5988 49.0655 81.292 48.3713 81.292 47.5142V42.8605C81.7025 42.8605 82.0975 42.6976 82.388 42.4067L85.4861 39.3042C85.7766 39.0134 85.9392 38.6178 85.9392 38.2067V31.0923L90.5865 26.4385L91.0396 26.8922C91.3416 27.1947 91.7386 27.346 92.1355 27.346C92.5325 27.346 92.9275 27.1947 93.2315 26.8922C93.8356 26.2872 93.8356 25.3041 93.2315 24.6991H93.2334ZM73.5486 24.2454H70.4505V16.4891H73.5486V24.2454ZM75.0977 13.3866H68.9014V4.07907H75.0977V13.3866ZM37.9199 22.6941H41.0181V30.4504H37.9199V22.6941ZM23.9783 69.2318V81.6419H17.782V69.2318H23.9783ZM6.93848 95.6032C6.93848 96.4583 6.24333 97.1544 5.38941 97.1544C4.53548 97.1544 3.84033 96.4583 3.84033 95.6032C3.84033 94.7481 4.53548 94.0519 5.38941 94.0519C6.24333 94.0519 6.93848 94.7481 6.93848 95.6032ZM36.3709 97.1544C35.5169 97.1544 34.8218 96.4583 34.8218 95.6032C34.8218 94.7481 35.5169 94.0519 36.3709 94.0519C37.2248 94.0519 37.9199 94.7481 37.9199 95.6032C37.9199 96.4583 37.2248 97.1544 36.3709 97.1544ZM34.8218 90.9494H6.93848V87.4649L16.4498 84.7444H25.3105L34.8218 87.4649V90.9494ZM22.4292 66.1293H19.3311V45.963H22.4292V66.1293ZM41.0181 36.6555H37.9199C37.432 36.6555 36.9731 36.8862 36.6807 37.276L32.4982 42.8605H16.2329V33.5529H41.0181V36.6555ZM44.1162 21.9592L65.8032 7.0284V11.019L61.8395 13.7473L44.1182 25.9479V21.9573L44.1162 21.9592ZM64.2542 33.5529V15.8512L65.8032 14.7847V14.9379C65.8032 15.7949 66.4964 16.4891 67.3523 16.4891V33.5529H64.2542ZM78.1958 45.963H75.0977V42.8605H78.1958V45.963ZM80.653 39.758H72.6424L70.4524 37.5649V27.3479H79.1059L82.845 31.0923V37.5629L80.655 39.756L80.653 39.758ZM84.3921 28.2573L81.9349 25.7967L85.9412 21.7847L88.3984 24.2454L84.3921 28.2573Z" fill="url(#paint0_linear_7091_682)"/>
<defs>
<linearGradient id="paint0_linear_7091_682" x1="30.9881" y1="100.257" x2="30.9881" y2="0.976559" gradientUnits="userSpaceOnUse">
<stop stop-color="#0B9798"/>
<stop offset="1" stop-color="#0AECEE"/>
</linearGradient>
</defs>
</svg>
