<svg width="61" height="105" viewBox="0 0 61 105" fill="none" xmlns="http://www.w3.org/2000/svg">
<path d="M31.7933 0.976562C32.3593 1.15131 32.936 1.29648 33.4888 1.50617C36.8772 2.79928 38.9289 6.12479 38.5781 9.84281C38.509 10.5848 38.7189 10.9128 39.3328 11.3349C40.8051 12.343 42.2136 13.4667 43.5557 14.6523C44.5151 15.5018 44.5417 16.4051 43.8534 17.0934C43.189 17.7574 42.296 17.6337 41.4376 16.7466C38.222 13.413 34.3153 11.851 29.7177 12.0446C26.8927 12.1629 24.8676 14.0797 24.5806 16.924C24.5594 17.1229 24.5434 17.3245 24.5062 17.5235C24.3547 18.3273 23.8498 18.7816 23.0631 18.787C22.2818 18.7897 21.8274 18.3381 21.5802 17.5557C21.4394 17.1041 21.1098 16.5234 20.7351 16.3998C20.4295 16.2976 19.8235 16.6874 19.5339 17.0208C16.2969 20.7549 15.2366 25.1208 15.9169 30.1481C18.0191 28.285 19.4781 26.1263 20.6368 23.7444C20.9876 23.0239 21.2985 22.2819 21.5802 21.5319C21.83 20.8624 22.1914 20.1877 22.9329 20.2844C23.507 20.357 24.2059 20.72 24.5461 21.1824C27.185 24.7606 30.6027 27.121 34.8708 28.2447C38.0333 29.0754 41.1798 28.8362 44.3184 28.1399C45.1954 27.9463 45.5888 27.2742 45.4825 26.4059C45.3336 25.18 45.0945 23.9621 44.8898 22.7443C44.6772 21.4727 45.6047 20.4834 46.7076 20.9243C47.1488 21.099 47.6457 21.6475 47.7441 22.1099C48.1321 23.9272 48.3712 25.7741 48.443 27.6506C48.4908 27.6936 48.5334 27.7608 48.5892 27.7743C52.0546 28.6964 52.8041 31.3417 52.1902 34.3204C51.5789 37.2884 49.724 39.216 46.8112 40.0494C46.5561 40.1219 46.2983 40.1811 46.0432 40.251C46.0166 40.259 45.998 40.2967 45.921 40.38C45.5941 44.2083 43.6886 47.2461 40.8503 49.7759C40.6536 49.9506 40.4942 50.2759 40.4862 50.5394C40.4464 51.6389 40.4703 52.7438 40.4703 53.9563C40.8902 53.9805 41.2383 54.0181 41.5865 54.0208C44.2706 54.0343 46.9601 53.9509 49.6416 54.0665C55.8071 54.3327 60.3968 58.5776 60.6891 64.7931C60.9682 70.7452 60.8858 76.7322 60.6227 82.6896C60.4313 87.0448 58.1432 90.459 54.4544 92.6957C48.8018 96.1234 43.0614 99.4005 37.345 102.715C35.7956 103.613 34.0894 104.016 32.2982 104.016C31.2378 104.016 30.1775 104 29.1144 104.022C27.1053 104.062 25.2477 103.53 23.5176 102.527C20.9318 101.027 18.3539 99.5135 15.7761 97.9999C14.7316 97.3869 14.4287 96.6208 14.8778 95.7901C15.3429 94.9298 16.2039 94.7792 17.2776 95.4029C19.8342 96.8869 22.3722 98.4031 24.9394 99.8656C28.5537 101.928 32.7739 101.049 35.0249 97.8036C35.8169 96.6611 35.7584 96.3761 34.5784 95.6879C27.496 91.5505 20.4215 87.3943 13.3178 83.2945C12.2282 82.6654 11.7658 81.8939 11.8136 80.633C11.888 78.7028 11.8322 76.7645 11.8322 74.7724H3.23229C3.40504 77.8774 3.34657 80.9422 3.81165 83.9209C4.23952 86.6765 6.02009 88.7411 8.39597 90.2036C9.18792 90.6902 10.0144 91.123 10.7878 91.6392C11.5186 92.1285 11.6967 92.9753 11.2555 93.6609C10.7904 94.3787 10.1074 94.6018 9.35269 94.2308C5.25471 92.2199 2.03373 89.3756 0.885652 84.7032C0.601292 83.5445 0.441837 82.3213 0.431207 81.1277C0.38337 76.0305 0.386028 70.9334 0.417919 65.8362C0.455125 59.8492 4.29267 55.0908 9.94268 54.2198C11.9252 53.916 13.9769 54.0638 15.9966 54.0316C17.5168 54.0074 19.0369 54.0262 20.7112 54.0262C20.7112 52.7223 20.7324 51.5018 20.6899 50.2786C20.6819 50.0689 20.4188 49.8377 20.2302 49.6683C17.4689 47.1655 15.5953 44.1787 15.2791 40.3316C14.6333 40.1246 13.9902 39.9714 13.3896 39.716C10.1712 38.3476 8.32421 34.9603 8.92748 31.4627C9.21716 29.7798 10.2456 28.648 11.811 28.0243C12.0847 27.914 12.3717 27.8388 12.4886 27.8038C12.8155 25.844 13.0255 23.981 13.4507 22.169C14.0593 19.5882 15.3641 17.3407 17.0304 15.2921C18.439 13.5608 20.0946 12.7731 22.2605 13.6657C23.0233 12.843 23.2518 12.05 22.9435 10.8751C21.8513 6.70817 24.5062 2.36645 28.6706 1.23196C28.9204 1.16475 29.1596 1.06797 29.4068 0.984628C30.2014 0.984628 30.9987 0.984628 31.7933 0.984628V0.976562ZM38.9475 75.9015C36.8905 76.0924 35.2641 76.9096 33.8901 78.2646C33.2257 78.9205 32.5932 79.6114 31.9076 80.2405C31.2511 80.8427 30.4326 80.8239 29.8506 80.262C29.2393 79.6706 29.2181 78.8049 29.8426 78.1086C30.3555 77.5387 30.9216 77.0198 31.4505 76.4633C33.2815 74.5412 35.4634 73.2964 38.105 72.9792C38.7083 72.9066 38.8332 72.584 38.9156 72.0679C39.6145 67.7665 41.9745 64.7394 46.0033 63.2527C50.112 61.7391 53.8884 62.5833 57.2077 65.476C57.3618 65.6104 57.5452 65.7045 57.7631 65.8497C57.8375 61.6424 55.273 58.1636 51.3477 57.3168C49.8781 56.9995 48.3207 57.0641 46.8006 57.0641C46.3409 57.0641 45.7748 57.3168 45.4399 57.6447C43.9198 59.1395 42.49 60.7283 40.9805 62.2392C35.1976 68.0299 25.9998 68.0299 20.2169 62.2499C19.3691 61.4004 18.5453 60.5267 17.7134 59.661C15.8974 57.7702 13.7005 56.9108 11.1226 57.0829C7.22929 57.3436 3.91529 60.3923 3.54323 64.3307C3.31999 66.6884 3.45819 69.0784 3.44224 71.4549C3.44224 71.5033 3.52197 71.5517 3.58841 71.627H11.8242C11.8242 71.2183 11.8242 70.8608 11.8242 70.5005C11.8242 69.0596 11.8056 67.6159 11.8375 66.175C11.8588 65.2125 12.4514 64.5942 13.2726 64.5781C14.1044 64.5592 14.6997 65.1534 14.7928 66.1104C14.822 66.4088 14.806 66.7126 14.806 67.0164C14.806 71.2748 14.7981 75.5332 14.822 79.7916C14.822 80.1464 14.9363 80.6814 15.1781 80.8266C17.6683 82.3401 20.1956 83.7945 22.816 85.3215C23.1296 84.9613 23.406 84.6279 23.701 84.3107C23.9959 83.9935 24.2936 83.6763 24.6152 83.3886C25.3274 82.7541 26.1539 82.7676 26.7465 83.394C27.3099 83.9908 27.3339 84.8081 26.7306 85.4748C26.3293 85.9157 25.8376 86.2732 25.3088 86.7356C25.819 87.0528 26.1486 87.2706 26.4861 87.4669C29.4679 89.2089 32.4364 90.9752 35.4395 92.6796C36.9277 93.5237 38.2937 94.4217 38.5356 96.5777C41.1719 93.8275 43.6859 91.3112 46.0698 88.6686C47.0531 87.5798 47.4969 86.1388 47.5261 84.5984C42.9551 83.3886 40.1301 80.4878 38.9448 75.8988L38.9475 75.9015ZM23.4937 24.7122C22.1144 27.6264 20.371 30.1266 18.1174 32.2611C17.8995 32.4655 17.7905 32.901 17.8038 33.2209C17.8702 34.7586 18.0802 36.2964 18.0828 37.8314C18.0908 41.579 19.1538 44.8857 22.1383 47.2354C23.8152 48.5554 25.6941 49.6603 27.5943 50.6335C29.5078 51.612 31.5541 51.4938 33.5659 50.6926C36.266 49.6173 38.602 48.0284 40.4942 45.7998C41.8389 44.2136 42.7452 42.4097 42.9099 40.294C43.0773 38.1567 43.2076 36.0168 43.3564 33.8795C43.4149 33.0596 43.476 32.2369 43.5398 31.3794C35.6468 32.7289 29.0321 30.5137 23.491 24.7122H23.4937ZM49.7957 65.5674C45.3629 65.5566 41.7512 69.1913 41.7512 73.6675C41.7512 78.1436 45.3788 81.8025 49.7904 81.7783C54.1887 81.7541 57.7445 78.1759 57.7924 73.7239C57.8402 69.2747 54.2179 65.5808 49.7984 65.5674H49.7957ZM23.8259 52.1632C23.4786 54.9591 22.0745 56.6285 19.6136 57.1716C22.6618 61.016 26.1991 63.8764 31.4265 63.5269C35.9285 63.2258 38.9156 60.481 41.7034 57.0318C40.2842 57.0748 38.8731 57.1555 38.214 55.9457C37.6426 54.8972 37.5204 53.5961 37.1669 52.2922C32.851 55.0021 28.3597 54.9886 23.8259 52.1632ZM57.7897 81.3212C55.7354 83.3106 53.5642 84.4209 51.0076 84.7328C50.8162 84.757 50.5451 85.093 50.5159 85.3108C50.1492 88.1631 48.8337 90.494 46.7794 92.4323C45.9183 93.2442 45.0546 94.0534 44.1909 94.8626L44.4433 95.1717C47.6537 93.2092 50.973 91.4053 54.0399 89.2331C56.546 87.4588 57.6302 84.7032 57.7897 81.3186V81.3212ZM25.8669 9.95304C29.0693 8.49056 32.2929 8.9449 35.5112 9.63043C35.8966 7.86417 35.0355 5.90972 33.441 4.83706C31.7056 3.673 29.4387 3.7187 27.7617 4.95535C26.1698 6.12748 25.3832 8.1357 25.8669 9.95035V9.95304ZM46.5854 30.8713C46.4392 32.8902 46.2904 34.928 46.1415 37.0007C47.869 36.6109 49.134 35.1296 49.328 33.3768C49.5672 31.1939 48.847 30.511 46.588 30.8739L46.5854 30.8713ZM15.0452 36.9765C14.9682 35.8017 14.8991 34.6377 14.806 33.479C14.7901 33.2962 14.7051 33.0838 14.5828 32.9521C13.9716 32.2907 13.3364 31.6509 12.6667 30.96C11.6754 31.2933 11.7233 32.4278 11.9173 33.6994C12.1644 35.3098 13.5251 36.7158 15.0452 36.9792V36.9765Z" fill="url(#paint0_linear_7091_681)"/>
<defs>
<linearGradient id="paint0_linear_7091_681" x1="20.0726" y1="104.024" x2="20.0725" y2="0.976559" gradientUnits="userSpaceOnUse">
<stop stop-color="#0B9798"/>
<stop offset="1" stop-color="#0AECEE"/>
</linearGradient>
</defs>
</svg>
