<svg xmlns="http://www.w3.org/2000/svg" width="140" height="74" viewBox="0 0 140 74" fill="none">
    <g clip-path="url(#clip0_6576_137965)">
        <path d="M62.7213 43.2661C58.3658 43.2661 55.3365 47.3973 55.3365 51.103C55.3365 54.3424 57.6044 56.5266 60.9857 56.5266C63.4172 56.5266 64.9237 55.5204 65.9634 54.6451L66.0453 54.5715L64.9401 53.1726L64.85 53.2381C63.7775 54.1134 62.7213 54.6942 61.0757 54.6942C58.857 54.6942 57.4161 53.2544 57.4161 51.0375C57.4161 51.0375 57.4243 50.8248 57.4325 50.7185H67.167L67.1915 50.6449C67.4944 49.8268 67.6582 48.9924 67.6582 48.1744C67.6582 45.7448 66.1272 43.2825 62.7132 43.2825L62.7213 43.2661ZM65.5459 48.9843H57.7681C58.5541 46.6038 60.4371 45.0577 62.6231 45.0577C64.8091 45.0577 65.6278 46.661 65.6278 48.158C65.6278 48.158 65.5541 48.837 65.5459 48.9843ZM55.5658 42.5299C54.2804 40.1658 51.9798 38.8569 49.0979 38.8569C43.6371 38.8569 38.8477 43.806 38.8477 49.4505C38.8477 53.6307 41.8523 56.5511 46.1588 56.5511C49.5892 56.5511 51.6196 54.9232 52.8477 53.6962L52.9295 53.6144L51.4886 52.2073L51.4067 52.281C49.7693 53.8598 48.2301 54.5306 46.2488 54.5306C43.1541 54.5306 41.0746 52.4609 41.0746 49.3687C41.0746 44.8204 44.7424 40.8366 48.926 40.8366C51.1284 40.8366 52.5611 41.6791 53.7319 43.6506L53.7892 43.7488L55.6149 42.6199L55.5658 42.5299ZM134.252 38.4315C134.252 38.4315 132.328 45.6139 132.181 46.1702C131.616 44.9758 130.331 43.2907 127.523 43.2907C123.666 43.2907 120.408 46.8819 120.408 51.1357C120.408 54.2606 122.537 56.5184 125.468 56.5184C127.138 56.5184 128.603 55.7903 129.97 54.3588C129.831 54.8741 129.479 56.2321 129.479 56.2321H131.567L136.332 38.4315H134.244H134.252ZM126.008 54.6615C123.969 54.6615 122.594 53.1808 122.594 50.9721C122.594 47.7654 124.886 45.1558 127.694 45.1558C129.864 45.1558 131.444 46.7346 131.444 48.8943C131.444 51.8065 128.751 54.6615 126 54.6615H126.008ZM78.1541 43.2743C76.5003 43.2743 75.0266 44.0024 73.6348 45.434C73.774 44.9186 74.1424 43.5361 74.1424 43.5361H72.0547L67.6254 60.0769H69.7132C69.7132 60.0769 71.326 54.0643 71.4488 53.598C72.3494 55.455 73.9705 56.502 76.0909 56.502C79.9471 56.502 83.2055 52.9108 83.2055 48.6652C83.2055 45.4912 81.126 43.2743 78.1459 43.2743H78.1541ZM75.9354 54.6451C73.7576 54.6451 72.1775 53.0581 72.1775 50.8821C72.1775 47.9862 74.871 45.1395 77.6219 45.1395C79.6933 45.1395 81.036 46.5956 81.036 48.837C81.036 52.0437 78.7517 54.6533 75.9354 54.6533V54.6451ZM107.308 43.2743C102.961 43.2743 99.9237 47.4054 99.9237 51.1112C99.9237 54.3506 102.192 56.5348 105.573 56.5348C108.004 56.5348 109.511 55.5286 110.551 54.6533L110.632 54.5797L109.527 53.1808L109.445 53.2462C108.373 54.1215 107.317 54.7024 105.671 54.7024C103.452 54.7024 102.011 53.2626 102.011 51.0457C102.011 51.0457 102.02 50.833 102.028 50.7267H111.762L111.795 50.6531C112.098 49.835 112.262 49.0006 112.262 48.1826C112.262 45.753 110.731 43.2907 107.317 43.2907L107.308 43.2743ZM110.133 48.9924H102.355C103.149 46.6119 105.024 45.0658 107.21 45.0658C109.396 45.0658 110.215 46.6692 110.215 48.1662C110.215 48.1662 110.141 48.8452 110.125 48.9924H110.133ZM113.416 56.2485H115.528L118.992 43.5688H116.879L113.416 56.2485ZM118.05 38.7996L117.428 41.0656H119.81L120.432 38.7996H118.05ZM93.6114 43.2989C91.712 43.2989 90.4675 44.2805 89.4769 45.3194C89.6734 44.5914 91.3436 38.4397 91.3436 38.4397H89.2477L84.45 56.2403H86.5459L88.4535 49.1233C89.0839 46.841 90.9424 45.1885 92.8664 45.1885C94.5529 45.1885 95.5599 46.1211 95.5599 47.6754C95.5599 48.1089 95.4862 48.6652 95.3716 49.0415L93.4477 56.2403H95.5436L97.402 49.2215C97.6149 48.4034 97.7213 47.7654 97.7213 47.2664C97.7213 44.8531 96.1085 43.2989 93.6196 43.2989H93.6114Z"
              fill="#0E0F11"/>
        <path d="M137.691 51.6428C136.422 51.6428 135.382 52.6736 135.382 53.9497C135.382 55.2258 136.414 56.2484 137.683 56.2484C138.952 56.2484 139.992 55.2177 139.992 53.9497C139.992 52.6817 138.96 51.6428 137.683 51.6428H137.691ZM137.691 55.8475C136.635 55.8475 135.808 55.0213 135.808 53.9579C135.808 52.8944 136.643 52.0518 137.699 52.0518C138.755 52.0518 139.582 52.8781 139.582 53.9333V53.9497C139.582 55.0131 138.747 55.8475 137.691 55.8475Z"
              fill="#0E0F11"/>
        <path d="M136.717 52.649V55.1195H137.273V54.2688H137.674C137.732 54.3424 138.321 55.1195 138.321 55.1195H139.017C139.017 55.1195 138.379 54.2933 138.256 54.1379C138.575 54.0152 138.78 53.7779 138.78 53.4425C138.78 53.2299 138.706 53.0499 138.567 52.919C138.395 52.7472 138.125 52.649 137.822 52.649H136.7H136.717ZM137.822 53.1726C137.912 53.1726 138.223 53.189 138.223 53.4507C138.223 53.7289 137.904 53.7534 137.805 53.7534H137.273V53.1726H137.822Z"
              fill="#0E0F11"/>
        <path fill-rule="evenodd" clip-rule="evenodd"
              d="M64.1215 0L64.1192 0.0032905C53.983 3.17086 37.98 10.4382 37.98 10.4382C29.2116 14.5448 14.4092 22.6679 5.7227 32.918C0.270065 39.3396 -1.38374 46.1457 1.18702 51.0539C0.311001 48.6407 1.51451 31.8627 54.2478 13.8494L64.1192 0.0032905L64.1297 0H64.1215ZM47.5836 23.1915C47.5836 23.1915 -3.20117 40.5013 2.84912 53.4345C3.25046 54.2668 4.09304 54.9171 4.23026 55.023L4.23048 55.0232C4.24149 55.0317 4.2479 55.0366 4.24912 55.0378C2.05497 52.1174 8.13801 43.438 40.731 32.8199L47.5918 23.1997L47.5836 23.1915ZM6.1564 56.3876C2.43944 52.3465 15.8418 46.4157 23.4558 44.2397V44.2479C23.5169 44.2301 23.6341 44.1958 23.7989 44.1476C25.5336 43.6399 32.5405 41.5894 34.8359 41.0739L29.6699 48.3135C23.4231 49.2216 3.60202 53.7617 6.81956 56.903C6.54938 56.7475 6.32014 56.5512 6.1564 56.3876Z"
              fill="#0079C1"/>
        <path fill-rule="evenodd" clip-rule="evenodd"
              d="M76.7549 65.8851C76.6895 66.2123 76.5912 66.5722 76.5912 66.5722C77.1316 65.9423 77.9093 65.2307 78.7362 65.2307C79.9971 65.2307 80.3409 66.1878 80.3409 67.2185C80.3409 68.9037 79.4076 71.4232 77.4345 71.4232C76.6649 71.4232 76.0918 71.0633 75.7479 70.7524C75.6906 71.0142 75.5842 71.3005 75.5842 71.3005H74.6099C74.6099 71.3005 74.9865 70.008 75.183 68.9609L76.3783 62.8093L77.3772 62.5802L76.7386 65.8769L76.7549 65.8851ZM75.9444 70.0571C76.4438 70.4579 77.0906 70.5888 77.5 70.5888C78.8345 70.5888 79.3093 68.3719 79.3093 67.2758C79.3093 66.6295 79.121 66.0323 78.4006 66.0323C77.8357 66.0323 77.0906 66.7195 76.452 67.4557L75.9444 70.0571ZM69.8527 71.3578L69.5171 68.9609H66.234L64.9896 71.3578L63.958 71.3005L68.4446 63.2264H69.6808L70.9662 71.3005L69.8609 71.3578H69.8527ZM68.9685 64.7153C68.9194 64.3799 68.8948 63.9708 68.8948 63.9545C68.8885 63.9608 68.8591 64.023 68.8145 64.1173L68.8145 64.1173L68.8145 64.1173L68.8145 64.1173C68.7435 64.2676 68.6339 64.4991 68.5182 64.7153L66.6516 68.1756H69.427L68.9685 64.7153ZM82.6001 69.4108C82.6001 69.149 82.6247 68.9608 82.6247 68.9608H82.6411C83.1651 68.8954 86.5791 68.3964 86.5791 66.5149C86.5791 65.6478 85.6458 65.2224 84.7943 65.2224C82.5838 65.2224 81.5522 67.6029 81.5522 69.5089C81.5522 70.5397 81.9206 71.4231 83.3042 71.4231C84.5896 71.4231 85.6867 70.6542 85.6867 70.6542L85.8504 69.7298C85.8504 69.7298 84.6715 70.6133 83.6153 70.6133C82.8294 70.6133 82.6001 70.147 82.6001 69.4108ZM84.6224 66.0077C85.1463 66.0077 85.5311 66.2368 85.5311 66.6376C85.5311 67.7338 83.3615 68.1919 82.7066 68.3146C82.9194 67.1939 83.468 66.0077 84.6224 66.0077ZM91.4259 66.1387H89.7557L89.0189 69.9098C88.9943 70.0407 88.9861 70.1225 88.9861 70.237C88.9861 70.4988 89.0926 70.6215 89.3955 70.6215C89.854 70.6215 90.7054 70.188 90.7054 70.188L90.599 70.9733C90.599 70.9733 89.813 71.4314 88.9779 71.4314C88.2165 71.4314 87.9627 71.1205 87.9627 70.5643C87.9627 70.3761 87.9873 70.1552 88.0364 69.918L88.7978 66.1468H87.6271L87.7581 65.5088L88.9534 65.3288L89.5429 63.8972H90.2633L89.9195 65.3533H91.5896L91.4423 66.1387H91.4259ZM94.2752 66.1387H95.9454H95.9536L96.1009 65.3533H94.4308L94.7828 63.8972H94.0541L93.4729 65.3288L92.2775 65.5088L92.1547 66.1468H93.3255L92.5641 69.918C92.515 70.1552 92.4904 70.3761 92.4904 70.5643C92.4904 71.1205 92.736 71.4314 93.4974 71.4314C94.3325 71.4314 95.1185 70.9733 95.1185 70.9733L95.2249 70.188C95.2249 70.188 94.3816 70.6215 93.915 70.6215C93.612 70.6215 93.5056 70.4988 93.5056 70.237C93.5056 70.1225 93.5138 70.0407 93.5384 69.9098L94.2752 66.1387ZM97.6152 68.9608C97.6152 68.9608 97.5906 69.149 97.5906 69.4108C97.5906 70.147 97.8198 70.6133 98.6058 70.6133C99.6701 70.6133 100.841 69.7298 100.841 69.7298L100.677 70.6542C100.677 70.6542 99.5801 71.4231 98.2947 71.4231C96.9111 71.4231 96.5426 70.5397 96.5426 69.5089C96.5426 67.6029 97.5742 65.2224 99.7847 65.2224C100.636 65.2224 101.561 65.6478 101.561 66.5149C101.561 68.3964 98.1473 68.8954 97.6233 68.9608H97.6152ZM100.522 66.6376C100.522 66.2368 100.137 66.0077 99.6128 66.0077C98.4584 66.0077 97.9099 67.1939 97.697 68.3146C98.352 68.1919 100.53 67.7338 100.53 66.6376H100.522ZM105.852 65.2388C105.312 65.2388 104.738 65.6805 104.28 66.1059H104.272C104.337 65.7051 104.337 65.3452 104.337 65.3452H103.355C103.355 65.3452 103.322 66.065 103.216 66.6295L102.307 71.3005H103.289L104.141 66.9076C105.009 66.1796 105.254 66.1059 105.524 66.1059C105.696 66.1059 106.089 66.1714 106.089 66.1714L106.351 65.2879C106.351 65.2879 106.138 65.2388 105.852 65.2388ZM114.98 71.3005H113.793L113.596 67.8402C113.58 67.652 113.58 67.4557 113.58 67.2675C113.58 66.9076 113.596 66.5967 113.596 66.5967C113.596 66.5967 113.367 67.2921 113.138 67.8402L111.591 71.3005H110.363L109.765 65.3615L110.862 65.3206L111.148 69.3944C111.173 69.7462 111.173 70.4661 111.173 70.4742C111.173 70.4415 111.435 69.7462 111.599 69.3781L113.351 65.3451H114.399C114.399 65.3451 114.579 69.2635 114.579 69.3781C114.579 69.8669 114.562 70.2825 114.556 70.4237V70.4238L114.556 70.424L114.556 70.4243C114.556 70.4391 114.555 70.4508 114.555 70.4593C114.554 70.4672 114.554 70.4722 114.554 70.4742C114.558 70.4662 114.576 70.4222 114.604 70.3547L114.604 70.3542L114.604 70.3541L114.604 70.3538L114.605 70.3535C114.689 70.147 114.863 69.7223 115.005 69.4272L116.92 65.3451L118.009 65.3942L114.98 71.3005ZM118.099 69.4354C118.099 70.4486 118.434 71.4209 119.626 71.4232L119.622 71.4232H119.63L119.626 71.4232C120.541 71.4213 121.269 70.7678 121.767 70.1062C121.702 70.6052 121.653 71.3005 121.653 71.3005H122.651C122.651 71.3005 122.742 69.6972 122.913 68.8137L123.429 66.2614C123.544 65.7297 123.642 65.3534 123.642 65.3534H122.741C122.741 65.3534 122.66 65.517 122.594 65.6888C122.054 65.337 121.612 65.2306 121.161 65.2306C119.082 65.2306 118.099 67.6439 118.099 69.4354ZM119.147 69.2227C119.147 68.102 119.647 65.9996 121.022 65.9996V65.9914C121.546 65.9914 121.972 66.1223 122.414 66.3923C122.136 67.6848 121.947 68.5764 121.849 69.1572C121.145 70.0407 120.482 70.5888 119.982 70.5888C119.287 70.5888 119.147 69.9017 119.147 69.2227ZM126.221 72.3475L126.21 72.3669C125.998 72.7253 125.709 73.2144 125.001 73.6482C124.559 73.91 123.814 74 123.814 74V73.1738C124.453 73.0674 124.985 72.7893 125.37 72.143L125.82 71.3822L124.707 65.3696L125.779 65.3287L126.393 69.2144C126.426 69.468 126.442 69.7625 126.442 69.9916C126.442 70.2206 126.426 70.3842 126.426 70.3842L129.12 65.3615L130.192 65.4105L126.213 72.3639L126.221 72.3475ZM129.504 70.8015C129.504 71.1451 129.717 71.4232 130.126 71.4232C130.617 71.4232 130.937 71.0142 130.937 70.5561C130.937 70.2207 130.732 69.9344 130.323 69.9344C129.84 69.9344 129.504 70.3434 129.504 70.8015Z"
              fill="#0E0F11"/>
    </g>
    <defs>
        <clipPath id="clip0_6576_137965">
            <rect width="140" height="74" fill="white"/>
        </clipPath>
    </defs>
</svg>