<svg xmlns="http://www.w3.org/2000/svg" width="206" height="88.609" viewBox="0 0 206 88.609">
    <defs>
        <clipPath id="clip-path">
            <path id="Rectangle_6171" fill="none" d="M0 0H85.198V32.627H0z"/>
        </clipPath>
        <style>
            .cls-2{fill:#ee4498}.cls-4{fill:#ff3d9e}
        </style>
    </defs>
    <g id="cytocell_logo_with_fish" transform="translate(-84.865 -38.438)">
        <g id="Group_15487" transform="translate(84.865 80.061)">
            <g id="Group_15486">
                <path id="Path_29804"
                      d="M84.865 193.08v-.105a18.638 18.638 0 0 1 18.994-19.047 19.2 19.2 0 0 1 14.416 5.735l-4.156 4.788c-2.947-2.736-6.1-4.578-10.313-4.578-7.051 0-12.154 5.788-12.154 13v.105c0 7.208 5.1 13.1 12.154 13.1 4.525 0 7.418-1.841 10.576-4.788l4.157 4.209c-3.841 4-8.05 6.524-14.943 6.524a18.524 18.524 0 0 1-18.731-18.943z"
                      class="cls-2" transform="translate(-84.865 -172.981)"/>
                <path id="Path_29805"
                      d="M199.635 239.414l2.158-4.736a7.836 7.836 0 0 0 3.736 1.052c1.789 0 2.894-.789 3.946-3.21L197.9 204.74h6.787l7.892 20.625 7.209-20.625h6.629l-11.049 28.57c-2.21 5.683-4.683 7.787-9.155 7.787a12.977 12.977 0 0 1-6.578-1.683z"
                      class="cls-2" transform="translate(-162.384 -194.112)"/>
                <path id="Path_29806"
                      d="M305.2 207.935v-14.627h-3.526v-5.472h3.526v-7.629h6.366v7.629h7.472v5.472h-7.472v13.627c0 2.473 1.262 3.472 3.42 3.472a8.557 8.557 0 0 0 3.946-.947v5.209a11.145 11.145 0 0 1-5.735 1.42c-4.682.002-7.997-2.05-7.997-8.154z"
                      class="cls-2" transform="translate(-233.554 -177.287)"/>
                <path id="Path_29807"
                      d="M362.485 217.274v-.105a14.815 14.815 0 0 1 29.622-.1v.1a14.525 14.525 0 0 1-14.89 14.469 14.368 14.368 0 0 1-14.732-14.364zm23.256 0v-.105c0-4.893-3.525-8.945-8.523-8.945-5.1 0-8.366 4-8.366 8.84v.1c0 4.841 3.525 8.945 8.471 8.945 5.156.005 8.418-4.047 8.418-8.835z"
                      class="cls-2" transform="translate(-275.258 -192.677)"/>
                <path id="Path_29808"
                      d="M469.346 193.08v-.105a18.638 18.638 0 0 1 18.994-19.047 19.2 19.2 0 0 1 14.416 5.735l-4.156 4.788c-2.947-2.736-6.1-4.578-10.313-4.578-7.051 0-12.154 5.788-12.154 13v.105c0 7.208 5.1 13.1 12.154 13.1 4.525 0 7.418-1.841 10.576-4.788l4.156 4.209c-3.841 4-8.05 6.524-14.943 6.524a18.523 18.523 0 0 1-18.73-18.943z"
                      class="cls-2" transform="translate(-348.543 -172.981)"/>
                <path id="Path_29809"
                      d="M585.274 217.472v-.1c0-7.945 5.629-14.469 13.574-14.469 8.84 0 13.312 6.945 13.312 14.943 0 .579-.052 1.158-.105 1.789H591.64a7.755 7.755 0 0 0 8 7.05 10.09 10.09 0 0 0 7.524-3.315l3.735 3.315a14.05 14.05 0 0 1-11.365 5.209c-8.052-.005-14.26-5.845-14.26-14.422zm20.572-2.052c-.42-4.1-2.841-7.314-7.05-7.314-3.894 0-6.63 3-7.209 7.314z"
                      class="cls-2" transform="translate(-428.047 -192.849)"/>
                <path id="Path_29810" d="M682.4 170.914h6.367v38.409H682.4z" class="cls-2"
                      transform="translate(-494.655 -170.914)"/>
                <path id="Path_29811" d="M720.242 170.914h6.367v38.409h-6.367z" class="cls-2"
                      transform="translate(-520.609 -170.914)"/>
            </g>
        </g>
        <g id="Group_15489" transform="translate(205.667 38.438)">
            <g id="Group_15488" clip-path="url(#clip-path)">
                <path id="Path_29812"
                      d="M723.71 65.391a2.2 2.2 0 1 0-2.2-2.2 2.2 2.2 0 0 0 2.2 2.2m0-3.653a1.45 1.45 0 1 1-1.451 1.45 1.452 1.452 0 0 1 1.451-1.45"
                      class="cls-4" transform="translate(-642.279 -53.901)"/>
                <path id="Path_29813"
                      d="M701.317 41.689a1.625 1.625 0 1 0-1.625-1.626 1.628 1.628 0 0 0 1.625 1.626m0-2.5a.873.873 0 1 1-.873.873.874.874 0 0 1 .873-.873"
                      class="cls-4" transform="translate(-627.318 -38.438)"/>
                <path id="Path_29814"
                      d="M701.317 94.422a1.625 1.625 0 1 0 1.625 1.626 1.627 1.627 0 0 0-1.625-1.626m0 2.5a.873.873 0 1 1 .873-.873.874.874 0 0 1-.873.873"
                      class="cls-4" transform="translate(-627.318 -76.832)"/>
                <path id="Path_29815"
                      d="M553.276 67.55a.47.47 0 0 1-.062-.063c-7.3-5.625-15.568-10.766-30.117-10.766-16.427 0-24.841 6.556-32.909 12.962-5.363-4.259-10.892-8.575-18.815-10.995v.025a4.149 4.149 0 0 0-1.65-.342.376.376 0 1 0 0 .752 3.428 3.428 0 0 1 0 6.856.376.376 0 1 0 0 .752 3.428 3.428 0 0 1 0 6.855.376.376 0 0 0-.376.376v.007a.376.376 0 0 0 .376.376 3.428 3.428 0 0 1 0 6.856.376.376 0 1 0 0 .752 4.149 4.149 0 0 0 1.65-.341v.025c7.923-2.42 13.452-6.736 18.815-10.994C498.256 77.047 506.669 83.6 523.1 83.6c14.636 0 22.911-5.2 30.248-10.868.013-.014.017-.032.032-.045a3.325 3.325 0 0 0-.1-5.141m-80.21 12.718a4.166 4.166 0 0 0-1.634-6.3 4.173 4.173 0 0 0 .008-7.611 4.165 4.165 0 0 0 1.626-6.295c6.74 2.441 11.7 6.286 16.513 10.1-4.808 3.817-9.772 7.661-16.513 10.1m17.722-10.1c4.477-3.553 9.076-7.14 15.128-9.59v13.476a.376.376 0 0 0 .752 0V60.278a41.021 41.021 0 0 1 7.689-2.091v18.162a.376.376 0 0 0 .752 0V58.063a51.71 51.71 0 0 1 7.689-.586v19.705a.376.376 0 0 0 .752 0v-19.7a48.669 48.669 0 0 1 10.754 1.21 4.175 4.175 0 0 0-.134 7.674 4.173 4.173 0 0 0-.008 7.61 4.175 4.175 0 0 0 .132 7.667 49.014 49.014 0 0 1-11.2 1.212c-16.072 0-24.378-6.4-32.3-12.689m61.957 2.084c-4.708 3.623-9.822 7.039-16.789 8.972a.336.336 0 0 0-.07-.014 3.428 3.428 0 0 1 0-6.855.376.376 0 0 0 0-.752 3.428 3.428 0 1 1 0-6.855.375.375 0 0 0 .376-.376v-.007a.376.376 0 0 0-.376-.376 3.428 3.428 0 0 1 0-6.855.352.352 0 0 0 .082-.017c6.961 1.934 12.072 5.347 16.777 8.968a2.607 2.607 0 0 1 1 1.71h-5.2a.392.392 0 0 0 0 .783h5.2a2.608 2.608 0 0 1-.992 1.675"
                      class="cls-4" transform="translate(-469.346 -50.977)"/>
            </g>
        </g>
    </g>
</svg>