<svg xmlns="http://www.w3.org/2000/svg" id="Layer_1" data-name="Layer 1" viewBox="0 0 1500 687.5">
    <defs>
        <style>.cls-2{fill:#fff}</style>
    </defs>
    <g id="DV1_Default">
        <path d="M1500 343.75C1500 153.9 1164.21 0 750 0S0 153.9 0 343.75 335.79 687.5 750 687.5s750-153.9 750-343.75z"
              fill="#9f2842" id="ELLIPSE"/>
        <path class="cls-2"
              d="M575.42 505.69h147.79v-70.28H599.89a15.28 15.28 0 01-15.28-15.28v-41.25h138.6V308.6h-138.6v-41.25a15.28 15.28 0 0115.28-15.28h123.32v-70.28H575.42a61.11 61.11 0 00-61.11 61.11v201.67a61.11 61.11 0 0061.11 61.12z"
              id="LINE"/>
        <path class="cls-2"
              d="M833.61 505.69H981.8v-70.28H859.92a15.28 15.28 0 01-15.28-15.28v-41.25H981.8V308.6h-139v-39.39a17.14 17.14 0 0117.14-17.14h121.87v-70.28h-148.2a61.11 61.11 0 00-61.11 61.11v201.67a61.11 61.11 0 0061.11 61.12z"
              id="LINE-2"/>
        <path class="cls-2"
              d="M1097.92 505.69h149.95l-.64-70.28h-123.32a16.83 16.83 0 01-16.83-16.83V268.91a16.83 16.83 0 0116.83-16.83h123.32V181.8h-149.31a61.11 61.11 0 00-61.11 61.11v201.67a61.11 61.11 0 0061.11 61.11z"/>
        <path class="cls-2"
              d="M262.22 181.81v262.78a61.11 61.11 0 0061.11 61.11h148.19v-70.28H347.8a15.3 15.3 0 01-15.3-15.3V181.81z"
              id="ARC"/>
    </g>
</svg>