<svg
        xmlns="http://www.w3.org/2000/svg"
        width="100%"
        height="100%"
        viewBox="0 0 123 76"
        version="1.1"
        xml:space="preserve"
        stroke-linejoin="round">
    <path d="M118.777 25.252l-7.58 0 -0.674 1.853 -1.853 2.022c0.506 1.01 0.506 2.358 0 3.874l-1.179 3.706c-0.674 1.852-1.853 3.032-3.538 3.369 -1.01 0.168-1.852-0.169-2.358-1.011 -0.336-1.179-0.505-2.527 0-4.043l1.348-4.043c0.674-1.516 1.852-2.527 3.2-3.032 1.179-0.337 2.022 0.169 2.527 1.18l1.853-2.022 -1.179-1.347c-2.358-1.685-5.559-1.685-9.433 0 -2.19 1.01-4.043 2.358-5.39 4.211 -1.348 2.021-2.19 4.211-2.19 6.569 -3.369 3.032-6.233 3.874-8.423 3.032 -1.347-0.842-1.684-2.358-1.347-4.716 0.673-3.538 2.021-5.727 4.042-6.738 1.18-0.506 2.864 0 4.549 1.516 0.673-2.19 0.842-3.369 1.01-3.538 -1.684-1.178-3.874-1.515-6.232-1.347 -2.359 0-4.38 0.674-6.233 1.685 -4.38 2.695-6.57 6.231-6.232 10.443 -0.674 0.506-1.348 1.011-2.19 1.516 -2.021 0.843-3.369 1.01-4.043 0.337 -0.337-0.505-0.337-0.842-0.337-1.516l3.369-12.129 -8.759 0 -3.2 10.95c-2.19 1.516-4.717 2.526-7.581 3.368 -3.874 0.675-6.57 0.506-8.085-0.673 -0.675-0.842-0.843-1.685-0.675-2.695l0.506-2.527c1.011-3.2 2.19-5.222 3.537-6.233 1.853-0.841 3.033-0.673 3.538 0.674 0.337 1.853-0.337 3.369-2.021 4.716 -1.685 0.843-3.37 1.18-5.054 0.843l-0.506 2.527c5.896 0.674 10.107-0.506 12.634-3.537 1.011-1.853 1.18-3.369 0.674-4.717l-0.674-1.011c-1.684-1.516-3.874-2.358-6.906-2.358 -2.358 0-4.717 0.337-7.243 1.348 -2.022 0.674-3.706 2.021-5.223 4.042 -1.515 1.854-2.189 4.043-2.189 6.233 0 2.526 1.179 4.548 3.706 6.064 5.221 3.032 12.297 2.358 21.393-2.527l0 0.337c0.169 0.842 0.673 1.685 1.515 2.527 0.675 0.674 1.517 1.179 2.527 1.516 4.043 0.505 8.254-0.842 12.297-4.043 1.348 2.527 3.874 4.043 7.58 4.211l0.169 0c3.537 0 7.243-1.348 10.78-4.548 1.011 1.853 2.359 3.369 4.548 4.211 3.707 1.18 7.075 0.337 9.939-2.526 0.337 0.842 1.01 1.684 2.021 2.358 3.032 1.516 6.738 0.674 11.455-2.527 0-0.842-0.169-1.685-0.674-2.695 -2.022 1.179-3.537 1.348-4.38 0.674 -0.505-0.506-0.674-1.011-0.505-1.348l3.369-12.465"
          fill="#ec1c28"/>
    <path d="M72.117 16.493c-0.506-0.842-1.684-1.348-3.706-2.022 -2.19-0.168-3.706 0.505-4.885 1.853 -1.01 1.179-1.01 2.359-0.168 3.369 0.842 1.011 2.021 1.685 3.705 1.853 2.695 0.168 4.38-0.505 5.222-2.19 0.674-0.842 0.505-1.684-0.168-2.863"
          fill="#ec1c28"/>
    <path d="M68.579 56.246c17.182 0 35.206-2.527 53.904-7.243l0.337-0.337 -0.674-2.695c-7.917 1.853-14.992 3.032-21.393 3.706 -17.013 1.011-31.331 1.011-42.786 0.169 -10.612-0.674-21.898-3.032-33.858-6.57 1.516-2.358 2.864-5.053 4.043-8.591l2.864-8.927 0.842-3.201c1.516-6.906 3.032-11.623 4.548-14.486 1.348-2.191 2.695-3.201 4.211-3.369 1.18 0.168 2.021 0.336 2.358 0.673 1.516 1.516 1.685 3.874 0.337 7.243 -1.01 2.358-2.526 4.549-4.716 6.233 -2.022 1.853-4.212 3.032-6.738 3.706l-0.842 3.201c6.401-1.18 11.454-4.549 14.823-10.107 2.021-4.549 2.527-8.086 1.179-10.781 -0.168-0.674-1.01-1.516-2.189-2.527 -1.685-1.179-3.707-1.516-5.896-1.347 -2.19 0.337-4.043 1.011-5.896 2.021 -3.2 1.853-5.727 4.717-7.58 8.759 -0.505 1.516-1.179 3.369-1.853 5.727l-1.516 5.559c-1.011 0.169-3.201-0.168-6.738-1.011 -0.505 1.011-0.842 1.854-0.842 2.359 2.864 1.011 5.221 1.516 6.906 1.684 -0.842 3.369-2.19 7.58-4.042 12.297l-0.506 1.516c-0.169 0.505-0.505 1.011-0.842 1.179 -3.201-0.674-5.559-1.179-7.075-1.347 -1.347 0-2.695 0-3.874 0.168 -1.179 0.336-2.19 0.674-3.033 1.179 -1.347 1.011-2.189 2.359-2.021 4.043 0.169 2.021 1.348 3.537 3.369 4.548l1.685-2.696c-0.843-0.505-1.348-1.01-1.348-1.684 0.169-0.674 0.337-1.178 1.011-1.516 0 0 0.168-0.168 0.337-0.168 1.179-0.505 2.358-0.505 4.043-0.337l4.716 1.516c-1.179 1.011-2.527 1.853-4.043 2.358 -1.684 0.506-3.2 0.506-4.716-0.169l-1.685 2.696c0.674 0.337 1.179 0.506 1.685 0.673 2.358 0.843 4.884 0.843 7.58 0.338 3.032-0.505 5.896-1.685 8.422-3.707 5.222 1.854 8.928 3.202 11.286 3.875 14.655 3.874 26.783 5.559 36.216 5.39"
          fill="#ec1c28"/>
    <path d="M78.518 70.564l1.516 0c0-1.516-0.674-2.189-2.19-2.189 -1.684 0-2.527 0.505-2.527 2.021 0 0.674 0.506 1.516 1.685 2.19 1.011 0.505 1.516 1.011 1.516 1.347 0 0.675-0.337 0.842-0.842 0.842 -0.506 0-0.842-0.336-0.842-1.178l-1.517 0c-0.168 1.516 0.674 2.358 2.19 2.358 1.685 0 2.527-0.674 2.527-2.19 0-0.842-0.506-1.348-1.516-2.021 -1.18-0.674-1.684-1.18-1.516-1.516 -0.168-0.506 0.168-0.842 0.674-0.842 0.505 0 0.842 0.336 0.842 1.178"
          fill="#231f20"/>
    <path d="M83.403 68.375l0 1.347 1.853 0 0 6.064 1.516 0 0-6.064 1.684 0 0-1.347 -5.053 0Z" fill="#231f20"/>
    <path d="M71.948 68.375l-1.684 0 -1.011 3.2 -1.179-3.2 -1.684 0 1.852 4.885 0 2.526 1.685 0 0-2.526 2.021-4.885Z"
          fill="#231f20"/>
    <path d="M101.259 69.891l0.336 0 1.348 5.895 1.347 0 1.517-5.895 0.168 0 0 5.895 1.347 0 0-7.411 -2.358 0 -1.347 5.053 -1.18-5.053 -2.526 0 0 7.411 1.348 0 0-5.895Z"
          fill="#231f20"/>
    <path d="M96.036 69.554l0-1.179 -4.042 0 0 7.411 4.211 0 0-1.178 -2.527 0 0-2.022 2.19 0 0-1.18 -2.19 0 0-1.852 2.358 0Z"
          fill="#231f20"/>
    <path d="M111.197 70.396c0 0.674 0.673 1.516 1.684 2.19 1.011 0.505 1.516 1.011 1.516 1.347 0 0.675-0.168 0.842-0.674 0.842 -0.673 0-1.01-0.336-1.01-1.178l-1.516 0c-0.169 1.516 0.673 2.358 2.19 2.358 1.684 0 2.526-0.674 2.695-2.19 0-0.842-0.674-1.348-1.685-2.021 -1.01-0.674-1.516-1.18-1.516-1.516 0-0.506 0.169-0.842 0.842-0.842 0.337 0 0.674 0.336 0.674 1.178l1.516 0c0-1.516-0.674-2.189-2.19-2.189 -1.684 0-2.526 0.505-2.526 2.021"
          fill="#231f20"/>
    <path d="M16.193 69.891l0.336 0 1.348 5.895 1.347 0 1.517-5.895 0.168 0 0 5.895 1.347 0 0-7.411 -2.358 0 -1.348 5.053 -1.179-5.053 -2.526 0 0 7.411 1.348 0 0-5.895Z"
          fill="#231f20"/>
    <path d="M32.363 69.386c-0.337 0.505-0.505 1.347-0.337 2.695 -0.168 1.347 0 2.189 0.337 2.694 0.337 0.675 1.179 1.18 2.19 1.18 1.516 0 2.358-0.842 2.358-2.527l-1.684 0c0 0.842-0.168 1.347-0.674 1.347 -0.673 0-1.011-0.842-1.011-2.694 0-1.685 0.338-2.695 1.011-2.695 0.506 0 0.674 0.336 0.674 1.347l1.516 0c0-1.516-0.674-2.358-2.19-2.358 -1.011 0-1.853 0.337-2.19 1.011"
          fill="#231f20"/>
    <rect x="26.467" y="68.375" width="1.516" height="7.411" fill="#231f20"/>
    <path d="M45.165 70.396c0-1.348-0.505-2.021-1.684-2.021l-2.864 0 0 7.411 1.516 0 0-3.031 0-1.18 0-2.021 0.674 0c0.674 0 0.842 0.337 0.842 1.01 0 0.675-0.168 1.011-0.842 1.011l-0.674 0 0 1.18 0.505 0c0.506 0 0.843 0.168 1.011 0.504l0 1.18c0 0.505 0.169 1.011 0.169 1.347l1.516 0 -0.169-2.189c0-0.842-0.336-1.18-1.347-1.516 1.011-0.169 1.347-0.675 1.347-1.685"
          fill="#231f20"/>
    <path d="M49.545 69.386c-0.337 0.505-0.337 1.347-0.337 2.695 0 1.347 0 2.189 0.337 2.694 0.337 0.675 1.011 1.18 2.19 1.18l0-1.18c-0.674 0-1.011-0.842-1.011-2.694 0-1.685 0.337-2.695 1.011-2.695 0.674 0 1.011 1.01 1.011 2.695 0 1.852-0.337 2.694-1.011 2.694l0 1.18c1.011 0 1.853-0.505 2.19-1.18 0.168-0.505 0.168-1.347 0.337-2.694 -0.169-1.348-0.169-2.19-0.337-2.695 -0.337-0.674-1.179-1.011-2.19-1.011 -1.179 0-1.853 0.337-2.19 1.011"
          fill="#231f20"/>
    <path d="M59.82 70.228c0-0.506 0.169-0.842 0.843-0.842 0.336 0 0.673 0.336 0.673 1.178l1.516 0c0-1.516-0.673-2.189-2.189-2.189 -1.517 0-2.359 0.505-2.359 2.021 0 0.674 0.505 1.516 1.516 2.19 1.011 0.505 1.516 1.011 1.516 1.347 0 0.675-0.168 0.843-0.673 0.843 -0.674 0-1.011-0.337-1.011-1.179l-1.516 0c-0.169 1.516 0.673 2.358 2.19 2.358 1.853 0 2.694-0.674 2.694-2.19 0-0.842-0.504-1.348-1.684-2.021 -1.01-0.674-1.516-1.18-1.516-1.516"
          fill="#231f20"/>
</svg>