<svg
        xmlns="http://www.w3.org/2000/svg"
        height="61"
        viewBox="0 0 100 61"
        width="100">
    <path d="m57.62 12.53a2.37 2.37 0 0 1 .11 2.41c-.82 1.48-2.68 1.81-4.22 1.7a3.8 3.8 0 0 1 -2.84-1.43 2.6 2.6 0 0 1 0-2.74 4.17 4.17 0 0 1 4-1.48 4.74 4.74 0 0 1 2.95 1.54z"
          fill="#ed1b2f"/>
    <path d="m96.07 30.16c-1 .55-2.46 1.37-3.61.5a1.52 1.52 0 0 1 -.33-1.1l2.79-9.91c-2-.06-4.11-.11-6.19-.06l-.49 1.54a5.67 5.67 0 0 0 -1-1.1c-2.13-1.53-5.2-1-7.45-.11-3.39 1.65-6.07 4.77-6.13 8.71-1.8 1.59-4.15 3.37-6.73 2.37-1.26-.71-1.2-2.41-1-3.73.38-2.08 1-4.38 3.12-5.31 1.37-.6 2.68.27 3.67 1.15a25.91 25.91 0 0 0 .77-2.85c-2.8-1.81-7.12-1.26-9.86.33s-5.26 4.66-5 8.27a7.51 7.51 0 0 1 -1.7 1.21c-.93.43-2.3 1.2-3.29.27a2 2 0 0 1 -.27-1.15c.88-3.23 1.81-6.52 2.68-9.75-2.3 0-4.71-.06-6.9.06l-2.52 8.65a19.21 19.21 0 0 1 -6.08 2.68c-2.08.5-4.76.93-6.51-.49a2.34 2.34 0 0 1 -.5-2.08c3.67.33 7.67-.17 10-2.85a4.2 4.2 0 0 0 .6-3.78l-.54-.88c-2.85-2.57-7.89-2-11.23-.76a9.36 9.36 0 0 0 -6 8.21 6.12 6.12 0 0 0 3 4.88c5.42 3.17 12.16.6 17-2 0 0 .16.11.11.16a4.28 4.28 0 0 0 3.12 3.23c3.73.55 7.07-1 9.86-3.23 1.15 2.14 3.62 3.23 6.08 3.45v-.05c3.4.11 6.25-1.48 8.71-3.56a6.88 6.88 0 0 0 3.56 3.28 8 8 0 0 0 8-2 4.35 4.35 0 0 0 1.64 1.91c3.24 1.54 6.69-.38 9.15-2a6.59 6.59 0 0 0 -.53-2.11zm-59.42-8.92c.87-.33 2.4-.66 2.84.49a3.89 3.89 0 0 1 -1.58 3.78 5.9 5.9 0 0 1 -4 .71c.6-1.81 1.15-3.78 2.74-4.98zm49.12 7.56a4.32 4.32 0 0 1 -2.84 2.68 1.94 1.94 0 0 1 -1.81-.82c-.82-2.25.33-4.44 1-6.47a5 5 0 0 1 2.62-2.46 2.08 2.08 0 0 1 2.14.93c.76 2.19-.61 4.16-1.11 6.14z"
          fill="#ed1b2f"/>
    <path d="m97.5 36.19a133.72 133.72 0 0 1 -17 2.85 255.69 255.69 0 0 1 -34.23.22 118 118 0 0 1 -26.95-5.32c2.85-4.16 3.89-9.14 5.43-14a16.66 16.66 0 0 0 11.83-8.11c1.2-2.46 2.41-5.7 1-8.49a6.83 6.83 0 0 0 -1.87-2.04c-2.79-1.81-6.71-1.09-9.31.6-6.13 3.23-7.06 10.14-8.82 16a21.06 21.06 0 0 1 -5.31-.9 6.19 6.19 0 0 0 -.71 1.92 20.15 20.15 0 0 0 5.44 1.33 71.53 71.53 0 0 1 -3.13 9.91c-.38.66-.43 1.59-1.09 2.09-3.45-.82-7.94-2-11.23 0a3.65 3.65 0 0 0 -1.55 3.17 4.75 4.75 0 0 0 2.74 3.73c4.66 2.24 10.26.66 14.13-2.15 3 1 5.86 2.08 8.88 3 9.25 2.46 18.78 4.65 29 4.33v.05a174.9 174.9 0 0 0 43.1-5.86l.22-.16zm-68.41-30.34c.71-1.15 1.8-2.52 3.34-2.63.66 0 1.31 0 1.81.55 1.47 1.42 1 4 .32 5.69a13.49 13.49 0 0 1 -9.2 7.94 49.2 49.2 0 0 1 3.73-11.55zm-25.03 31.15c-.44-.28-1-.72-1-1.32a1.61 1.61 0 0 1 .76-1.26c2.19-1.15 4.71.06 6.85.66l.38.17c-1.74 1.54-4.47 2.75-6.99 1.75z"
          fill="#ed1b2f"/>
    <path d="m12.26 60.46v-7h2.17a2.51 2.51 0 0 1 1.68.49 1.78 1.78 0 0 1 .57 1.44 1.73 1.73 0 0 1 -.24.92 1.37 1.37 0 0 1 -.65.56 1.23 1.23 0 0 1 .73.55 1.79 1.79 0 0 1 .26 1 2 2 0 0 1 -.56 1.54 2.32 2.32 0 0 1 -1.63.53zm1.42-4.1h.74a.75.75 0 0 0 .83-.86 1 1 0 0 0 -.19-.69.83.83 0 0 0 -.63-.21h-.75zm0 1v1.88h.91a.73.73 0 0 0 .58-.24 1 1 0 0 0 .19-.67c0-.63-.22-1-.68-1z"
          fill="#ed1b2f"/>
    <path d="m22.31 60.46h-1.42v-7h1.42z"
          fill="#ed1b2f"/>
    <path d="m31.48 57.57a3.27 3.27 0 0 1 -.67 2.2 2.3 2.3 0 0 1 -1.86.78 2.36 2.36 0 0 1 -1.86-.77 3.23 3.23 0 0 1 -.68-2.18v-1.2a3.47 3.47 0 0 1 .67-2.27 2.29 2.29 0 0 1 1.86-.81 2.33 2.33 0 0 1 1.86.8 3.38 3.38 0 0 1 .68 2.25zm-1.42-1.18a2.93 2.93 0 0 0 -.27-1.39.92.92 0 0 0 -.85-.46.9.9 0 0 0 -.83.45 2.68 2.68 0 0 0 -.28 1.36v1.25a2.67 2.67 0 0 0 .27 1.36 1 1 0 0 0 .85.44.93.93 0 0 0 .83-.43 2.66 2.66 0 0 0 .28-1.33z"
          fill="#ed1b2f"/>
    <g fill="#231f20">
        <path d="m38.49 58.61a.87.87 0 0 0 -.22-.65 2.39 2.39 0 0 0 -.8-.46 3.78 3.78 0 0 1 -1.47-.94 1.87 1.87 0 0 1 -.46-1.27 1.78 1.78 0 0 1 .63-1.43 2.37 2.37 0 0 1 1.6-.54 2.45 2.45 0 0 1 1.16.27 2 2 0 0 1 .78.77 2.37 2.37 0 0 1 .27 1.14h-1.47a1.21 1.21 0 0 0 -.21-.76.73.73 0 0 0 -.6-.25.75.75 0 0 0 -.58.22.8.8 0 0 0 -.21.59.73.73 0 0 0 .23.52 2.73 2.73 0 0 0 .82.49 3.53 3.53 0 0 1 1.5.91 2 2 0 0 1 .47 1.38 1.8 1.8 0 0 1 -.59 1.4 2.29 2.29 0 0 1 -1.59.52 2.69 2.69 0 0 1 -1.24-.28 2 2 0 0 1 -.88-.8 2.35 2.35 0 0 1 -.32-1.23h1.43a1.32 1.32 0 0 0 .24.88 1 1 0 0 0 .77.28c.5.03.74-.24.74-.76z"/>
        <path d="m46 56.58 1.06-3.16h1.54l-1.87 4.48v2.56h-1.44v-2.56l-1.89-4.48h1.6z"/>
        <path d="m55.17 58.61a.87.87 0 0 0 -.17-.61 2.39 2.39 0 0 0 -.8-.46 3.78 3.78 0 0 1 -1.52-.94 1.87 1.87 0 0 1 -.46-1.27 1.78 1.78 0 0 1 .63-1.43 2.62 2.62 0 0 1 2.75-.27 2 2 0 0 1 .79.77 2.37 2.37 0 0 1 .27 1.14h-1.47a1.21 1.21 0 0 0 -.21-.76.86.86 0 0 0 -1.18 0 .8.8 0 0 0 -.21.59.73.73 0 0 0 .23.52 2.61 2.61 0 0 0 .82.49 3.53 3.53 0 0 1 1.5.91 2 2 0 0 1 .46 1.38 1.8 1.8 0 0 1 -.6 1.33 2.29 2.29 0 0 1 -1.59.52 2.66 2.66 0 0 1 -1.24-.28 2 2 0 0 1 -.88-.8 2.35 2.35 0 0 1 -.29-1.2h1.43a1.32 1.32 0 0 0 .24.88 1 1 0 0 0 .77.28c.48 0 .73-.27.73-.79z"/>
        <path d="m65.12 54.6h-1.74v5.86h-1.38v-5.86h-1.75v-1.18h4.87z"/>
        <path d="m72.6 57.41h-2.22v1.87h2.62v1.18h-4v-7h4v1.14h-2.62v1.66h2.22z"/>
        <path d="m78.82 53.42 1.33 5.09 1.33-5.09h1.85v7h-1.42v-1.87l.09-2.93-1.41 4.84h-1l-1.41-4.84.13 2.93v1.91h-1.31v-7z"/>
        <path d="m90.44 58.61a.91.91 0 0 0 -.22-.65 2.63 2.63 0 0 0 -.8-.46 3.76 3.76 0 0 1 -1.53-.94 1.92 1.92 0 0 1 -.46-1.27 1.78 1.78 0 0 1 .63-1.43 2.38 2.38 0 0 1 1.6-.54 2.42 2.42 0 0 1 1.16.27 1.93 1.93 0 0 1 .78.77 2.37 2.37 0 0 1 .27 1.14h-1.41a1.21 1.21 0 0 0 -.21-.76.87.87 0 0 0 -1.19 0 .8.8 0 0 0 -.21.59.73.73 0 0 0 .23.52 2.68 2.68 0 0 0 .83.49 3.56 3.56 0 0 1 1.49.91 2 2 0 0 1 .47 1.38 1.8 1.8 0 0 1 -.59 1.37 2.29 2.29 0 0 1 -1.59.52 2.69 2.69 0 0 1 -1.24-.28 2.06 2.06 0 0 1 -.88-.8 2.34 2.34 0 0 1 -.31-1.23h1.42a1.32 1.32 0 0 0 .24.88 1 1 0 0 0 .77.28c.5.03.75-.24.75-.76z"/>
    </g>
</svg>