<svg id="Livello_1" data-name="Livello 1" xmlns="http://www.w3.org/2000/svg" viewBox="0 0 514.1 156.66"><title>logo-milestone</title><path d="M71.2,136.78,144,67.63a12.72,12.72,0,0,1,17.34,0h0a11.22,11.22,0,0,1,0,16.46l-72.8,69.16a12.71,12.71,0,0,1-17.33,0h0a11.23,11.23,0,0,1,0-16.47Z" style="fill:#e7422a"/><path d="M48.66,115.38l72.8-69.16a12.71,12.71,0,0,1,17.33,0h0a11.23,11.23,0,0,1,0,16.47L66,131.84a12.72,12.72,0,0,1-17.34,0h0a11.22,11.22,0,0,1,0-16.46Z" style="fill:#c40f7f"/><path d="M26.12,94l72.8-69.15a12.72,12.72,0,0,1,17.34,0h0a11.22,11.22,0,0,1,0,16.46l-72.8,69.16a12.73,12.73,0,0,1-17.33,0h0a11.24,11.24,0,0,1,0-16.47Z" style="fill:#00a75d"/><path d="M3.59,72.57,76.39,3.41a12.71,12.71,0,0,1,17.33,0h0a11.23,11.23,0,0,1,0,16.47L20.93,89A12.72,12.72,0,0,1,3.59,89h0a11.22,11.22,0,0,1,0-16.46Z" style="fill:#189cd9"/><path d="M253.57,47.18c-.15-4.14-.3-9.14-.3-14.15h-.16c-1.07,4.4-2.5,9.3-3.83,13.33L245.1,59.79H239l-3.68-13.33c-1.12-4-2.29-8.93-3.11-13.43h-.1c-.21,4.65-.36,10-.62,14.25l-.61,13.07h-7.2l2.2-34.41h10.36l3.37,11.49c1.07,4,2.15,8.27,2.91,12.3h.16c1-4,2.14-8.53,3.26-12.36l3.68-11.43H259.8l1.89,34.41h-7.61Z" style="fill:#1e1e1c"/><path d="M279.31,25.94V60.35H271.5V25.94Z" style="fill:#1e1e1c"/><path d="M289.88,25.94h7.81V53.82h13.69v6.53h-21.5Z" style="fill:#1e1e1c"/><path d="M340.28,45.8H327.61V54h14.15v6.38h-22V25.94H341v6.38H327.61v7.15h12.67Z" style="fill:#1e1e1c"/><path d="M351.15,52.33a19.77,19.77,0,0,0,8.63,2.15c3.58,0,5.47-1.48,5.47-3.73s-1.64-3.37-5.77-4.85c-5.72-2-9.45-5.16-9.45-10.16,0-5.87,4.9-10.36,13-10.36a21.06,21.06,0,0,1,8.78,1.73l-1.73,6.28a16.43,16.43,0,0,0-7.2-1.63c-3.37,0-5,1.53-5,3.32,0,2.19,1.94,3.16,6.39,4.85,6.07,2.24,8.93,5.41,8.93,10.26,0,5.77-4.44,10.67-13.89,10.67a22.55,22.55,0,0,1-9.75-2.09Z" style="fill:#1e1e1c"/><path d="M388.94,32.47H379.7V25.94h26.45v6.53h-9.4V60.35h-7.81Z" style="fill:#1e1e1c"/><path d="M444.14,42.79c0,11.28-6.84,18.12-16.9,18.12-10.21,0-16.19-7.71-16.19-17.51,0-10.31,6.59-18,16.75-18C438.37,25.38,444.14,33.29,444.14,42.79Zm-24.87.46c0,6.74,3.17,11.48,8.38,11.48s8.27-5,8.27-11.69c0-6.18-3-11.49-8.32-11.49S419.27,36.56,419.27,43.25Z" style="fill:#1e1e1c"/><path d="M453.08,60.35V25.94h9.09l7.14,12.61a97.93,97.93,0,0,1,5.62,11.79h.15A127.78,127.78,0,0,1,474.42,36V25.94h7.15V60.35H473.4l-7.35-13.27a127.09,127.09,0,0,1-6-12.16l-.15,0c.2,4.55.31,9.4.31,15V60.35Z" style="fill:#1e1e1c"/><path d="M512.62,45.8H500V54H514.1v6.38h-22V25.94h21.24v6.38H500v7.15h12.67Z" style="fill:#1e1e1c"/><path d="M226.9,83.81v7h8v-7h2.17v16.61h-2.17V92.63h-8v7.79h-2.15V83.81Z" style="fill:#1e1e1c"/><path d="M282.69,92.63h-6.46v6h7.2v1.8h-9.34V83.81h9v1.8h-6.83v5.25h6.46Z" style="fill:#1e1e1c"/><path d="M319.22,83.81h2.15V98.62h7.1v1.8h-9.25Z" style="fill:#1e1e1c"/><path d="M363.94,84a24,24,0,0,1,4.11-.32,6.8,6.8,0,0,1,4.66,1.38,4.45,4.45,0,0,1,1.46,3.47,4.87,4.87,0,0,1-1.29,3.55,6.86,6.86,0,0,1-5.07,1.83,7.53,7.53,0,0,1-1.73-.15v6.65h-2.14Zm2.14,8a7.39,7.39,0,0,0,1.78.17c2.58,0,4.16-1.26,4.16-3.55s-1.55-3.25-3.92-3.25a8.92,8.92,0,0,0-2,.17Z" style="fill:#1e1e1c"/><path d="M412,83.81v16.61h-2.15V83.81Z" style="fill:#1e1e1c"/><path d="M449,100.42V83.81h2.35l5.32,8.4a46.33,46.33,0,0,1,3,5.4l.05,0c-.19-2.22-.24-4.24-.24-6.83v-7h2v16.61h-2.17L454,92a52.73,52.73,0,0,1-3.1-5.54l-.08,0c.13,2.1.18,4.09.18,6.85v7.1Z" style="fill:#1e1e1c"/><path d="M511.15,99.68a15.32,15.32,0,0,1-5.11.92,7.82,7.82,0,0,1-8.53-8.39c0-4.95,3.43-8.57,9-8.57a10.36,10.36,0,0,1,4.14.76l-.51,1.75a8.72,8.72,0,0,0-3.68-.71c-4,0-6.68,2.51-6.68,6.68s2.54,6.7,6.41,6.7a7.1,7.1,0,0,0,2.86-.44v-5h-3.38V91.7h5.48Z" style="fill:#1e1e1c"/><path d="M224.75,115.7a25.2,25.2,0,0,1,4.12-.32,6.82,6.82,0,0,1,4.66,1.38,4.48,4.48,0,0,1,1.45,3.48,4.9,4.9,0,0,1-1.28,3.55,6.91,6.91,0,0,1-5.08,1.82,7.49,7.49,0,0,1-1.72-.15v6.66h-2.15Zm2.15,8a7.36,7.36,0,0,0,1.77.17c2.59,0,4.17-1.25,4.17-3.55s-1.55-3.25-3.92-3.25a8.92,8.92,0,0,0-2,.17Z" style="fill:#1e1e1c"/><path d="M266.68,126.89,265,132.12h-2.22l5.64-16.62H271l5.67,16.62h-2.29l-1.77-5.23Zm5.45-1.67-1.63-4.79c-.37-1.08-.61-2.07-.86-3h-.05c-.24,1-.52,2-.84,3l-1.62,4.81Z" style="fill:#1e1e1c"/><path d="M308.21,117.33h-5.06V115.5h12.31v1.83h-5.08v14.79h-2.17Z" style="fill:#1e1e1c"/><path d="M347.24,115.5v16.62H345.1V115.5Z" style="fill:#1e1e1c"/><path d="M387.24,124.33h-6.46v6H388v1.8h-9.34V115.5h9v1.8h-6.83v5.25h6.46Z" style="fill:#1e1e1c"/><path d="M418.21,132.12V115.5h2.34l5.32,8.41a46.51,46.51,0,0,1,3,5.4l.05,0c-.2-2.22-.25-4.24-.25-6.83v-7h2v16.62h-2.17l-5.27-8.43a53,53,0,0,1-3.11-5.55l-.07,0c.12,2.09.17,4.09.17,6.85v7.1Z" style="fill:#1e1e1c"/><path d="M465.4,117.33h-5.06V115.5h12.31v1.83h-5.08v14.79H465.4Z" style="fill:#1e1e1c"/><path d="M502,129.5a7.49,7.49,0,0,0,3.84,1.09c2.2,0,3.48-1.16,3.48-2.84s-.89-2.44-3.13-3.3c-2.71-1-4.39-2.37-4.39-4.71,0-2.59,2.14-4.51,5.37-4.51a7.56,7.56,0,0,1,3.68.82l-.6,1.75a6.55,6.55,0,0,0-3.15-.79c-2.27,0-3.13,1.35-3.13,2.49,0,1.55,1,2.31,3.3,3.2,2.81,1.09,4.24,2.44,4.24,4.88s-1.9,4.78-5.82,4.78a8.51,8.51,0,0,1-4.24-1.06Z" style="fill:#1e1e1c"/></svg>