<svg
        xmlns="http://www.w3.org/2000/svg"
        xmlns:xlink="http://www.w3.org/1999/xlink"
        version="1.1"
        id="Ebene_1"
        x="0px"
        y="0px"
        viewBox="0 0 278.6 72.5"
        style="enable-background:new 0 0 278.6 72.5;"
        xml:space="preserve">
    <style type="text/css">
	.st0{clip-path:url(#SVGID_00000173147406335617769740000010425731598568852645_);fill:#1D1D1B;}
	.st1{fill:#1D1D1B;}
	.st2{clip-path:url(#SVGID_00000158712126404691990920000017728933162643593609_);fill:#1D1D1B;}
	.st3{clip-path:url(#SVGID_00000053522410470247201410000015713649906963368093_);fill:#1D1D1B;}
	.st4{clip-path:url(#SVGID_00000030482612287103034400000008701071126657045399_);fill:#009FE3;}
</style>
    <g>
	<defs><rect id="SVGID_1_" width="278.6" height="72.5"/></defs>
        <clipPath id="SVGID_00000073001603560002247410000004054235285792316838_"><use xlink:href="#SVGID_1_" style="overflow:visible;"/></clipPath>
        <path style="clip-path:url(#SVGID_00000073001603560002247410000004054235285792316838_);fill:#1D1D1B;"
              d="M96.7,68.3   c-0.5,0.1-0.9,0.1-1.4,0.1c-2.3,0-2.9-1-2.9-2.3v-6h-1.7v-1.4h1.7v-2.2l1.8-1.1v3.4h2.7v1.4h-2.7v5.1c0,0.9,0.1,1.9,1.5,1.9   c0.3,0,0.7-0.1,1-0.1V68.3z"/>
        <path style="clip-path:url(#SVGID_00000073001603560002247410000004054235285792316838_);fill:#1D1D1B;"
              d="M98.7,54.4h1.8v6.3h0   c0.3-0.8,1.1-2.3,3-2.3c2.2,0,2.6,2,2.6,3.2v6.6h-1.8V63c0-1.8,0-2.8-1.3-2.8c-1.5,0-2.5,2-2.5,3.9v4.1h-1.8V54.4z"/>
        <path style="clip-path:url(#SVGID_00000073001603560002247410000004054235285792316838_);fill:#1D1D1B;"
              d="M114,61.5   c0-0.6-0.4-1.7-1.7-1.7c-1.5,0-1.9,1.3-1.9,1.7H114z M115.5,68.1c-0.8,0.2-1.3,0.3-2.4,0.3c-2.9,0-4.7-1.7-4.7-5.5   c0-4.1,2.7-4.5,3.9-4.5c2.3,0,3.5,1.6,3.5,3.8v0.5h-5.5c0,1.8,0.9,4.3,3.5,4.3c0.8,0,1.4-0.2,1.8-0.3V68.1z"/>
        <path style="clip-path:url(#SVGID_00000073001603560002247410000004054235285792316838_);fill:#1D1D1B;"
              d="M128.2,63.9   c-1.4,0-2.9,0.6-2.9,1.9c0,0.7,0.5,1.2,1,1.2c1.2,0,2.2-1.4,2.2-2.6v-0.5H128.2z M128.6,67L128.6,67c-0.3,0.5-1,1.4-2.5,1.4   c-1.8,0-2.7-1.1-2.7-2.6c0-2.5,2.8-3.1,5.2-3.1v-1.7c-0.2-0.9-0.8-1.2-1.5-1.2c-1.1,0-1.5,0.7-1.5,1.5h-1.9c0-1.5,0.9-2.9,3.6-2.9   c3.1,0,3.1,2.3,3.1,3.2v6.6h-1.8V67z"/>
        <path style="clip-path:url(#SVGID_00000073001603560002247410000004054235285792316838_);fill:#1D1D1B;"
              d="M138.8,66.2L138.8,66.2   c-0.3,0.8-1.1,2.3-3.1,2.3c-2.2,0-2.6-2-2.6-3.2v-6.6h1.8v5.2c0,1.8,0,2.8,1.3,2.8c1.5,0,2.5-2,2.5-3.9v-4.1h1.8v9.6h-1.8V66.2z"/>
        <path style="clip-path:url(#SVGID_00000073001603560002247410000004054235285792316838_);fill:#1D1D1B;"
              d="M148.8,68.3   c-0.5,0.1-0.9,0.1-1.4,0.1c-2.3,0-2.9-1-2.9-2.3v-6h-1.7v-1.4h1.7v-2.2l1.8-1.1v3.4h2.7v1.4h-2.7v5.1c0,0.9,0.1,1.9,1.5,1.9   c0.3,0,0.7-0.1,1-0.1V68.3z"/>
        <path style="clip-path:url(#SVGID_00000073001603560002247410000004054235285792316838_);fill:#1D1D1B;"
              d="M154.3,67   c1.9,0,2.2-2.1,2.2-3.6c0-1.5-0.3-3.6-2.2-3.6c-2,0-2.2,2-2.2,3.6C152.1,65,152.3,67,154.3,67 M150.1,63.4c0-3.1,1.3-5,4.2-5   c2.9,0,4.2,1.9,4.2,5c0,3-1.3,5-4.2,5C151.4,68.4,150.1,66.4,150.1,63.4"/>
        <path style="clip-path:url(#SVGID_00000073001603560002247410000004054235285792316838_);fill:#1D1D1B;"
              d="M167.4,68.1   c-0.7,0.2-1.5,0.4-2.7,0.4c-3.7,0-4.7-3-4.7-5.3c0-2.7,1.2-4.7,4.1-4.7c2.7,0,3.4,1.8,3.4,3.3h-2.1c0-0.7-0.1-1.9-1.5-1.9   c-1.2,0-1.9,1.1-1.9,2.9c0,1.9,0.8,4.3,3.8,4.3c0.5,0,1,0,1.5-0.2V68.1z"/>
</g>
    <rect x="169.5" y="54.4" class="st1" width="1.8" height="13.9"/>
    <g>
	<defs>
		<rect id="SVGID_00000091705281570691979030000018151751383450542779_" width="278.6" height="72.5"/>
	</defs>
        <clipPath id="SVGID_00000008848799110613457740000004384197432363154567_">
		<use xlink:href="#SVGID_00000091705281570691979030000018151751383450542779_" style="overflow:visible;"/>
	</clipPath>
        <path style="clip-path:url(#SVGID_00000008848799110613457740000004384197432363154567_);fill:#1D1D1B;"
              d="M178.8,63.9   c-1.4,0-2.9,0.6-2.9,1.9c0,0.7,0.5,1.2,1,1.2c1.2,0,2.2-1.4,2.2-2.6v-0.5H178.8z M179.1,67L179.1,67c-0.3,0.5-1,1.4-2.5,1.4   c-1.8,0-2.7-1.1-2.7-2.6c0-2.5,2.8-3.1,5.2-3.1v-1.7c-0.2-0.9-0.8-1.2-1.5-1.2c-1.1,0-1.5,0.7-1.5,1.5h-1.9c0-1.5,0.9-2.9,3.6-2.9   c3.1,0,3.1,2.3,3.1,3.2v6.6h-1.8V67z"/>
</g>
    <polygon class="st1"
             points="182.4,58.7 184.4,58.7 186.9,65.6 187,65.6 189.2,58.7 191.2,58.7 187.9,68.2 186.1,68.2 "/>
    <g>
	<defs>
		<rect id="SVGID_00000102508976938299339930000011701387524456455581_" width="278.6" height="72.5"/>
	</defs>
        <clipPath id="SVGID_00000181079427253708707330000016248291754309922717_">
		<use xlink:href="#SVGID_00000102508976938299339930000011701387524456455581_" style="overflow:visible;"/>
	</clipPath>
        <path style="clip-path:url(#SVGID_00000181079427253708707330000016248291754309922717_);fill:#1D1D1B;"
              d="M197.6,61.5   c0-0.6-0.4-1.7-1.7-1.7c-1.5,0-1.9,1.3-1.9,1.7H197.6z M199.2,68.1c-0.8,0.2-1.3,0.3-2.4,0.3c-2.9,0-4.7-1.7-4.7-5.5   c0-4.1,2.7-4.5,3.9-4.5c2.3,0,3.5,1.6,3.5,3.8v0.5h-5.5c0,1.8,0.9,4.3,3.5,4.3c0.8,0,1.4-0.2,1.8-0.3V68.1z"/>
        <path style="clip-path:url(#SVGID_00000181079427253708707330000016248291754309922717_);fill:#1D1D1B;"
              d="M214.2,68.1   c-0.7,0.2-1.5,0.4-2.7,0.4c-3.7,0-4.7-3-4.7-5.3c0-2.7,1.2-4.7,4.1-4.7c2.7,0,3.4,1.8,3.4,3.3h-2.1c0-0.7-0.1-1.9-1.5-1.9   c-1.2,0-1.9,1.1-1.9,2.9c0,1.9,0.8,4.3,3.8,4.3c0.5,0,1,0,1.5-0.2V68.1z"/>
        <path style="clip-path:url(#SVGID_00000181079427253708707330000016248291754309922717_);fill:#1D1D1B;"
              d="M219.7,67   c1.9,0,2.2-2.1,2.2-3.6c0-1.5-0.3-3.6-2.2-3.6c-2,0-2.2,2-2.2,3.6C217.5,65,217.7,67,219.7,67 M215.5,63.4c0-3.1,1.3-5,4.2-5   c2.9,0,4.2,1.9,4.2,5c0,3-1.3,5-4.2,5C216.8,68.4,215.5,66.4,215.5,63.4"/>
        <path style="clip-path:url(#SVGID_00000181079427253708707330000016248291754309922717_);fill:#1D1D1B;"
              d="M226.2,58.7h1.8v1.9h0   c0.3-0.8,1-2.1,2.7-2.1c1.7,0,2.3,1.2,2.4,2h0c0.3-0.8,1.1-2,2.7-2c2.2,0,2.6,2,2.6,3.2v6.6h-1.8V63c0-1.8,0-2.8-1.3-2.8   c-1.1,0-2.1,1.8-2.1,3.4v4.6h-1.8V63c0-1.8,0-2.8-1.3-2.8c-1.3,0-2.2,2-2.2,3.9v4.1h-1.8V58.7z"/>
        <path style="clip-path:url(#SVGID_00000181079427253708707330000016248291754309922717_);fill:#1D1D1B;"
              d="M245.4,67   c1.4,0,1.9-1.6,1.9-3.6c0-1.4-0.2-3.6-1.9-3.6c-1.5,0-2,2-2,3.6C243.3,65.1,243.7,67,245.4,67 M241.5,58.7h1.8v1.4h0   c0.2-0.5,1.1-1.7,2.7-1.7c2.3,0,3.3,2.1,3.3,4.8c0,3.2-1.2,5.2-3.4,5.2c-1.6,0-2.3-1-2.6-1.5h0v5.6h-1.8V58.7z"/>
        <path style="clip-path:url(#SVGID_00000181079427253708707330000016248291754309922717_);fill:#1D1D1B;"
              d="M255.7,63.9   c-1.4,0-2.9,0.6-2.9,1.9c0,0.7,0.5,1.2,1,1.2c1.2,0,2.2-1.4,2.2-2.6v-0.5H255.7z M256.1,67L256.1,67c-0.3,0.5-1,1.4-2.5,1.4   c-1.8,0-2.7-1.1-2.7-2.6c0-2.5,2.8-3.1,5.2-3.1v-1.7c-0.2-0.9-0.8-1.2-1.5-1.2c-1.1,0-1.5,0.7-1.5,1.5h-1.9c0-1.5,0.9-2.9,3.6-2.9   c3.1,0,3.1,2.3,3.1,3.2v6.6h-1.8V67z"/>
        <path style="clip-path:url(#SVGID_00000181079427253708707330000016248291754309922717_);fill:#1D1D1B;"
              d="M260.8,58.7h1.8v2h0   c0.3-0.8,1.1-2.3,3-2.3c2.2,0,2.6,2,2.6,3.2v6.6h-1.8V63c0-1.8,0-2.8-1.3-2.8c-1.5,0-2.5,2-2.5,3.9v4.1h-1.8V58.7z"/>
</g>
    <polygon class="st1"
             points="276.6,58.7 274.3,65.6 274.3,65.6 271.8,58.7 269.8,58.7 273.4,68.3 272.1,72.3 273.8,72.3 278.6,58.7   "/>
    <g>
	<defs>
		<rect id="SVGID_00000028310788298498066550000002790171254956554650_" width="278.6" height="72.5"/>
	</defs>
        <clipPath id="SVGID_00000175294158364340337500000006609574016586159748_">
		<use xlink:href="#SVGID_00000028310788298498066550000002790171254956554650_" style="overflow:visible;"/>
	</clipPath>
        <path style="clip-path:url(#SVGID_00000175294158364340337500000006609574016586159748_);fill:#009FE3;"
              d="M48.6,9.6   c-3.1-1-7.2-1.8-13-1.8c-6.3,0-11.4,0.6-11.4,3.8c0,5.6,23,3.5,23,15.5C47.2,38,32,40.8,18.3,40.8c-6.1,0-13.1-1-18.3-2l3.7-8   c3.1,1.4,9.4,2.3,14.6,2.3c4.9,0,12.6-0.6,12.6-4.7c0-6.3-23-4-23-15.1C8,3,21.4,0,34.3,0c7.3,0,14.1,0.5,18.1,1.7L48.6,9.6z"/>
        <path style="clip-path:url(#SVGID_00000175294158364340337500000006609574016586159748_);fill:#009FE3;"
              d="M70.3,44   c-4.5,5.2-9.5,8.6-19.2,8.6c-5.4,0-9.1-0.6-11.9-1.2l3.2-7.4c1.9,0.4,4.1,0.8,6.9,0.8c4.3,0,7.1-1.9,8.9-4.9l-9.7-29.3h15.5l4,18.6   h0.2l15-18.6h16.2L70.3,44z"/>
        <path style="clip-path:url(#SVGID_00000175294158364340337500000006609574016586159748_);fill:#009FE3;"
              d="M94.2,32.3   c3.9,1.1,8.1,1.7,12.4,1.7c2.5,0,8.6-0.2,8.6-2.6c0-4.2-18.2-2-18.2-11.7c0-6.9,12-9.7,22.3-9.7c3.8,0,9.2,0.6,14.7,1.8l-3.2,6.7   c-3.9-1.1-7.6-1.6-12.2-1.6c-3.4,0-7.1,0.5-7.1,2.5c0,3.3,19.1,3,19.1,10.4c0,7.3-9.2,10.9-20.7,11c-6.7,0.1-13.8-0.6-18.6-1.5   L94.2,32.3z"/>
        <path style="clip-path:url(#SVGID_00000175294158364340337500000006609574016586159748_);fill:#009FE3;"
              d="M136.9,10.7h8.7   l2.1-6.3l16.1-2.9l-3.1,9.2h10.5l-1.9,7.1h-11.1l-2.6,8.2c-0.7,2.2-1.3,3.7-1.3,5.1c0,2,1.9,3.3,5,3.3c1.6,0,3.3-0.5,4.9-0.8   l-1.7,6.7c-3.2,0.3-6.4,0.6-9.5,0.6c-7.8,0-14-2.5-14-8.7c0-1.5,0.3-2.9,1.4-6l2.6-8.2h-8.1L136.9,10.7z"/>
        <path style="clip-path:url(#SVGID_00000175294158364340337500000006609574016586159748_);fill:#009FE3;"
              d="M202,22.6   c0-3.2-1.9-5.8-7.5-5.8c-6.6,0-10.2,3-11.3,5.8H202z M206.1,39.1c-5.3,1.1-11,1.6-15.4,1.6c-14.7,0-22.7-6-22.7-13.4   c0-6.8,6.8-17.3,26.4-17.3c11.6,0,20.3,3.9,20.3,12.8c0,1.2-0.5,3.8-1.1,5.5h-31.3c0.2,3.2,2.5,5.6,11.9,5.6c4.1,0,9.6-0.7,13.8-2   L206.1,39.1z"/>
        <path style="clip-path:url(#SVGID_00000175294158364340337500000006609574016586159748_);fill:#009FE3;"
              d="M250.5,39.6   c-3.1,0.7-7.1,1.1-13,1.1c-12.9,0-20.8-6-20.8-13.4c0-9.7,11.5-17.3,28.5-17.3c3.7,0,9.4,0.7,13.9,2l-3.3,7.1   c-3.1-1-6.4-1.6-9.8-1.6c-7.9,0-13.5,3.4-13.5,9.5c0,3.5,4.1,6.4,10.5,6.4c3.8,0,6.5-0.4,9.8-1.3L250.5,39.6z"/>
</g>
</svg>