<svg width="128" height="40" viewBox="0 0 128 40" fill="none" xmlns="http://www.w3.org/2000/svg">
    <path d="M30.4016 0.300781L10.1016 30.5008L33.4016 2.20078L30.4016 0.300781Z" fill="#717071"/>
    <path d="M34.7031 2.90039L14.2031 33.7004L37.7031 4.70039L34.7031 2.90039Z" fill="#717071"/>
    <path d="M39.2 5.60156L18 37.0016L42 7.30156L39.2 5.60156Z" fill="#717071"/>
    <path d="M22.4062 39.5012L46.5063 10.0012L43.6062 8.20117L22.4062 39.5012Z" fill="#717071"/>
    <path d="M3.20312 8.20117L0.203125 10.0012L24.3031 39.5012L3.20312 8.20117Z" fill="#004097"/>
    <path d="M7.50313 5.60156L4.70312 7.30156L28.8031 37.0016L7.50313 5.60156Z" fill="#004097"/>
    <path d="M12 2.90039L9 4.70039L32.5 33.7004L12 2.90039Z" fill="#004097"/>
    <path d="M16.3047 0.300781L13.3047 2.20078L36.6047 30.5008L16.3047 0.300781Z" fill="#004097"/>
    <path d="M58.7062 23.3004L52.4062 9.90039H55.8062L60.2062 19.9004L64.6062 9.90039H67.8063L61.8062 23.3004H58.7062Z"
          fill="#717071"/>
    <path d="M67.2094 13.5H72.9094C74.3094 13.5 75.4094 13.8 76.2094 14.4C76.9094 15 77.3094 15.9 77.3094 17.1V23.2H69.8094C68.8094 23.2 67.9094 23 67.4094 22.5C66.8094 22 66.6094 21.3 66.6094 20.4C66.6094 19.3 66.9094 18.5 67.6094 18C68.2094 17.5 69.3094 17.3 70.8094 17.3H74.5094V17.1C74.5094 16.5 74.3094 16.1 73.9094 15.9C73.5094 15.7 72.9094 15.5 71.9094 15.5H67.3094V13.5H67.2094ZM70.9094 21.3H74.4094V19.3H71.1094C70.4094 19.3 70.0094 19.4 69.8094 19.5C69.6094 19.7 69.4094 19.9 69.4094 20.4C69.4094 20.7 69.5094 21 69.7094 21.1C69.9094 21.2 70.3094 21.3 70.9094 21.3Z"
          fill="#717071"/>
    <path d="M79.0078 21.2L85.2078 15.6H79.0078V13.5H88.8078V15.6L82.6078 21.2H88.8078V23.3H79.0078V21.2Z"
          fill="#717071"/>
    <path d="M95.1047 21.1004H97.3047V13.5004H100.105V23.0004C100.105 24.3004 99.8047 25.3004 99.1047 25.9004C98.4047 26.5004 97.5047 26.8004 96.1047 26.8004H90.6047V24.8004H95.6047C96.1047 24.8004 96.5047 24.7004 96.8047 24.4004C97.1047 24.2004 97.2047 23.8004 97.2047 23.4004V23.2004H94.7047C93.1047 23.2004 92.0047 22.9004 91.3047 22.3004C90.6047 21.7004 90.3047 20.8004 90.3047 19.4004V13.4004H93.1047V19.2004C93.1047 19.9004 93.2047 20.4004 93.5047 20.7004C93.8047 21.0004 94.3047 21.1004 95.1047 21.1004Z"
          fill="#717071"/>
    <path d="M102.203 13.5H112.903C114.403 13.5 115.603 13.8 116.203 14.3C116.903 14.9 117.203 15.8 117.203 17V23.2H114.403V17.3C114.403 16.6 114.303 16.1 114.003 15.9C113.803 15.7 113.303 15.6 112.603 15.6H111.003V23.2H108.203V15.6H105.003V23.2H102.203V13.5Z"
          fill="#717071"/>
    <path d="M124.003 23.3C122.303 23.3 120.903 22.9 120.003 22.1C119.103 21.3 118.703 20.1 118.703 18.4C118.703 16.8 119.103 15.6 120.003 14.7C120.903 13.9 122.203 13.5 124.003 13.5H128.103V15.5H124.403C123.403 15.5 122.703 15.6 122.403 15.9C122.103 16.2 121.903 16.6 121.803 17.3H128.103V19.3H121.803C121.803 20 122.003 20.5 122.303 20.7C122.603 21 123.303 21.1 124.403 21.1H128.103V23.1H124.003V23.3Z"
          fill="#717071"/>
</svg>
