<?xml version="1.0" standalone="no"?>
<!DOCTYPE svg PUBLIC "-//W3C//DTD SVG 20010904//EN"
 "http://www.w3.org/TR/2001/REC-SVG-20010904/DTD/svg10.dtd">
<svg version="1.0" xmlns="http://www.w3.org/2000/svg"
 width="260.000000pt" height="260.000000pt" viewBox="0 0 260.000000 260.000000"
 preserveAspectRatio="xMidYMid meet">
<metadata>
Created by potrace 1.14, written by Peter Selinger 2001-2017
</metadata>
<g transform="translate(0.000000,260.000000) scale(0.100000,-0.100000)"
fill="#000000" stroke="none">
<path d="M1076 2584 c-539 -97 -967 -528 -1061 -1068 -19 -114 -19 -328 0
-442 91 -520 479 -930 1000 -1055 116 -28 464 -28 580 0 498 120 866 488 986
986 28 116 28 464 0 580 -23 94 -64 211 -98 279 l-24 48 20 22 c11 11 32 48
48 81 25 53 28 72 28 155 0 83 -4 103 -28 155 -37 79 -114 156 -191 192 -53
24 -73 28 -156 28 -83 0 -102 -3 -155 -28 -33 -16 -69 -37 -81 -48 -20 -19
-21 -19 -95 15 -97 44 -220 83 -326 101 -108 19 -340 18 -447 -1z m360 -244
c71 -5 152 -14 180 -21 55 -14 155 -60 171 -81 6 -7 13 -47 15 -89 6 -92 41
-176 100 -235 38 -40 40 -44 33 -85 -12 -70 -48 -160 -89 -222 -48 -72 -150
-166 -221 -203 -53 -28 -68 -44 -42 -44 30 0 122 -54 171 -99 148 -141 163
-366 39 -602 -94 -182 -264 -318 -453 -364 -68 -17 -394 -34 -659 -35 l-144 0
-52 40 c-116 90 -249 255 -328 406 l-46 90 121 684 c137 782 109 693 256 811
l73 59 372 0 c205 -1 431 -5 503 -10z"/>
<path d="M731 1948 c-21 -106 -71 -397 -71 -413 0 -15 30 -16 313 -13 353 4
369 7 453 81 64 56 94 123 94 208 0 80 -23 121 -90 159 l-45 25 -322 3 -321 3
-11 -53z"/>
<path d="M590 1161 c0 -6 -20 -125 -45 -264 -25 -140 -45 -261 -45 -270 0 -16
27 -17 315 -17 324 0 387 6 458 42 105 53 170 160 171 283 0 79 -17 120 -68
167 -60 55 -99 61 -458 66 -235 3 -328 1 -328 -7z"/>
</g>
</svg>
