<svg
        xmlns="http://www.w3.org/2000/svg"
        width="140"
        height="75"
        viewBox="0 0 140 75">
    <defs>
        <clipPath id="b">
            <rect width="140" height="75"/>
        </clipPath>
    </defs>
    <g id="a" clip-path="url(#b)">
        <path d="M94.245,108.753l4.6-21.978h7.527a26.162,26.162,0,0,1,3.422.152,7.309,7.309,0,0,1,2.749.9,4.474,4.474,0,0,1,1.714,1.8,5.343,5.343,0,0,1,.584,2.487,5.1,5.1,0,0,1-1.017,3.173,6.2,6.2,0,0,1-3.147,2.03,4.924,4.924,0,0,1,2.633,1.658,4.221,4.221,0,0,1,.949,2.692,6.9,6.9,0,0,1-1.126,3.755,6.312,6.312,0,0,1-3.106,2.554,15.21,15.21,0,0,1-5.416.778Zm7.26-13.107h3.457a12.132,12.132,0,0,0,3.354-.326,2.838,2.838,0,0,0,1.534-1.076,2.8,2.8,0,0,0,.515-1.6,1.976,1.976,0,0,0-.484-1.374,2.422,2.422,0,0,0-1.371-.72,18.887,18.887,0,0,0-2.4-.09h-3.52Zm-2.007,9.58h4.372a12.448,12.448,0,0,0,3.693-.355,3.142,3.142,0,0,0,1.5-1.16,2.946,2.946,0,0,0,.56-1.708,2.308,2.308,0,0,0-.806-1.806,4.1,4.1,0,0,0-2.7-.712H100.7Zm20.077-18.451h4.3l-.815,3.9h-4.3Zm-1.269,6.048h4.3l-3.335,15.93h-4.3Zm4.371,9.32a9.875,9.875,0,0,1,2.493-7.077,8.591,8.591,0,0,1,6.551-2.643,7.492,7.492,0,0,1,5.495,1.95,7.02,7.02,0,0,1,1.977,5.242,9.879,9.879,0,0,1-2.471,6.711,8.354,8.354,0,0,1-6.619,2.827,8.463,8.463,0,0,1-3.982-.9,5.828,5.828,0,0,1-2.587-2.555A7.616,7.616,0,0,1,122.677,102.143Zm12.248-3.092a3.437,3.437,0,0,0-.886-2.473,3.037,3.037,0,0,0-2.3-.931,3.825,3.825,0,0,0-2.467.871A5.578,5.578,0,0,0,127.6,99.04a9.059,9.059,0,0,0-.6,3.049,3.907,3.907,0,0,0,.924,2.738,3.035,3.035,0,0,0,2.334,1.014,3.631,3.631,0,0,0,2.959-1.529A8.229,8.229,0,0,0,134.925,99.051Zm27.987-12.276h4.3l-.817,3.9h-4.3Zm-1.267,6.048h4.3l-3.339,15.93h-4.3Zm3.788,15.93h4.3l1.348-6.538A17.308,17.308,0,0,1,172.2,98.4a5.581,5.581,0,0,1,1.83-2.11,3.867,3.867,0,0,1,2.123-.8,1.865,1.865,0,0,1,1.371.482,1.791,1.791,0,0,1,.493,1.333q-.023.4-.447,2.418l-1.952,9.024h4.294l1.935-8.995a18.587,18.587,0,0,0,.552-3.167,4.1,4.1,0,0,0-1.139-3.025,4.2,4.2,0,0,0-3.118-1.143,7.077,7.077,0,0,0-2.812.575,11.279,11.279,0,0,0-2.875,1.915l.411-2.09h-4.105Zm32.739-6.63H187.357c-.009.171-.012.305-.012.394a3.634,3.634,0,0,0,.918,2.587,2.933,2.933,0,0,0,2.229.981,3.712,3.712,0,0,0,3.372-2.215l3.84.648a8.084,8.084,0,0,1-3.013,3.474,7.891,7.891,0,0,1-4.231,1.161,7.046,7.046,0,0,1-5.232-2.037,7.351,7.351,0,0,1-2.013-5.395,9.83,9.83,0,0,1,1.815-5.838,8.172,8.172,0,0,1,7.067-3.461,6.124,6.124,0,0,1,4.652,1.816,7.058,7.058,0,0,1,1.721,5.073A11.921,11.921,0,0,1,198.172,102.123Zm-3.63-2.608c.011-.194.015-.339.015-.439a3.933,3.933,0,0,0-.8-2.687,2.7,2.7,0,0,0-2.128-.894,3.373,3.373,0,0,0-2.4,1.015,5.484,5.484,0,0,0-1.433,3Zm-47.677-19.46,4.545-.41c.049,0-6.8,27.862-6.8,30.521-1.3,7.724,3.106,11.687,13.148,12.261.845,0,1.565.005,2.18.009,27.683-2.241,47.88-11.522,47.88-23.613,0-11.355-20.311-20.358-46.2-23.081l.733-3.438c26.858,3.135,48.795,13.428,48.795,26.519,0,12.479-18.14,22.22-43.1,25.82,0-.017-2.324.283-4.294.5-16.066,1.829-26.516-3.009-23.179-18.235Zm7.035,35.966c-3.144-2-2.019-5.93-.716-11.928l6.562-31.9c-4.449-.389-8.665-.7-13.389-.7-35.414,0-64.784,11.453-64.784,27.331s29.369,27.327,64.784,27.327h1.282c-1.546-.228-1.591-.406-3.333-1.332a15.99,15.99,0,0,1-2.6-1.971C108.921,122.175,84.9,112.375,84.9,98.825c0-13.758,26.671-23.752,61.337-23.752,3.131,0,5.4.249,8.384.407l-7.2,33.31c-1.07,6.1,2.061,10.159,7.834,11.356a25.915,25.915,0,0,0,4.3.254c2.715.053,7.851-.521,7.836-.521l.731-2.941C161.576,117.768,156.572,117.726,153.9,116.021Z"
              transform="translate(-76.572 -70.295)" fill="#008687" fill-rule="evenodd"/>
        <g transform="translate(-110.089 -89.061)">
            <path d="M125.783,150.769v.792H122.03v6.878h-.941v-7.67Z" transform="translate(0 0.89)" fill="#008687"
                  fill-rule="evenodd"/>
            <path d="M129.033,150.679a2.4,2.4,0,0,0-2.378,1.707h-.044V150.8h-.9l.061,1.478v9.465h.943v-3.916l-.03-.73h.043a2.593,2.593,0,0,0,2.3,1.494c1.7,0,3.3-1.153,3.3-3.963C132.336,152.205,131.155,150.679,129.033,150.679Zm0,7.117c-.9,0-2.317-.732-2.317-3.169,0-2.407,1.42-3.154,2.317-3.154s2.317.746,2.317,3.154C131.35,157.065,129.929,157.8,129.033,157.8Z"
                  transform="translate(1.605 0.859)" fill="#008687" fill-rule="evenodd"/>
            <path d="M131.988,160.757a5.2,5.2,0,0,0,.656.133c.659,0,.974-.4,1.227-1.2l.329-1-2.764-7.926h1l2.018,5.847.238.763h.015l.24-.748,1.944-5.862h.971l-3.274,9.4c-.314.881-.793,1.555-1.854,1.555a3.46,3.46,0,0,1-.838-.136Z"
                  transform="translate(3.592 0.891)" fill="#008687" fill-rule="evenodd"/>
            <path d="M143.412,150.769v7.67h-.942v-6.878h-4.007v6.878h-.943v-7.67Z" transform="translate(5.705 0.89)"
                  fill="#008687" fill-rule="evenodd"/>
            <path d="M149.644,150.769v7.67H148.7v-6.878h-4.007v6.878h-.941v-7.67Z" transform="translate(7.869 0.89)"
                  fill="#008687" fill-rule="evenodd"/>
            <path d="M155.447,158.47l-.046-1.676v-3.258c0-1.047-.225-2.857-2.705-2.857a5.511,5.511,0,0,0-2.289.481v.895a4.8,4.8,0,0,1,2.289-.581c1.747,0,1.762,1.51,1.762,2.046v.268h-.493c-1.555,0-4.395.121-4.395,2.632a2.212,2.212,0,0,0,2.513,2.17,2.649,2.649,0,0,0,2.5-1.421h.03v1.3Zm-.989-3.334c0,1.675-.926,2.661-2.391,2.661a1.436,1.436,0,0,1-1.51-1.433c0-1.54,1.644-1.782,3.05-1.782h.851Z"
                  transform="translate(9.889 0.859)" fill="#008687" fill-rule="evenodd"/>
            <path d="M159.122,150.769v3.379h.045l3.513-3.379h1.212l-3.767,3.573,4.171,4.1h-1.33l-3.8-3.8h-.045v3.8h-.941v-7.67Z"
                  transform="translate(12.878 0.89)" fill="#008687" fill-rule="evenodd"/>
            <path d="M166.669,150.679c-2.141,0-3.544,1.571-3.544,3.965,0,2.376,1.421,3.947,3.544,3.947s3.543-1.571,3.543-3.947C170.213,152.25,168.807,150.679,166.669,150.679Zm0,7.117c-1.8,0-2.558-1.673-2.558-3.152,0-1.5.763-3.17,2.558-3.17s2.557,1.673,2.557,3.17C169.226,156.123,168.463,157.8,166.669,157.8Z"
                  transform="translate(14.594 0.859)" fill="#008687" fill-rule="evenodd"/>
            <path d="M173.689,156.436l.3,1.029h.061l.434-1.029,2.484-5.668h1.179v7.67H177.2v-5.457l.075-1.242h-.044l-.418,1.242-2.393,5.457h-.806l-2.333-5.457-.464-1.242h-.045l.074,1.242v5.457h-.939v-7.67h1.329Z"
                  transform="translate(16.949 0.89)" fill="#008687" fill-rule="evenodd"/>
            <path d="M183.779,150.769v7.67h-.943v-6.878h-4.007v6.878h-.942v-7.67Z" transform="translate(19.719 0.89)"
                  fill="#008687" fill-rule="evenodd"/>
            <path d="M189.582,158.47l-.046-1.676v-3.258c0-1.047-.224-2.857-2.705-2.857a5.5,5.5,0,0,0-2.288.481v.895a4.8,4.8,0,0,1,2.288-.581c1.749,0,1.762,1.51,1.762,2.046v.268H188.1c-1.555,0-4.393.121-4.393,2.632a2.21,2.21,0,0,0,2.511,2.17,2.646,2.646,0,0,0,2.5-1.421h.032v1.3Zm-.989-3.334c0,1.675-.926,2.661-2.391,2.661a1.436,1.436,0,0,1-1.512-1.433c0-1.54,1.646-1.782,3.053-1.782h.85Z"
                  transform="translate(21.74 0.859)" fill="#008687" fill-rule="evenodd"/>
            <path d="M190.835,150.769v3.289h4.156v-3.289h.943v7.67h-.943V154.85h-4.156v3.589h-.941v-7.67Z"
                  transform="translate(23.888 0.89)" fill="#008687" fill-rule="evenodd"/>
            <path d="M197.18,150.769v5.62l-.016.808h.046l.508-.821,3.961-5.607h1.047v7.67h-.941v-5.62l.014-.808h-.046l-.506.808-3.963,5.62h-1.047v-7.67Z"
                  transform="translate(26.091 0.89)" fill="#008687" fill-rule="evenodd"/>
            <path d="M203.855,150.769v5.62l-.013.808h.045l.508-.821,3.963-5.607H209.4v7.67h-.941v-5.62l.015-.808h-.046l-.508.808-3.963,5.62h-1.045v-7.67Z"
                  transform="translate(28.409 0.89)" fill="#008687" fill-rule="evenodd"/>
            <path d="M204.152,148.2a2.188,2.188,0,0,0,3.466,0l.45.527a2.63,2.63,0,0,1-4.365,0Z"
                  transform="translate(28.683)" fill="#008687" fill-rule="evenodd"/>
        </g>
    </g>
</svg>