<svg width="117" height="49" viewBox="0 0 117 49" fill="none" xmlns="http://www.w3.org/2000/svg">
<path fill-rule="evenodd" clip-rule="evenodd" d="M11.4421 33.4024L15.5965 13.6997H22.3931C23.4246 13.6787 24.458 13.7241 25.4825 13.836C26.3556 13.9373 27.2005 14.2117 27.9645 14.6434C28.6229 15.0261 29.1598 15.5853 29.5118 16.2564C29.8674 16.9468 30.047 17.7122 30.0399 18.4864C30.0628 19.5105 29.7407 20.5119 29.1211 21.3315C28.3852 22.2141 27.3924 22.8502 26.2799 23.1508C27.2129 23.378 28.0473 23.8988 28.6581 24.6363C29.2179 25.3179 29.5207 26.1707 29.5154 27.0498C29.5119 28.2452 29.158 29.4143 28.4979 30.4157C27.8395 31.4625 26.8538 32.2665 25.6937 32.7051C24.12 33.2294 22.4617 33.4653 20.8035 33.4024H11.4421ZM17.9976 21.6514H21.1186C22.1361 21.6951 23.1571 21.5954 24.1464 21.3595C24.7044 21.2022 25.1938 20.8632 25.5318 20.3948C25.831 19.9754 25.993 19.4738 25.9965 18.96C26.0141 18.5091 25.8574 18.0687 25.5599 17.7279C25.229 17.3837 24.7942 17.1565 24.3224 17.0831C23.6024 17.0114 22.8789 16.9834 22.1555 17.0027H18.9763L17.9976 21.6514ZM16.1844 30.2392H20.1328C21.2542 30.2986 22.379 30.192 23.4669 29.9211C24.0161 29.7219 24.4879 29.3584 24.8206 28.8813C25.1462 28.4357 25.3223 27.9009 25.3258 27.3504C25.3399 26.73 25.0723 26.1358 24.5988 25.7321C23.8859 25.2427 23.0233 25.0173 22.1607 25.0942H17.2688L16.1844 30.2392ZM34.314 13.6997H38.1973L37.4615 17.1967H33.5782L34.314 13.6997ZM33.168 19.1208H37.0513L34.0394 33.4024H30.1561L33.168 19.1208ZM37.1147 27.4762C36.995 25.1501 37.8047 22.8695 39.3661 21.1323C40.9047 19.5367 43.0593 18.6734 45.2808 18.7625C47.1045 18.6559 48.8948 19.2868 50.2432 20.5102C51.4701 21.7632 52.1162 23.4654 52.0282 25.2095C52.0669 27.422 51.2712 29.5681 49.7961 31.2266C48.291 32.9236 46.0941 33.8551 43.8198 33.7607C42.5735 33.7869 41.3377 33.5108 40.2234 32.9533C39.2183 32.4569 38.3997 31.6548 37.8875 30.6621C37.3752 29.6782 37.1094 28.586 37.1147 27.4762ZM48.1748 24.7045C48.2135 23.8901 47.9266 23.0914 47.3756 22.4867C46.8352 21.9275 46.08 21.6234 45.2984 21.6514C44.4869 21.6444 43.6983 21.9205 43.0716 22.4326C42.3675 23.0337 41.8464 23.8167 41.5613 24.694C41.2233 25.5678 41.0402 26.4923 41.0191 27.4273C40.9716 28.3221 41.2691 29.1994 41.8535 29.8827C42.3886 30.4769 43.1579 30.8107 43.9606 30.7915C45.0221 30.7915 46.0184 30.2794 46.6328 29.4213C47.6802 28.0722 48.2241 26.4067 48.1748 24.7045ZM73.4478 13.6997H77.3311L76.5935 17.1967H72.7102L73.4478 13.6997ZM72.3036 19.1208H76.1869L73.1714 33.4024H69.2882L72.3036 19.1208ZM75.7239 33.4024H79.6072L80.8236 27.5409C81.0278 26.3665 81.3657 25.2183 81.834 24.1208C82.2142 23.3605 82.7828 22.7104 83.4869 22.2298C84.0397 21.8052 84.7068 21.5552 85.4039 21.5133C85.8581 21.4853 86.3052 21.6409 86.6414 21.945C86.9495 22.2648 87.1114 22.6982 87.0868 23.1403C87.0727 23.3798 86.9389 24.1015 86.6837 25.3074L84.9216 33.3972H88.7978L90.5458 25.3336C90.794 24.4039 90.9613 23.4532 91.044 22.4937C91.0898 21.4888 90.7184 20.5084 90.016 19.7814C89.259 19.0701 88.2416 18.6996 87.2012 18.7573C86.3281 18.7555 85.4638 18.9303 84.6628 19.2728C83.714 19.7098 82.8374 20.2882 82.0664 20.989L82.4378 19.1156H78.7288L75.7239 33.4024ZM105.287 27.4587H95.5205C95.5117 27.6125 95.5099 27.7314 95.5099 27.8118C95.4695 28.6628 95.767 29.4947 96.3391 30.1309C96.8496 30.7006 97.5836 31.0204 98.3511 31.0099C99.6714 31.0012 100.863 30.2235 101.396 29.0246L104.864 29.6048C104.28 30.8823 103.335 31.9641 102.143 32.7191C100.993 33.4181 99.6696 33.7782 98.323 33.7607C96.5609 33.8288 94.8498 33.1665 93.5982 31.9344C92.3555 30.6342 91.6988 28.8883 91.7798 27.0987C91.7517 25.2253 92.3255 23.392 93.4187 21.8646C94.871 19.8146 97.2791 18.6437 99.7999 18.7625C101.37 18.6874 102.896 19.2798 104 20.3913C105.1 21.6461 105.658 23.2802 105.554 24.9387C105.567 25.7845 105.477 26.6321 105.287 27.4587ZM102.009 25.1204C102.02 24.9456 102.023 24.8163 102.023 24.7272C102.088 23.8639 101.831 23.0058 101.301 22.319C100.814 21.7789 100.11 21.4853 99.3792 21.5168C98.5624 21.5203 97.7825 21.8471 97.2122 22.4273C96.5116 23.1701 96.0592 24.1085 95.9184 25.1169L102.009 25.1204ZM58.9568 7.67558L63.0601 7.30858C63.1041 7.30858 56.9201 32.2857 56.9201 34.6694C55.746 41.5936 59.7243 45.1465 68.7917 45.6603C69.554 45.6603 70.2053 45.6655 70.7598 45.669C95.7564 43.6592 113.995 35.3405 113.995 24.5C113.995 14.3201 95.6543 6.24952 72.2772 3.80808L72.9391 0.725266C97.1911 3.53545 117 12.7629 117 24.4983C117 35.6848 100.62 44.4177 78.081 47.6456C78.081 47.6299 75.9827 47.899 74.203 48.093C59.6961 49.7323 50.259 45.3946 53.2727 31.7457L58.9568 7.67558ZM65.3098 39.9176C62.4704 38.1245 63.4861 34.6013 64.6638 29.2238L70.589 0.627398C66.572 0.277873 62.7644 0 58.4991 0C26.5211 0 0 10.2673 0 24.5017C0 38.7362 26.5193 49 58.4991 49H59.6574C58.2615 48.7955 58.221 48.6365 56.6473 47.8064C55.8058 47.2978 55.019 46.7071 54.299 46.0395C24.6938 45.4366 3.00311 36.6513 3.00311 24.5035C3.00311 12.1705 27.0861 3.21039 58.39 3.21039C61.2171 3.21039 63.2661 3.43409 65.9611 3.57565L59.4603 33.4374C58.4938 38.9057 61.3209 42.5443 66.535 43.6173C67.82 43.8008 69.1192 43.876 70.4183 43.8445C72.8704 43.8917 77.5071 43.3779 77.4948 43.3779L78.1549 40.7407C72.2402 41.4834 67.7215 41.4468 65.3098 39.9176Z" fill="#009698"/>
</svg>
