<svg width="150" height="34" viewBox="0 0 150 34" fill="none" xmlns="http://www.w3.org/2000/svg">
<path d="M56.8221 15.0196C56.2459 14.2972 55.4481 13.8008 54.4288 13.5216C55.7141 13.1049 56.6625 12.4933 57.2786 11.6823C57.8946 10.8756 58.2004 9.91832 58.2004 8.81475C58.2004 7.9904 58.0231 7.24138 57.673 6.56328C57.3184 5.88519 56.8043 5.34005 56.1262 4.93673C55.4481 4.52899 54.6193 4.25863 53.6443 4.12124C53.0548 4.0326 52.0222 3.98828 50.5508 3.98828H43.752L39.5859 23.8792H48.9641C51.0383 23.8792 52.6693 23.6443 53.8615 23.1745C55.0581 22.7047 55.9933 21.9335 56.6714 20.861C57.3495 19.7929 57.6907 18.6583 57.6907 17.4661C57.6863 16.5486 57.3982 15.7376 56.8221 15.0196ZM52.9839 19.3009C52.6427 19.7884 52.1906 20.1386 51.6277 20.3513C51.0604 20.564 49.9524 20.6704 48.2949 20.6704H44.3459L45.4318 15.4716H50.3159C51.4549 15.4716 52.2704 15.6888 52.7623 16.1143C53.2499 16.5442 53.4936 17.0893 53.4936 17.7497C53.4936 18.2948 53.3252 18.8134 52.9839 19.3009ZM53.6798 10.7382C53.374 11.1903 52.913 11.5183 52.297 11.7133C51.6809 11.9127 50.6748 12.0102 49.2699 12.0102H46.1498L47.1425 7.299H50.3159C51.4549 7.299 52.1773 7.32559 52.4743 7.38321C53.0061 7.48958 53.4183 7.70675 53.7108 8.03471C53.9989 8.35825 54.1451 8.77486 54.1451 9.28011C54.1451 9.80309 53.99 10.2862 53.6798 10.7382Z" fill="#009698"/>
<path d="M79.756 15.2731C79.756 13.292 79.1621 11.7142 77.9655 10.5441C76.7732 9.37409 75.1112 8.78906 72.9839 8.78906C70.533 8.78906 68.5563 9.58239 67.045 11.1691C65.5381 12.7602 64.7891 14.8831 64.7891 17.5556C64.7891 18.6946 65.0506 19.7627 65.5602 20.7555C66.0788 21.7527 66.8588 22.5195 67.9092 23.0646C68.9596 23.6053 70.1651 23.8801 71.5169 23.8801C74.021 23.8801 76.0242 23.0291 77.5134 21.3272C79.0114 19.6253 79.756 17.6043 79.756 15.2731ZM74.3445 19.4924C73.6221 20.4054 72.7224 20.8619 71.6587 20.8619C70.8077 20.8619 70.1031 20.5605 69.5402 19.9533C68.9773 19.3506 68.6981 18.5306 68.6981 17.498C68.6981 16.6648 68.8798 15.7518 69.2388 14.7634C69.6022 13.7707 70.1075 13.0172 70.759 12.4987C71.4105 11.9801 72.1595 11.7186 72.9972 11.7186C73.8481 11.7186 74.5439 11.9934 75.0802 12.5518C75.6165 13.1103 75.8868 13.846 75.8868 14.7723C75.8913 16.6249 75.3772 18.1982 74.3445 19.4924Z" fill="#009698"/>
<path d="M64.515 9.46875H60.6192L57.6055 23.8772H61.5012L64.515 9.46875Z" fill="#009698"/>
<path d="M65.6583 3.98828H61.7625L61.0312 7.51617H64.927L65.6583 3.98828Z" fill="#009698"/>
<path d="M96.7999 13.5216C98.0851 13.1049 99.0336 12.4933 99.6497 11.6823C100.266 10.8756 100.572 9.91832 100.572 8.81475C100.572 7.99039 100.394 7.24138 100.044 6.56328C99.6895 5.88519 99.1754 5.34005 98.4973 4.93673C97.8192 4.52899 96.9904 4.25863 96.0154 4.12124C95.4259 4.0326 94.3933 3.98828 92.9218 3.98828H86.1231L81.957 23.8792H91.3352C93.4094 23.8792 95.0403 23.6443 96.2326 23.1745C97.4292 22.7047 98.3644 21.9335 99.0425 20.861C99.7206 19.7929 100.062 18.6583 100.062 17.4661C100.062 16.5619 99.7737 15.7464 99.202 15.0284C98.6214 14.3016 97.8237 13.8052 96.7999 13.5216ZM95.355 19.3053C95.0138 19.7929 94.5617 20.143 93.9988 20.3557C93.4315 20.5685 92.3235 20.6748 90.6659 20.6748H86.717L87.8029 15.4761H92.6869C93.826 15.4761 94.6415 15.6932 95.1334 16.1187C95.6209 16.5486 95.8647 17.0938 95.8647 17.7541C95.8647 18.2993 95.6963 18.8178 95.355 19.3053ZM96.0553 10.7427C95.7495 11.1947 95.2885 11.5227 94.6725 11.7177C94.0564 11.9172 93.0504 12.0147 91.6454 12.0147H88.5253L89.5181 7.30343H92.6914C93.8304 7.30343 94.5528 7.33002 94.8498 7.38764C95.3816 7.49401 95.7938 7.71118 96.0863 8.03915C96.3744 8.36268 96.5206 8.77929 96.5206 9.28454C96.5162 9.80752 96.3611 10.2906 96.0553 10.7427Z" fill="#009698"/>
<path d="M132.672 14.7556C132.672 12.8099 132.216 11.3297 131.303 10.3103C130.39 9.29536 129.171 8.78568 127.651 8.78568C126.92 8.78568 126.242 8.90091 125.621 9.13137C125.001 9.36627 124.331 9.75185 123.618 10.2926L125.014 3.64453H121.105L116.961 23.5399H120.507L121.007 21.1643C121.974 22.9726 123.489 23.8767 125.55 23.8767C126.419 23.8767 127.248 23.6906 128.041 23.3138C128.834 22.9371 129.588 22.3654 130.31 21.5898C131.028 20.8142 131.6 19.8125 132.034 18.576C132.46 17.3439 132.672 16.0675 132.672 14.7556ZM128.311 17.9733C127.917 19.0059 127.425 19.7549 126.831 20.2247C126.237 20.6945 125.617 20.9294 124.965 20.9294C124.221 20.9294 123.578 20.6236 123.033 20.0208C122.488 19.4181 122.213 18.6248 122.213 17.6586C122.213 15.7395 122.696 14.1617 123.667 12.9207C124.371 12.0166 125.213 11.5646 126.193 11.5646C126.942 11.5646 127.584 11.8571 128.112 12.4421C128.639 13.0227 128.905 13.8249 128.905 14.8487C128.901 15.9035 128.706 16.9406 128.311 17.9733Z" fill="#009698"/>
<path d="M145.628 8.61381L139.787 19.6008H139.672L139.419 16.8175L138.24 8.61381H134.194L136.804 23.9796L136.299 24.8217C135.989 25.2693 135.43 25.8898 135.089 26.0893C134.61 26.3995 133.963 26.4527 133.321 26.4527C132.789 26.4527 132.31 26.3375 131.889 26.1424L131.047 28.9789C131.862 29.2316 132.758 29.4 133.742 29.4C134.951 29.4 136.268 29.2005 137.252 28.5579C138.262 27.9108 139.162 26.7585 140.203 24.9325L149.67 8.60938H145.628V8.61381Z" fill="#009698"/>
<path d="M110.582 21.4942H110.639L110.214 23.6481H113.985L115.887 14.3763C115.971 13.9509 116.055 13.5254 116.055 13.0423C116.055 12.1071 115.714 10.946 115.005 10.1792C113.786 8.90279 111.601 8.73438 110.24 8.73438C109.248 8.73438 108.397 8.79199 107.404 8.99143C107.036 9.07564 106.101 9.27508 104.935 9.70056L104.31 12.7365C105.019 12.3686 106.012 11.9697 106.806 11.7437C107.625 11.5177 108.366 11.4335 109.044 11.4335C109.837 11.4335 110.945 11.5177 111.654 12.2002C112.195 12.6833 112.248 13.2772 112.106 13.9597L111.964 14.5846H111.623H109.438C108.787 14.5846 108.135 14.6112 107.537 14.6688C105.042 14.8949 103.708 15.6882 103.029 16.2289C101.669 17.2793 101.102 18.7818 101.102 20.1114C101.102 21.6138 101.811 22.549 102.577 23.0897C103.628 23.8254 105.046 23.883 105.667 23.883C106.686 23.883 107.568 23.7146 108.472 23.2581C109.079 22.9434 109.873 22.4293 110.582 21.4942ZM107.009 21.2681C106.642 21.2681 106.074 21.2415 105.622 20.8692C105.197 20.528 105.139 20.1025 105.139 19.7657C105.139 19.3136 105.166 18.148 106.757 17.4699C107.86 17.0178 109.053 16.9868 110.497 16.9868H111.49L111.406 17.3547C111.18 18.3474 110.896 19.256 110.13 20.0493C109.106 21.0997 107.887 21.2681 107.009 21.2681Z" fill="#009698"/>
<path d="M16.4339 0.96875C7.35715 0.96875 0 8.3259 0 17.4027C0 26.4795 7.35715 33.8366 16.4339 33.8366C25.5107 33.8366 32.8679 26.4795 32.8679 17.4027C32.8679 8.3259 25.5107 0.96875 16.4339 0.96875ZM29.8541 14.8144C29.1848 17.1279 27.1062 18.6481 24.8237 18.7101C24.6642 18.7367 24.4736 18.7367 24.252 18.6968C24.2343 18.6924 24.221 18.6924 24.2033 18.688C24.0481 18.6747 23.893 18.6525 23.7379 18.6259C21.8277 18.4353 21.2826 19.2109 21.0211 20.2436C21.0122 20.3056 20.9989 20.3633 20.99 20.4253C20.7064 22.5527 22.2044 24.5028 24.3274 24.7864C27.319 25.0789 28.1389 22.7078 27.5716 21.7638C27.1195 21.0059 26.0204 20.9527 25.3379 21.4934C25.0764 21.7017 24.8991 21.981 24.8104 22.2823C24.775 22.1671 24.744 22.0519 24.7262 21.9322C24.5312 20.6469 25.4221 19.4458 26.7073 19.2508C27.1062 19.1932 28.2674 19.1976 29.2912 20.514C29.6546 20.9837 29.8364 22.1183 29.7699 22.9072C29.3799 25.859 26.5434 27.4944 23.5916 27.0999C21.4953 26.8207 19.8421 25.3759 19.1995 23.5011C19.164 23.4435 19.1286 23.3815 19.0976 23.315C18.3574 21.8303 17.0145 21.7594 15.4677 22.5172C15.4456 22.5305 15.419 22.5438 15.3968 22.5571C13.5797 23.6961 13.0301 26.0939 14.1692 27.911C15.8533 30.4018 18.1979 29.5198 18.5657 28.4872C18.8627 27.6539 18.2023 26.7764 17.3514 26.5947C17.0234 26.5238 16.6954 26.5681 16.4073 26.6922C16.4738 26.5947 16.5447 26.4972 16.6245 26.4041C17.4932 25.4335 18.9823 25.3537 19.9529 26.2224C20.2499 26.4883 20.99 27.3924 20.6266 29.019C20.4981 29.5996 19.7402 30.4594 19.0887 30.9159C16.5625 32.4981 13.4999 31.3547 11.9177 28.8329C11.0579 27.4634 10.8939 25.8545 11.3238 24.4186C11.3327 24.2103 11.346 23.9887 11.377 23.7493C11.5942 22.105 11.931 21.2231 11.8512 20.5893C10.4241 19.273 8.20367 19.1976 6.69235 20.4962C4.47634 22.5305 5.69958 24.7199 6.77656 24.9282C7.64523 25.0967 8.4164 24.3166 8.46516 23.4435C8.48288 23.1067 8.39425 22.792 8.23026 22.5261C8.33663 22.5748 8.443 22.6325 8.54493 22.6989C9.63078 23.4125 9.93659 24.8751 9.2186 25.9609C8.997 26.2977 8.21696 27.162 6.55052 27.0423C5.95663 27.0024 4.99489 26.3775 4.44975 25.8014C2.51296 23.541 3.18662 20.3367 5.44695 18.3999C6.44416 17.5445 7.65853 17.119 8.87733 17.1013L8.8862 17.0924C8.8862 17.0924 8.89949 17.0969 8.91722 17.1013C9.43577 17.0969 9.95431 17.1678 10.4507 17.314C10.7211 17.3007 10.9692 17.252 11.1554 17.1368C11.1953 17.1102 11.2307 17.0836 11.2573 17.0525C8.36765 16.3744 6.09403 14.1496 5.69958 11.2466C5.17217 7.38631 8.15491 3.79195 12.3653 3.21578C16.5758 2.63962 20.4183 5.29883 20.9457 9.15912C21.0698 10.0588 20.9989 10.9408 20.7729 11.774H20.7862C20.7862 11.774 20.2499 14.7302 20.9812 15.4703C21.7701 16.2681 22.6476 16.5562 23.4232 16.6093C23.9196 16.6049 24.3584 16.5606 24.5977 16.5296C24.6598 16.5163 24.7218 16.503 24.7838 16.4897L24.7661 16.4542C26.109 16.1573 27.2569 15.1512 27.6647 13.7374C28.4004 10.8211 26.1755 9.65994 25.1606 10.081C24.3451 10.4178 24.1279 11.4948 24.5622 12.2482C24.7307 12.5408 24.9789 12.7535 25.2625 12.8864C25.1473 12.9042 25.0276 12.9175 24.9035 12.9175C23.6005 12.9175 22.5457 11.8627 22.5457 10.5596C22.5457 10.1563 22.723 9.00843 24.1811 8.18851C24.6996 7.896 25.8475 7.88713 26.6187 8.07328C29.4818 8.9065 30.6784 11.9513 29.8541 14.8144Z" fill="#009698"/>
<path d="M13.6107 12.5898C13.1054 12.5898 12.7154 12.971 12.711 13.4718C12.7065 13.9859 13.101 14.3892 13.6107 14.3848C14.1026 14.3804 14.5015 13.9815 14.5015 13.4851C14.5059 12.9843 14.1115 12.5898 13.6107 12.5898Z" fill="#009698"/>
<path d="M18.0019 12.8575C18.5027 12.8575 18.8928 12.4675 18.8928 11.9667C18.8928 11.4703 18.4983 11.067 18.0064 11.0625C17.5055 11.0581 17.0889 11.4747 17.0978 11.9711C17.1067 12.4675 17.5055 12.8575 18.0019 12.8575Z" fill="#009698"/>
<path d="M18.6469 14.418C18.8198 15.5703 18.0309 16.6517 16.8786 16.8379C16.0719 16.9664 15.3008 16.6295 14.8398 16.0179C14.8398 16.0268 14.8398 16.0357 14.8443 16.0445C15.0304 17.2057 16.1296 17.999 17.2908 17.8129C18.4519 17.6268 19.2453 16.5276 19.0591 15.3664C18.9971 15.0074 18.8508 14.6883 18.6469 14.418Z" fill="#009698"/>
</svg>
