<svg width="164" height="37" viewBox="0 0 164 37" fill="none" xmlns="http://www.w3.org/2000/svg">
<path d="M19.2577 13.9131C21.7446 13.9131 23.7487 15.6592 23.7487 17.8487C23.7487 20.0382 21.7355 21.7843 19.2577 21.7843C16.7981 21.7843 14.7666 20.0382 14.7666 17.8487C14.7666 15.6592 16.7981 13.9131 19.2577 13.9131ZM20.9065 10.384C21.1798 10.3748 21.444 10.3655 21.7173 10.3655C21.4531 10.3563 21.1798 10.3655 20.9065 10.384ZM21.7355 32.621H21.7264C10.6218 32.621 2.88774 28.3805 2.88774 21.9598C2.88774 19.1605 4.71877 16.6107 7.53363 14.6245C5.46576 16.426 4.33616 18.6709 4.33616 21.0914C4.33616 27.0132 12.134 31.2906 21.7264 31.2906H22.0179L22.4278 29.3228V29.1196H21.7355C12.8081 29.1196 5.54774 24.9161 5.54774 19.761C5.54774 14.7723 14.3021 10.7074 20.9247 10.384C7.56096 10.615 0 16.4999 0 23.6874C0 30.8749 9.30089 36.7136 20.8519 37L21.7355 32.621ZM15.3132 25.7291C15.0126 25.7383 14.7211 25.7476 14.4114 25.7476C14.7029 25.7476 15.0126 25.7383 15.3132 25.7291ZM15.2221 0L14.3385 4.26817H14.4114C26.6729 4.26817 35.4728 8.66566 35.4728 14.8647C35.4728 18.1628 32.3391 21.036 27.9027 22.9945C31.5556 21.1006 33.5871 18.3845 33.5871 15.3728C33.5871 9.65418 24.9694 5.53383 14.4114 5.53383H14.0743L13.6462 7.62172H14.4114C24.2406 7.62172 32.2662 11.6774 32.2662 16.7031C32.2662 21.4886 22.6009 25.415 15.3132 25.7198C30.0252 25.4889 38.3514 19.8072 38.3514 12.8599C38.3514 5.93108 28.012 0.230961 15.2221 0ZM44.2271 26.6345L48.3446 6.70712H55.0584C56.5159 6.70712 57.5362 6.75331 58.1192 6.8457C59.0848 6.98427 59.9047 7.25218 60.5697 7.65868C61.2438 8.06517 61.7448 8.61023 62.1001 9.29388C62.4463 9.97752 62.6193 10.7258 62.6193 11.5481C62.6193 12.6567 62.3187 13.6082 61.7084 14.4212C61.098 15.2342 60.1598 15.8439 58.8935 16.2597C59.9047 16.5368 60.6881 17.0449 61.262 17.7655C61.8268 18.4861 62.1092 19.2991 62.1092 20.2045C62.1092 21.3963 61.7721 22.5418 61.1071 23.6135C60.433 24.6851 59.513 25.4612 58.3287 25.9323C57.1536 26.4035 55.5412 26.6437 53.4915 26.6437H44.2271V26.6345ZM48.9367 23.4287H52.8356C54.4663 23.4287 55.5685 23.3179 56.1242 23.1054C56.6799 22.8929 57.1263 22.5418 57.4633 22.0522C57.8004 21.5625 57.9643 21.0452 57.9643 20.5001C57.9643 19.835 57.7184 19.2899 57.2447 18.8649C56.7619 18.4399 55.9602 18.2182 54.8306 18.2182H50.0026L48.9367 23.4287ZM50.7131 14.7538H53.7921C55.1768 14.7538 56.1789 14.6522 56.7801 14.4582C57.3904 14.2642 57.8459 13.9316 58.1465 13.4789C58.4472 13.0262 58.602 12.5458 58.602 12.0192C58.602 11.5111 58.4563 11.0954 58.1739 10.772C57.8915 10.4487 57.4815 10.227 56.9532 10.1253C56.6617 10.0699 55.9511 10.0422 54.8215 10.0422H51.6878L50.7131 14.7538ZM71.2826 20.6479C71.2826 17.9688 72.0295 15.8439 73.5144 14.2457C74.9993 12.6567 76.9578 11.8622 79.381 11.8622C81.4853 11.8622 83.125 12.4534 84.3002 13.6267C85.4844 14.8 86.0674 16.3798 86.0674 18.366C86.0674 20.7034 85.3296 22.7266 83.8538 24.4265C82.3781 26.1263 80.4013 26.9855 77.9326 26.9855C76.5935 26.9855 75.4001 26.7176 74.3707 26.1725C73.3322 25.6275 72.5579 24.8607 72.0478 23.8629C71.5376 22.8559 71.2826 21.7843 71.2826 20.6479ZM82.2414 17.8579C82.2414 16.9341 81.9772 16.195 81.4398 15.6315C80.9114 15.0772 80.2191 14.8 79.381 14.8C78.552 14.8 77.8141 15.0587 77.1674 15.5853C76.5206 16.1026 76.0195 16.8602 75.6643 17.8579C75.309 18.8464 75.1268 19.761 75.1268 20.6017C75.1268 21.6365 75.4001 22.4587 75.9558 23.0592C76.5115 23.6689 77.2038 23.9738 78.051 23.9738C79.1077 23.9738 79.9913 23.5119 80.7019 22.5972C81.7313 21.2946 82.2414 19.7149 82.2414 17.8579ZM98.584 26.6345H94.7489L94.0383 9.97753L90.9137 26.6345H87.2699L91.3692 6.70712H97.1356L97.7368 20.6664L104.441 6.70712H110.272L106.154 26.6345H102.465L106.336 10.1069L98.584 26.6345ZM123.663 20.6295H114.016C114.007 20.7865 113.997 20.8974 113.997 20.9805C113.997 21.9413 114.271 22.7174 114.808 23.3086C115.346 23.8999 116.011 24.1955 116.785 24.1955C118.06 24.1955 119.062 23.5211 119.773 22.1815L123.216 22.7635C122.542 24.1678 121.649 25.221 120.529 25.9231C119.409 26.6252 118.151 26.9763 116.758 26.9763C114.845 26.9763 113.296 26.3665 112.094 25.1378C110.9 23.9091 110.299 22.2831 110.299 20.2599C110.299 18.2829 110.836 16.5276 111.92 14.9848C113.396 12.8969 115.501 11.8622 118.233 11.8622C119.973 11.8622 121.358 12.4072 122.387 13.4974C123.417 14.5875 123.927 16.1211 123.927 18.0889C123.936 19.0312 123.845 19.8811 123.663 20.6295ZM120.42 18.2459C120.429 18.0704 120.429 17.9411 120.429 17.8487C120.429 16.777 120.192 15.9733 119.718 15.4375C119.245 14.9016 118.607 14.6337 117.814 14.6337C117.013 14.6337 116.302 14.9386 115.674 15.5483C115.045 16.1581 114.617 17.0542 114.389 18.2367H120.42V18.2459ZM124.647 26.6345L128.746 6.70712H132.608L131.224 13.368C131.925 12.823 132.59 12.4442 133.2 12.204C133.811 11.973 134.485 11.8529 135.205 11.8529C136.708 11.8529 137.91 12.361 138.812 13.3865C139.714 14.4027 140.169 15.8901 140.169 17.8394C140.169 19.1513 139.96 20.4354 139.532 21.6642C139.103 22.9021 138.539 23.9091 137.828 24.6851C137.118 25.4612 136.371 26.034 135.587 26.4127C134.804 26.7915 133.984 26.9763 133.128 26.9763C131.087 26.9763 129.593 26.0709 128.637 24.2602L128.145 26.6345H124.647ZM129.839 20.7496C129.839 21.7196 130.112 22.5049 130.65 23.1146C131.187 23.7243 131.825 24.0292 132.563 24.0292C133.21 24.0292 133.82 23.789 134.403 23.3178C134.986 22.8467 135.478 22.0891 135.86 21.0637C136.252 20.029 136.443 18.985 136.443 17.9318C136.443 16.9064 136.179 16.1026 135.66 15.5206C135.141 14.9386 134.503 14.6429 133.765 14.6429C132.8 14.6429 131.971 15.0956 131.269 16.001C130.313 17.2482 129.839 18.828 129.839 20.7496ZM155.027 20.6295H145.38C145.371 20.7865 145.371 20.8974 145.371 20.9805C145.371 21.9413 145.635 22.7174 146.182 23.3086C146.719 23.8999 147.384 24.1955 148.158 24.1955C149.434 24.1955 150.436 23.5211 151.146 22.1815L154.59 22.7635C153.916 24.1678 153.023 25.221 151.902 25.9231C150.782 26.6252 149.525 26.9763 148.131 26.9763C146.218 26.9763 144.66 26.3665 143.467 25.1378C142.265 23.9091 141.672 22.2831 141.672 20.2599C141.672 18.2829 142.21 16.5276 143.294 14.9848C144.77 12.8969 146.874 11.8622 149.607 11.8622C151.347 11.8622 152.741 12.4072 153.761 13.4974C154.79 14.5875 155.3 16.1211 155.3 18.0889C155.291 19.0312 155.2 19.8811 155.027 20.6295ZM151.784 18.2459C151.793 18.0704 151.802 17.9411 151.802 17.8487C151.802 16.777 151.565 15.9733 151.092 15.4375C150.618 14.9016 149.98 14.6337 149.188 14.6337C148.395 14.6337 147.676 14.9386 147.047 15.5483C146.418 16.1581 145.99 17.0542 145.763 18.2367H151.784V18.2459ZM156.047 26.6345L160.165 6.70712H164L159.901 26.6345H156.047ZM66.6184 12.2317H70.4627L67.4839 26.6714H63.6396L66.6184 12.2317ZM67.748 6.73483H71.5923L70.8726 10.2732H67.0284L67.748 6.73483Z" fill="#009698"/>
</svg>
