<svg width="158" height="45" viewBox="0 0 158 45" fill="none" xmlns="http://www.w3.org/2000/svg">
<path d="M0 28.8904L4.11035 8.87306H10.8186C12.275 8.87306 13.2904 8.91592 13.8716 9.00879C14.8379 9.14452 15.6502 9.42314 16.3224 9.83034C16.9946 10.2375 17.4988 10.7876 17.8489 11.4663C18.199 12.145 18.374 12.9094 18.374 13.7309C18.374 14.8383 18.0659 15.8027 17.4637 16.6171C16.8545 17.4315 15.9162 18.0459 14.6558 18.4674C15.6642 18.746 16.4484 19.2532 17.0156 19.9748C17.5828 20.6963 17.8699 21.5178 17.8699 22.4251C17.8699 23.6253 17.5338 24.7683 16.8615 25.8471C16.1893 26.9258 15.265 27.6974 14.0886 28.176C12.9052 28.6475 11.3017 28.8833 9.25704 28.8833H0V28.8904ZM4.69855 25.6685H8.59183C10.2234 25.6685 11.3227 25.5613 11.8759 25.347C12.4361 25.1327 12.8772 24.7826 13.2133 24.2897C13.5495 23.7968 13.7175 23.2824 13.7175 22.7323C13.7175 22.0679 13.4724 21.5178 12.9963 21.0892C12.5131 20.6606 11.7079 20.4463 10.5875 20.4463H5.7699L4.69855 25.6685ZM6.48413 16.9529H9.56515C10.9446 16.9529 11.9389 16.8528 12.5481 16.6528C13.1573 16.4528 13.6125 16.1242 13.9136 15.667C14.2147 15.2169 14.3687 14.7239 14.3687 14.2096C14.3687 13.6952 14.2287 13.2809 13.9416 12.9523C13.6545 12.6236 13.2484 12.4093 12.7232 12.295C12.4291 12.2379 11.7219 12.2164 10.5945 12.2164H7.46446L6.48413 16.9529ZM22.5264 14.3882H26.3707L23.3947 28.8904H19.5504L22.5264 14.3882ZM23.6468 8.87306H27.491L26.7698 12.4236H22.9255L23.6468 8.87306ZM27.351 22.868C27.351 20.1819 28.0932 18.0387 29.5847 16.4456C31.0692 14.8454 33.0229 14.0524 35.4387 14.0524C37.5323 14.0524 39.1709 14.6454 40.3473 15.8241C41.5237 17.0029 42.1119 18.5888 42.1119 20.582C42.1119 22.9323 41.3766 24.9612 39.9061 26.6758C38.4286 28.3903 36.461 29.2405 33.9892 29.2405C32.6517 29.2405 31.4614 28.969 30.432 28.426C29.3957 27.876 28.6254 27.1044 28.1143 26.1043C27.6031 25.0898 27.351 24.0111 27.351 22.868ZM38.2956 20.0676C38.2956 19.1389 38.0295 18.3959 37.5043 17.8387C36.9722 17.2815 36.2859 16.9957 35.4457 16.9957C34.6194 16.9957 33.8771 17.26 33.2399 17.7816C32.5957 18.3031 32.0986 19.0675 31.7414 20.0605C31.3843 21.0606 31.2023 21.9751 31.2023 22.8109C31.2023 23.8468 31.4824 24.6683 32.0355 25.2827C32.5887 25.8899 33.282 26.1971 34.1222 26.1971C35.1796 26.1971 36.0619 25.7399 36.7761 24.8184C37.7914 23.5182 38.2956 21.9322 38.2956 20.0676ZM66.0878 14.4096H69.918L70.8843 21.6321C71.1294 23.4896 71.2625 24.7898 71.2835 25.5327C71.7806 24.0468 72.4739 22.4823 73.3421 20.8392L76.7453 14.4096H80.8136L72.0327 30.3335C71.3115 31.6551 70.7373 32.5767 70.3242 33.1053C69.911 33.634 69.4069 34.0483 68.8257 34.3484C68.2375 34.6484 67.5372 34.7984 66.718 34.7984C65.9057 34.7984 64.9884 34.6484 63.9731 34.3627L64.3092 31.4408C64.7713 31.5765 65.2195 31.648 65.6606 31.648C66.837 31.648 67.8103 30.7335 68.5666 28.919L66.0878 14.4096ZM79.147 24.8541L82.8723 24.254C83.2014 25.0541 83.6145 25.6256 84.1047 25.9542C84.5948 26.2829 85.2671 26.4543 86.1143 26.4543C86.9896 26.4543 87.6899 26.2543 88.215 25.8542C88.5792 25.5828 88.7612 25.247 88.7612 24.8541C88.7612 24.5897 88.6702 24.354 88.4811 24.1468C88.2851 23.9468 87.7529 23.7039 86.8916 23.411C84.5738 22.6252 83.1314 22.0108 82.5782 21.5536C81.7169 20.8463 81.2828 19.9176 81.2828 18.7674C81.2828 17.6173 81.7029 16.6314 82.5432 15.8027C83.7126 14.6454 85.4491 14.0667 87.7529 14.0667C89.5805 14.0667 90.9669 14.4096 91.8982 15.0883C92.8366 15.7741 93.4317 16.6957 93.6768 17.8601L90.1267 18.4888C89.9376 17.9602 89.6365 17.5672 89.2164 17.3029C88.6492 16.9457 87.963 16.7671 87.1507 16.7671C86.3524 16.7671 85.7712 16.9029 85.4211 17.1743C85.071 17.4458 84.896 17.7601 84.896 18.1173C84.896 18.4817 85.071 18.7817 85.4281 19.0175C85.6522 19.1603 86.3664 19.4175 87.5848 19.7819C89.4614 20.3391 90.7149 20.882 91.3451 21.425C92.2344 22.1822 92.6825 23.0895 92.6825 24.154C92.6825 25.5327 92.1153 26.7186 90.9809 27.7331C89.8466 28.7404 88.25 29.2476 86.1914 29.2476C84.1397 29.2476 82.5502 28.8618 81.4298 28.0903C80.3094 27.333 79.5462 26.2471 79.147 24.8541ZM95.4694 17.3172L96.0576 14.4096H97.9342L98.4034 12.0878L102.808 9.38742L101.779 14.4168H104.124L103.536 17.3243H101.176L99.9299 23.4038C99.7058 24.504 99.6008 25.1327 99.6008 25.2899C99.6008 25.5899 99.6918 25.8256 99.8809 25.99C100.07 26.1614 100.406 26.2471 100.903 26.2471C101.071 26.2471 101.498 26.2186 102.171 26.1471L101.568 29.0547C100.903 29.1904 100.231 29.2619 99.5308 29.2619C98.1723 29.2619 97.192 28.9976 96.5758 28.4618C95.9596 27.9331 95.6515 27.1901 95.6515 26.2471C95.6515 25.8042 95.8195 24.7683 96.1486 23.161L97.339 17.3315H95.4694V17.3172ZM117.296 22.8752H107.66C107.653 23.0252 107.646 23.1467 107.646 23.2324C107.646 24.1968 107.92 24.9755 108.459 25.5685C108.998 26.1614 109.656 26.4543 110.433 26.4543C111.708 26.4543 112.702 25.7828 113.416 24.4326L116.854 25.0184C116.182 26.4257 115.293 27.4902 114.173 28.1903C113.052 28.8975 111.799 29.2476 110.405 29.2476C108.501 29.2476 106.946 28.6261 105.749 27.3973C104.551 26.1614 103.956 24.5326 103.956 22.5037C103.956 20.5177 104.495 18.7531 105.574 17.2029C107.044 15.1097 109.152 14.0596 111.883 14.0596C113.619 14.0596 115.006 14.6096 116.035 15.7027C117.058 16.8028 117.576 18.3388 117.576 20.3105C117.562 21.2678 117.471 22.1251 117.296 22.8752ZM114.054 20.4891C114.061 20.3177 114.068 20.1891 114.068 20.0962C114.068 19.0246 113.829 18.2173 113.36 17.6815C112.891 17.1457 112.254 16.8743 111.463 16.8743C110.664 16.8743 109.957 17.1815 109.327 17.7887C108.697 18.3959 108.27 19.2961 108.046 20.4891H114.054ZM121.413 14.4096H125.026L124.662 16.1742C126.069 14.774 127.554 14.0667 129.109 14.0667C130.18 14.0667 131.006 14.2953 131.587 14.7525C132.168 15.2097 132.533 15.8384 132.701 16.6385C133.191 15.9098 133.898 15.2955 134.815 14.8097C135.733 14.3167 136.692 14.0739 137.679 14.0739C138.807 14.0739 139.696 14.381 140.326 15.0026C140.956 15.6241 141.271 16.4456 141.271 17.4601C141.271 17.9602 141.145 18.8246 140.893 20.0533L139.073 28.9118H135.229L137.049 20.0533C137.273 18.9389 137.385 18.3174 137.385 18.1673C137.385 17.7673 137.266 17.4529 137.035 17.2172C136.797 16.9814 136.447 16.8671 135.971 16.8671C135.018 16.8671 134.164 17.3815 133.415 18.4102C132.869 19.1461 132.407 20.4534 132.021 22.3323L130.67 28.9118H126.833L128.625 20.1462C128.828 19.1389 128.933 18.4817 128.933 18.1816C128.933 17.7958 128.807 17.4887 128.548 17.2386C128.296 16.9957 127.946 16.8743 127.498 16.8743C127.078 16.8743 126.644 17.0029 126.203 17.2529C125.754 17.5101 125.362 17.8601 125.033 18.3031C124.697 18.7531 124.41 19.3246 124.165 20.0248C124.06 20.3534 123.885 21.0964 123.64 22.2537L122.274 28.919H118.437L121.413 14.4096ZM143.274 14.4096H147.104L148.071 21.6321C148.316 23.4896 148.449 24.7898 148.47 25.5327C148.974 24.0468 149.66 22.4823 150.536 20.8392L153.932 14.4096H158L149.219 30.3335C148.498 31.6551 147.931 32.5767 147.511 33.1053C147.097 33.634 146.6 34.0483 146.012 34.3484C145.424 34.6484 144.724 34.7984 143.904 34.7984C143.092 34.7984 142.182 34.6484 141.159 34.3627L141.496 31.4408C141.958 31.5765 142.406 31.648 142.847 31.648C144.023 31.648 144.997 30.7335 145.753 28.919L143.274 14.4096ZM32.6027 37.0202C36.7411 37.4346 40.3333 37.0988 43.5193 36.1344C48.2249 34.7056 51.2079 32.1195 51.9641 29.5119C52.6923 27.0115 51.607 25.9042 49.0441 23.0538C46.4603 20.1819 42.7771 16.1027 45.0318 10.059C46.7824 5.36538 51.3059 2.29348 57.5589 0.80754C63.0628 -0.499803 69.841 -0.106888 75.5199 1.17902L73.7833 4.35094C68.2585 3.18647 62.3345 3.12932 58.0211 4.15091C52.7484 5.4011 49.2472 8.03722 47.8818 11.7806C46.5093 15.5526 49.0161 18.3459 51.4459 21.0463C53.8897 23.761 56.1935 26.3257 55.0381 29.9191C53.8967 33.4554 49.8214 36.5987 44.1425 38.3204C40.8094 39.3277 36.6151 39.7206 32.1336 39.3706L32.6027 37.0202ZM52.6363 13.4166C53.0004 10.6376 57.2719 8.60873 59.8977 7.9872C62.0614 7.47284 64.3092 7.42284 66.6339 7.49428L67.8033 5.35823C63.6299 5.00103 61.5293 5.23678 59.0644 5.82259C55.7524 6.60842 51.488 8.40155 50.0035 12.4807C48.9531 15.374 50.9488 17.5887 53.2595 20.1676C55.7664 22.9538 58.6093 26.1185 57.1738 30.5621C55.8644 34.6413 51.5229 38.0632 45.2699 39.9635C42.413 40.8279 38.9398 41.3852 35.2006 41.3852C29.7248 41.3852 23.4507 40.3922 17.8629 37.9204L17.1346 41.4995C23.2476 43.907 29.1436 45 34.8435 45C38.8838 45 42.6721 44.3285 45.7601 43.3926C52.9304 41.2137 58.5113 36.5701 60.1218 31.5622C62.0754 25.4756 58.0211 21.0892 55.4372 18.2173C53.0915 15.6098 52.4963 14.5025 52.6363 13.4166Z" fill="#009698"/>
</svg>
